<?xml version="1.0" encoding="utf-8"?>
<!-- Generator: Adobe Illustrator 22.1.0, SVG Export Plug-In . SVG Version: 6.00 Build 0)  -->
<svg version="1.1" id="Слой_1" xmlns="http://www.w3.org/2000/svg" xmlns:xlink="http://www.w3.org/1999/xlink" x="0px" y="0px"
	 viewBox="0 0 496 496" style="enable-background:new 0 0 496 496;" xml:space="preserve">
<path d="M452.2,335.8L352,313.6v-15.9c15.2-10,27.2-24.5,33.9-41.7H408c17.6,0,32-14.4,32-32v-56c0-11.8-6.5-22-16-27.6v-35
	c0-17.4-10.4-33-26.2-39.7l-1.9-3.8c-19.1-38.1-57.4-61.8-100-61.8C234.2,0.2,184,50.3,184,112v28.4c-9.5,5.6-16,15.8-16,27.6v56
	c0,17.6,14.4,32,32,32h22.1c6.7,17.2,18.7,31.7,33.9,41.7v15.9l-100.2,22.2c-25.8,5.7-43.8,28.2-43.8,54.7V496h384V390.5
	C496,364.1,478,341.6,452.2,335.8z M358.9,331.5L347,379l-30.4-20.3l30-30L358.9,331.5z M294.6,416h18.9l12.8,64h-44.5L294.6,416z
	 M313.8,400h-19.5l-5.1-20.5l14.9-9.9l14.9,9.9L313.8,400z M424,224c0,8.8-7.2,16-16,16h-17.5c1-5.2,1.5-10.5,1.5-16v-72h16
	c8.8,0,16,7.2,16,16V224z M200,112c0-52.8,43-95.8,95.8-95.8c36.5,0,69.4,20.3,85.7,53l4.8,9.6l3.1,1.1c11.1,3.7,18.5,14,18.5,25.7
	V136h-16v-24h-16v18.9c-6,3.1-12.5,4.8-19.2,5c3.7-3.4,7-7.2,9.8-11.4l-13.3-8.9c-8.2,12.3-21.8,19.8-36.5,20.3
	c3.7-3.4,7-7.2,9.9-11.5l-13.3-8.9c-8.2,12.3-21.8,19.8-36.5,20.3c3.7-3.4,7-7.2,9.9-11.5l-13.3-8.9c-8.5,12.8-22.8,20.4-38.2,20.4
	H232v-24h-16v24h-16V112z M200,240c-8.8,0-16-7.2-16-16v-56c0-8.8,7.2-16,16-16h16v72c0,5.5,0.6,10.8,1.5,16H200z M232,224v-72h3.2
	c10.2,0,20.1-2.5,28.8-7.1v7.1h11.2c10.2,0,20.1-2.5,28.8-7.1v7.1h11.2c10.2,0,20.1-2.5,28.8-7.1v7.1h11.2c7.2,0,14.2-1.4,20.8-3.8
	V224c0,5.5-0.7,10.8-1.9,16h-39.6c-3.3-9.3-12.1-16-22.5-16h-16c-13.2,0-24,10.8-24,24s10.8,24,24,24h16c10.4,0,19.2-6.7,22.5-16
	h33.9c-11.8,23.7-36.2,40-64.4,40C264.3,296,232,263.7,232,224z M320,248c0,4.4-3.6,8-8,8h-16c-4.4,0-8-3.6-8-8s3.6-8,8-8h16
	C316.4,240,320,243.6,320,248z M304,312c11.3,0,22.1-2.2,32-6.1v10.8l-32,32l-32-32v-10.8C281.9,309.8,292.7,312,304,312z
	 M261.4,328.8l30,30L261,379l-11.9-47.5L261.4,328.8z M128,390.5c0-18.9,12.9-35,31.3-39l74.2-16.5l17.5,70l24-16l4.8,19.2
	L265.4,480H192v-88h-16v88h-48V390.5z M480,480h-48v-88h-16v88h-73.4l-14.4-71.8L333,389l24,16l17.5-70l74.2,16.5
	c18.4,4.1,31.3,20.2,31.3,39V480z"/>
<path d="M360,176c0,4.4-3.6,8-8,8s-8-3.6-8-8s3.6-8,8-8S360,171.6,360,176z"/>
<path d="M264,176c0,4.4-3.6,8-8,8s-8-3.6-8-8s3.6-8,8-8S264,171.6,264,176z"/>
<path d="M32,32h80v16H32V32z"/>
<path d="M32,64h80v16H32V64z"/>
<path d="M120,141.5V112h24V0H0v112h66L120,141.5z M16,16h112v80h-24v18.5L70.1,96H16V16z"/>
<path d="M168,296H38.9l9.1-13.6V152c0-13.2-10.8-24-24-24S0,138.8,0,152v130.4L19.7,312H168V296z M24,144c4.4,0,8,3.6,8,8v16H16v-16
	C16,147.6,19.6,144,24,144z M24,289.6l-8-12V184h16v93.6L24,289.6z"/>
<path d="M152,264h16v16h-16V264z"/>
<path d="M64,264h72v16H64V264z"/>
<path d="M64,232h72v16H64V232z"/>
<path d="M120,200h16v16h-16V200z"/>
<path d="M64,200h40v16H64V200z"/>
</svg>
