<?xml version="1.0" encoding="utf-8"?>
<!-- Generator: Adobe Illustrator 23.0.1, SVG Export Plug-In . SVG Version: 6.00 Build 0)  -->
<svg version="1.1" id="_x30_1_Parrot" xmlns="http://www.w3.org/2000/svg" xmlns:xlink="http://www.w3.org/1999/xlink" x="0px"
	 y="0px" viewBox="0 0 512 512" style="enable-background:new 0 0 512 512;" xml:space="preserve">
<style type="text/css">
	.st0{fill:#EC0000;}
</style>
<path class="st0" d="M312,440H104c-22.1,0-40-17.9-40-40V248c0-22.1,17.9-40,40-40h208c22.1,0,40,17.9,40,40v152
	C352,422.1,334.1,440,312,440z"/>
<path d="M208,320c-13.9,0-38,12.8-51.5,27.5c-8.9,9.6-13.2,19.7-12.5,29.2c0.7,8.8,4.8,16.8,11.5,22.6c7.7,6.5,18.3,9.7,29.1,8.8
	c13-1.1,18.8-8.8,22.2-13.3c0.3-0.5,0.8-1,1.1-1.5c0.4,0.5,0.8,1,1.1,1.5c3.4,4.6,9.2,12.2,22.2,13.3c1.2,0.1,2.5,0.2,3.7,0.2
	c9.5,0,18.6-3.2,25.4-8.9c6.8-5.7,10.8-13.8,11.5-22.6c0.7-9.5-3.6-19.6-12.5-29.2C246,332.8,221.9,320,208,320L208,320z M250.1,387
	c-4.4,3.8-10.8,5.6-17.4,5c-5.9-0.5-7.9-3.2-10.8-7c-2.7-3.6-6.3-8.4-13.2-9l-0.7,0l-0.7,0.1c-6.9,0.6-10.6,5.5-13.2,9
	c-2.8,3.8-4.9,6.5-10.8,7c-6.6,0.6-13-1.3-17.4-5c-3.5-3-5.6-7-5.9-11.6c-0.5-6.2,4.2-12.7,8.2-17.1c12-13,32.1-22.3,39.8-22.3
	s27.8,9.4,39.8,22.3c4,4.4,8.7,10.8,8.2,17.1C255.7,380,253.6,384,250.1,387L250.1,387z"/>
<path d="M240,272c0-17.6-14.4-32-32-32s-32,14.4-32,32s14.4,32,32,32S240,289.6,240,272z M192,272c0-8.8,7.2-16,16-16s16,7.2,16,16
	s-7.2,16-16,16S192,280.8,192,272z"/>
<path d="M168,304c0-13.2-10.8-24-24-24s-24,10.8-24,24s10.8,24,24,24S168,317.2,168,304z M136,304c0-4.4,3.6-8,8-8s8,3.6,8,8
	s-3.6,8-8,8S136,308.4,136,304z"/>
<path d="M272,280c-13.2,0-24,10.8-24,24s10.8,24,24,24s24-10.8,24-24S285.2,280,272,280z M272,312c-4.4,0-8-3.6-8-8s3.6-8,8-8
	s8,3.6,8,8S276.4,312,272,312z"/>
<path d="M440,136C440,65.4,382.6,8,312,8c-17.9,0-35.3,3.9-51.8,11.2C244.2,12.1,226.6,8,208,8C137.4,8,80,65.4,80,136H8v312
	c0,30.9,25.1,56,56,56h384c30.9,0,56-25.1,56-56V136H440z M488,446.9l-32-26.7V152h32V446.9z M440,420.2l-32,26.7V152h32V420.2z
	 M307.9,56.2c1.4-0.1,2.7-0.2,4.1-0.2c44.1,0,80,35.9,80,80h-56C336,105.8,325.5,78.1,307.9,56.2z M312,24c61.8,0,112,50.2,112,112
	h-16c0-52.9-43.1-96-96-96c-5.8,0-11.7,0.7-17.6,1.8c-5-4.6-10.2-8.8-15.8-12.5C289.4,25.9,300.6,24,312,24z M64,488
	c-22.1,0-40-17.9-40-40V152h56v32h16v-48c0-61.8,50.2-112,112-112s112,50.2,112,112v48h16v-32h56v296c0,15.7,6.5,29.8,16.9,40H64z
	 M448,488c-16.1,0-29.9-9.6-36.3-23.4l36.3-30.2l36.3,30.2C477.9,478.4,464.1,488,448,488z"/>
<path d="M208,40c-52.9,0-96,43.1-96,96v48h16v-32h160v32h16v-48C304,83.1,260.9,40,208,40z M208,56c1.4,0,2.7,0.1,4.1,0.2
	C193.9,78.8,184,106.6,184,136h-56C128,91.9,163.9,56,208,56z M230.6,59.3c5.6,1.6,10.9,3.9,15.9,6.6C227.2,84,216,109.4,216,136
	h-16C200,107.2,210.9,80.2,230.6,59.3z M232,136c0-23.6,10.2-45.3,28.1-60.6C277.1,90.1,288,111.8,288,136H232z"/>
</svg>
