<?xml version="1.0" encoding="utf-8"?>
<!-- Generator: Adobe Illustrator 23.0.1, SVG Export Plug-In . SVG Version: 6.00 Build 0)  -->
<svg version="1.1" id="Layer_35" xmlns="http://www.w3.org/2000/svg" xmlns:xlink="http://www.w3.org/1999/xlink" x="0px" y="0px"
	 viewBox="0 0 512 512" style="enable-background:new 0 0 512 512;" xml:space="preserve">
<style type="text/css">
	.st0{fill:url(#SVGID_1_);}
	.st1{fill:url(#SVGID_2_);}
</style>
<linearGradient id="SVGID_1_" gradientUnits="userSpaceOnUse" x1="120" y1="159.9998" x2="472" y2="159.9998">
	<stop  offset="0" style="stop-color:#C40E53"/>
	<stop  offset="1" style="stop-color:#EC0000"/>
</linearGradient>
<path class="st0" d="M120,40v200.6c2.6-0.4,5.3-0.6,8-0.6c25.4,0,46.8,16.9,53.6,40H472V40H120z"/>
<linearGradient id="SVGID_2_" gradientUnits="userSpaceOnUse" x1="376" y1="387.9998" x2="472" y2="387.9998">
	<stop  offset="0" style="stop-color:#C40E53"/>
	<stop  offset="1" style="stop-color:#EC0000"/>
</linearGradient>
<path class="st1" d="M376,352h96v72h-80v-40h-16V352z"/>
<path d="M480,8H112C98.8,8,88,18.8,88,32v214.1c-14.6,11.7-24,29.7-24,49.9c0,22.2,11.4,41.8,28.7,53.3C43.7,364.4,8,410.1,8,464v40
	h240v-40c0-11.1-1.6-21.8-4.5-32h42.7l4.8-19.3l17.1,10.2l42.8-42.8l-10.2-17.1l19.3-4.8V312h120c13.2,0,24-10.8,24-24V32
	C504,18.8,493.2,8,480,8L480,8z M80,296c0-26.5,21.5-48,48-48s48,21.5,48,48s-21.5,48-48,48S80,322.5,80,296z M128,400
	c19.4,0,35.6-13.9,39.2-32.3c2.1,0.8,4,1.8,6,2.8L128,475.7L82.8,370.5c2-1,4-1.9,6-2.8C92.4,386.1,108.6,400,128,400z M151.7,362.8
	c-1.4,11.9-11.4,21.2-23.7,21.2s-22.3-9.3-23.7-21.2c7.6-1.8,15.5-2.8,23.7-2.8S144.1,361,151.7,362.8z M24,464
	c0-35.4,17.8-66.6,44.8-85.4l47,109.4H64v-64H48v64H24V464z M232,488h-24v-64h-16v64h-51.8l47-109.4c27,18.8,44.8,50,44.8,85.4
	L232,488z M344,345.8l-15.6,3.9l-4.3,1.6l-3.7,9.1l10.4,17.3l-25.1,25.1l-17.3-10.4l-9.8,4l-4.9,19.6h-35.8
	c-13.9-31.7-41.1-56.4-74.6-66.7c13-8.6,22.6-21.8,26.6-37.3h12.5c-1.5,5.2-2.4,10.6-2.4,16c0,30.9,25.1,56,56,56s56-25.1,56-56
	c0-5.4-0.9-10.8-2.4-16H344V345.8z M292.6,312c2.2,5,3.4,10.5,3.4,16c0,22.1-17.9,40-40,40s-40-17.9-40-40c0-5.5,1.2-11,3.4-16
	H292.6z M488,288c0,4.4-3.6,8-8,8H192c0-35.3-28.7-64-64-64c-8.5,0-16.6,1.7-24,4.7V32c0-4.4,3.6-8,8-8h368c4.4,0,8,3.6,8,8V288z"/>
<path d="M312,104h-32V72H152v80h128v-32h32v32h56v16h-56v80h128v-80h-56v-16h56V72H312V104z M264,136h-96V88h96V136z M424,232h-96
	v-48h96V232z M328,88h96v48h-96V88z"/>
<path d="M344,104h16v16h-16V104z"/>
<path d="M376,104h32v16h-32V104z"/>
<path d="M344,200h64v16h-64V200z"/>
<path d="M184,104h72v16h-72V104z"/>
<path d="M184,168h16v16h-16V168z"/>
<path d="M216,168h16v16h-16V168z"/>
<path d="M248,168h16v16h-16V168z"/>
<path d="M152,200h112v16H152V200z"/>
<path d="M192,232h72v16h-72V232z"/>
<path d="M376,344h96v16h-96V344z"/>
<path d="M376,376h96v16h-96V376z"/>
<path d="M456,408h16v16h-16V408z"/>
<path d="M424,408h16v16h-16V408z"/>
<path d="M392,408h16v16h-16V408z"/>
</svg>
