<?xml version="1.0" encoding="utf-8"?>
<!-- Generator: Adobe Illustrator 23.0.1, SVG Export Plug-In . SVG Version: 6.00 Build 0)  -->
<svg version="1.1" id="Layer_35" xmlns="http://www.w3.org/2000/svg" xmlns:xlink="http://www.w3.org/1999/xlink" x="0px" y="0px"
	 viewBox="0 0 512 512" style="enable-background:new 0 0 512 512;" xml:space="preserve">
<style type="text/css">
	.st0{fill:url(#SVGID_1_);}
	.st1{fill:url(#SVGID_2_);}
</style>
<linearGradient id="SVGID_1_" gradientUnits="userSpaceOnUse" x1="112" y1="271.9998" x2="400" y2="271.9998">
	<stop  offset="0" style="stop-color:#C40E53"/>
	<stop  offset="1" style="stop-color:#EC0000"/>
</linearGradient>
<path class="st0" d="M112,264h288v16H112V264z"/>
<linearGradient id="SVGID_2_" gradientUnits="userSpaceOnUse" x1="168" y1="95.9998" x2="344" y2="95.9998">
	<stop  offset="0" style="stop-color:#C40E53"/>
	<stop  offset="1" style="stop-color:#EC0000"/>
</linearGradient>
<path class="st1" d="M328,152H184c-8.8,0-16-7.2-16-16V56c0-8.8,7.2-16,16-16h144c8.8,0,16,7.2,16,16v80
	C344,144.8,336.8,152,328,152z"/>
<path d="M504,152H375.2c0.5-2.6,0.8-5.3,0.8-8V48c0-22.1-17.9-40-40-40H176c-22.1,0-40,17.9-40,40v96c0,2.7,0.3,5.4,0.8,8H8v256h128
	c5.2,10.1,12.7,18.9,22.2,25.7l25.8,18.5V504h144v-51.9l25.8-18.5c9.4-6.7,17-15.6,22.2-25.7h128L504,152z M152,48
	c0-13.2,10.8-24,24-24h160c13.2,0,24,10.8,24,24v96c0,13.2-10.8,24-24,24H176c-13.2,0-24-10.8-24-24V48z M356,296
	c-15.4,0-28,12.6-28,28v4h-26.1c-10.1-14.5-26.9-24-45.9-24s-35.8,9.5-45.9,24H184v-4c0-15.4-12.6-28-28-28s-28,12.6-28,28v4H88v-80
	h336v80h-40v-4C384,308.6,371.4,296,356,296z M184,344h18.4c-1.5,5.1-2.4,10.4-2.4,16c0,12,3.8,23.1,10.2,32.2l-13-6.5
	c-8.2-4.1-13.3-12.3-13.3-21.5V344z M216,360c0-22.1,17.9-40,40-40s40,17.9,40,40s-17.9,40-40,40S216,382.1,216,360z M309.6,344H328
	v20.2c0,9.2-5.1,17.4-13.3,21.5l-13,6.5c6.4-9.1,10.2-20.2,10.2-32.2C312,354.4,311.2,349.1,309.6,344L309.6,344z M177.5,232
	c3.3-9.3,12.1-16,22.5-16h112c10.4,0,19.2,6.7,22.5,16H177.5z M224,200v-16h64v16H224z M24,392V168h120.2c7.3,9.7,18.8,16,31.8,16
	h32v16h-8c-19.3,0-35.5,13.8-39.2,32H88c-8.8,0-16,7.2-16,16v80c0,8.8,7.2,16,16,16h40v31.1c0,5.8,0.7,11.4,2,16.9H24z M344.6,420.6
	L312,443.9V488H200v-44.1l-32.5-23.2c-14.7-10.5-23.5-27.5-23.5-45.6V324c0-6.6,5.4-12,12-12s12,5.4,12,12v40.2
	c0,15.2,8.5,29,22.1,35.8l32,16h67.8l32-16c13.6-6.8,22.1-20.5,22.1-35.8V324c0-6.6,5.4-12,12-12s12,5.4,12,12v51.1
	C368,393.1,359.2,410.1,344.6,420.6z M488,392H382c1.3-5.5,2-11.2,2-16.9V344h40c8.8,0,16-7.2,16-16v-80c0-8.8-7.2-16-16-16h-72.8
	c-3.7-18.2-19.9-32-39.2-32h-8v-16h32c13,0,24.5-6.3,31.8-16H488V392z"/>
<path d="M104,264h16v16h-16V264z"/>
<path d="M136,264h16v16h-16V264z"/>
<path d="M168,264h16v16h-16V264z"/>
<path d="M200,264h16v16h-16V264z"/>
<path d="M232,264h16v16h-16V264z"/>
<path d="M264,264h16v16h-16V264z"/>
<path d="M296,264h16v16h-16V264z"/>
<path d="M200,296h16v16h-16V296z"/>
<path d="M296,296h16v16h-16V296z"/>
<path d="M328,264h16v16h-16V264z"/>
<path d="M360,264h16v16h-16V264z"/>
<path d="M392,264h16v16h-16V264z"/>
<path d="M104,296h16v16h-16V296z"/>
<path d="M392,296h16v16h-16V296z"/>
<path d="M40,184h16v16H40V184z"/>
<path d="M40,216h16v16H40V216z"/>
<path d="M40,248h16v16H40V248z"/>
<path d="M456,360h16v16h-16V360z"/>
<path d="M456,328h16v16h-16V328z"/>
<path d="M456,296h16v16h-16V296z"/>
</svg>
