<?xml version="1.0" encoding="utf-8"?>
<!-- Generator: Adobe Illustrator 23.0.1, SVG Export Plug-In . SVG Version: 6.00 Build 0)  -->
<svg version="1.1" id="Capa_1" xmlns="http://www.w3.org/2000/svg" xmlns:xlink="http://www.w3.org/1999/xlink" x="0px" y="0px"
	 viewBox="0 0 502.2 502.2" style="enable-background:new 0 0 502.2 502.2;" xml:space="preserve">
<style type="text/css">
	.st0{fill:url(#SVGID_1_);}
</style>
<path d="M357.4,290.1c4.5,4.5,7,10.6,7,17s-2.5,12.4-7,17l11.3,11.3c7.6-7.6,11.7-17.6,11.7-28.3s-4.2-20.7-11.7-28.3L357.4,290.1z"
	/>
<path d="M395.7,250.5l-11.3,11.3c12.1,12.1,18.7,28.2,18.7,45.3s-6.7,33.2-18.7,45.3l11.3,11.3c15.1-15.1,23.4-35.2,23.4-56.6
	S410.8,265.6,395.7,250.5z"/>
<path d="M413.4,233.6c19.6,19.6,30.5,45.8,30.5,73.5s-10.8,53.9-30.5,73.5l11.3,11.3c22.7-22.7,35.2-52.8,35.2-84.8
	s-12.5-62.2-35.2-84.8L413.4,233.6z"/>
<path d="M251.1,339.1v-48h-80v48H251.1z M235.1,323.1h-16v-16h16V323.1z M187.1,307.1h16v16h-16V307.1z"/>
<path d="M290.5,95.6l-15.4-3.1v-1.4h-0.2c9.8-7.3,16.2-18.9,16.2-32v-16c0-22.1-17.9-40-40-40s-40,17.9-40,40v16
	c0,13.1,6.4,24.7,16.2,32h-0.2v1.4l-15.4,3.1c-14,2.8-25.6,13-30.1,26.6L168,163.1h166.2l-13.6-40.9
	C316,108.6,304.5,98.4,290.5,95.6z M227.1,43.1c0-13.2,10.8-24,24-24s24,10.8,24,24v16c0,13.2-10.8,24-24,24s-24-10.8-24-24V43.1z
	 M251.1,99.1c2.7,0,5.4-0.3,8-0.8v0.8c0,4.4-3.6,8-8,8s-8-3.6-8-8v-0.8C245.7,98.8,248.4,99.1,251.1,99.1z M190.2,147.1l6.6-19.8
	c2.7-8.2,9.6-14.3,18.1-15.9l14.1-2.8c3.7,8.6,12.2,14.6,22.1,14.6c9.9,0,18.4-6,22.1-14.6l14.1,2.8c8.4,1.7,15.4,7.8,18.1,15.9
	l6.6,19.8H190.2z"/>
<path d="M488.6,122.2c-4.5-13.6-16.1-23.8-30.1-26.6l-15.4-3.1v-1.4h-0.2c9.8-7.3,16.2-18.9,16.2-32v-16c0-22.1-17.9-40-40-40
	s-40,17.9-40,40v16c0,13.1,6.4,24.7,16.2,32h-0.2v1.4l-15.4,3.1c-14,2.8-25.6,13-30.1,26.6L336,163.1h166.2L488.6,122.2z
	 M395.1,43.1c0-13.2,10.8-24,24-24s24,10.8,24,24v16c0,13.2-10.8,24-24,24s-24-10.8-24-24V43.1z M419.1,99.1c2.7,0,5.4-0.3,8-0.8
	v0.8c0,4.4-3.6,8-8,8s-8-3.6-8-8v-0.8C413.7,98.8,416.4,99.1,419.1,99.1z M358.2,147.1l6.6-19.8c2.7-8.2,9.6-14.3,18.1-15.9
	l14.1-2.8c3.7,8.6,12.2,14.6,22.1,14.6s18.4-6,22.1-14.6l14.1,2.8c8.4,1.7,15.4,7.8,18.1,15.9l6.6,19.8H358.2z"/>
<path d="M152.6,122.2c-4.5-13.6-16.1-23.8-30.1-26.6l-15.4-3.1v-1.4h-0.2c9.8-7.3,16.2-18.9,16.2-32v-16c0-22.1-17.9-40-40-40
	s-40,17.9-40,40v16c0,13.1,6.4,24.7,16.2,32h-0.2v1.4l-15.4,3.1c-14,2.8-25.6,13-30.1,26.6L0,163.1h166.2L152.6,122.2z M59.1,43.1
	c0-13.2,10.8-24,24-24s24,10.8,24,24v16c0,13.2-10.8,24-24,24s-24-10.8-24-24C59.1,59.1,59.1,43.1,59.1,43.1z M83.1,99.1
	c2.7,0,5.4-0.3,8-0.8v0.8c0,4.4-3.6,8-8,8s-8-3.6-8-8v-0.8C77.7,98.8,80.4,99.1,83.1,99.1z M22.2,147.1l6.6-19.8
	c2.7-8.2,9.6-14.3,18.1-15.9l14.1-2.8c3.7,8.6,12.2,14.6,22.1,14.6s18.4-6,22.1-14.6l14.1,2.8c8.4,1.7,15.4,7.8,18.1,15.9l6.6,19.8
	H22.2z"/>
<path d="M302.4,234.4l-6.6-14.6l-7.9,3.6c-52.1,23.7-107.6,35.7-164.8,35.7h-8h-24c-10.7,0-19.6,7-22.7,16.7
	c-18.8,3.2-33.3,19.6-33.3,39.3s14.4,36.1,33.3,39.3c3.1,9.6,12.1,16.7,22.7,16.7h24h8c5.4,0,10.7,0.2,16,0.4v87.6
	c0,22.1,17.9,40,40,40s40-17.9,40-40v-76.2c23.5,5.8,46.4,13.7,68.8,23.9l7.9,3.6l6.6-14.6l-7.9-3.6c-51.8-23.5-106.7-36-163.4-37.1
	V275c56.7-1.1,111.6-13.5,163.4-37.1L302.4,234.4z M51.1,315.1c0-10.4,6.7-19.2,16-22.5v45C57.8,334.3,51.1,325.5,51.1,315.1z
	 M91.1,355.1c-4.4,0-8-3.6-8-8v-64c0-4.4,3.6-8,8-8h24v16h-16v16h16v16h-16v16h16v16H91.1z M155.1,403.1h16v40h-16V403.1z
	 M203.1,459.1c0,13.2-10.8,24-24,24s-24-10.8-24-24h32v-72h-32v-14.6c16.2,1.3,32.2,3.5,48,6.7V459.1z"/>
<linearGradient id="SVGID_1_" gradientUnits="userSpaceOnUse" x1="291.104" y1="315.0999" x2="339.104" y2="315.0999">
	<stop  offset="0" style="stop-color:#C40E53"/>
	<stop  offset="1" style="stop-color:#EC0000"/>
</linearGradient>
<path class="st0" d="M315.1,427.1c-13.2,0-24-10.8-24-24v-176c0-13.2,10.8-24,24-24s24,10.8,24,24v176
	C339.1,416.3,328.3,427.1,315.1,427.1z"/>
</svg>
