<?xml version="1.0" encoding="utf-8"?>
<!-- Generator: Adobe Illustrator 23.0.1, SVG Export Plug-In . SVG Version: 6.00 Build 0)  -->
<svg version="1.1" id="Layer_3" xmlns="http://www.w3.org/2000/svg" xmlns:xlink="http://www.w3.org/1999/xlink" x="0px" y="0px"
	 viewBox="0 0 512 512" style="enable-background:new 0 0 512 512;" xml:space="preserve">
<style type="text/css">
	.st0{fill:#EC0000;}
</style>
<g>
	<path class="st0" d="M208,304H80c-4.4,0-8,3.6-8,8v16c0,4.4,3.6,8,8,8h128c4.4,0,8-3.6,8-8v-16C216,307.6,212.4,304,208,304z"/>
	<path class="st0" d="M208,384H80c-4.4,0-8,3.6-8,8v16c0,4.4,3.6,8,8,8h128c4.4,0,8-3.6,8-8v-16C216,387.6,212.4,384,208,384z"/>
	<path class="st0" d="M264,288h64v72h-64V288z"/>
	<path class="st0" d="M328,104h24c13.2,0,24-10.8,24-24s-10.8-24-24-24h-65.3c-19,21.2-30.7,49.2-30.7,80s11.7,58.8,30.7,80h9.3
		c13.2,0,24-10.8,24-24v-16c0-4.4,3.6-8,8-8h16c13.2,0,24-10.8,24-24s-10.8-24-24-24h-16c-4.4,0-8-3.6-8-8S323.6,104,328,104z"/>
	<path class="st0" d="M392,112c0,13.2,10.8,24,24,24h16c4.4,0,8,3.6,8,8s-3.6,8-8,8c-13.2,0-24,10.8-24,24s10.8,24,24,24h45.4
		c11.7-18.5,18.6-40.4,18.6-64c0-17.1-3.6-33.3-10-48h-70C402.8,88,392,98.8,392,112z"/>
	<path class="st0" d="M376,256c35.5,0,67.3-15.5,89.3-40h-55.6c-4.8,0-9.4-1.4-13.3-4l-11.3-7.5c-4.4-2.9-9.4-4.4-14.7-4.4
		c-14.6,0-26.4,11.8-26.4,26.4v25.1C354.2,254.4,364.9,256,376,256z"/>
</g>
<path d="M40,184h16v16H40V184z"/>
<path d="M72,184h16v16H72V184z"/>
<path d="M104,184h16v16h-16V184z"/>
<path d="M224,248H64c-13.2,0-24,10.8-24,24v16c0,13.2,10.8,24,24,24h160c13.2,0,24-10.8,24-24v-16C248,258.8,237.2,248,224,248z
	 M232,288c0,4.4-3.6,8-8,8H64c-4.4,0-8-3.6-8-8v-16c0-4.4,3.6-8,8-8h160c4.4,0,8,3.6,8,8V288z"/>
<path d="M224,328H64c-13.2,0-24,10.8-24,24v16c0,13.2,10.8,24,24,24h160c13.2,0,24-10.8,24-24v-16C248,338.8,237.2,328,224,328z
	 M232,368c0,4.4-3.6,8-8,8H64c-4.4,0-8-3.6-8-8v-16c0-4.4,3.6-8,8-8h160c4.4,0,8,3.6,8,8V368z"/>
<path d="M224,408H64c-13.2,0-24,10.8-24,24v16c0,13.2,10.8,24,24,24h160c13.2,0,24-10.8,24-24v-16C248,418.8,237.2,408,224,408z
	 M232,448c0,4.4-3.6,8-8,8H64c-4.4,0-8-3.6-8-8v-16c0-4.4,3.6-8,8-8h160c4.4,0,8,3.6,8,8V448z"/>
<path d="M344,360h96v-80h-96V360z M360,296h64v48h-64V296z"/>
<path d="M264,280h64v16h-64V280z"/>
<path d="M264,312h64v16h-64V312z"/>
<path d="M264,344h32v16h-32V344z"/>
<path d="M312,344h16v16h-16V344z"/>
<path d="M264,472h176v-96H264V472z M280,392h144v64H280V392z"/>
<path d="M504,136C504,65.4,446.6,8,376,8S248,65.4,248,136c0,5.4,0.4,10.7,1.1,16H8v352h464V220.4C491.8,197.8,504,168.3,504,136z
	 M376,24c61.8,0,112,50.2,112,112s-50.2,112-112,112s-112-50.2-112-112S314.2,24,376,24z M252.2,168c4.6,17.8,12.8,34.1,24,48H24
	v-48H252.2z M24,488V232h267.6c22.6,19.8,52,32,84.4,32c30.3,0,58.1-10.6,80-28.2V488H24z"/>
</svg>
