<?xml version="1.0" encoding="utf-8"?>
<!-- Generator: Adobe Illustrator 23.0.1, SVG Export Plug-In . SVG Version: 6.00 Build 0)  -->
<svg version="1.1" id="Layer_35" xmlns="http://www.w3.org/2000/svg" xmlns:xlink="http://www.w3.org/1999/xlink" x="0px" y="0px"
	 viewBox="0 0 512 512" style="enable-background:new 0 0 512 512;" xml:space="preserve">
<style type="text/css">
	.st0{fill:url(#SVGID_1_);}
	.st1{fill:url(#SVGID_2_);}
</style>
<path d="M16,224h40v16H16V224z"/>
<path d="M430.2,504h-60.5l-4.8-19.3l-17.1,10.3l-42.8-42.8l10.3-17.1l-19.3-4.8V382h16v35.8l19.6,4.9l4,9.8l-10.4,17.3l25.1,25.1
	l17.3-10.4l9.1,3.7l1.6,4.3l3.9,15.6h35.5l4.9-19.6l9.8-4l17.3,10.4l25.1-25.1l-10.4-17.3l3.7-9.1l4.3-1.6l15.6-3.9v-35.5l-19.6-4.9
	l-4-9.8l10.4-17.3l-29.5-29.5l11.3-11.3l38.4,38.3l-10.3,17.1l19.3,4.8v60.5l-19.3,4.8l10.3,17.1l-42.8,42.8l-17.1-10.3L430.2,504z"
	/>
<path d="M400,456c-30.9,0-56-25.1-56-56c0-7.6,1.5-14.9,4.4-21.9l14.7,6.2c-2.1,4.9-3.2,10.2-3.2,15.6c0,22.1,17.9,40,40,40
	s40-17.9,40-40c0-17.2-11-32.5-27.4-37.9l5-15.2c22.9,7.6,38.4,29,38.4,53.1C456,430.9,430.9,456,400,456L400,456z"/>
<linearGradient id="SVGID_1_" gradientUnits="userSpaceOnUse" x1="432" y1="47.9998" x2="464" y2="47.9998">
	<stop  offset="0" style="stop-color:#C40E53"/>
	<stop  offset="1" style="stop-color:#EC0000"/>
</linearGradient>
<path class="st0" d="M432,40h32v16h-32V40z"/>
<path d="M464,88h-72V48c0-22.1,17.9-40,40-40h32c22.1,0,40,17.9,40,40S486.1,88,464,88z M408,72h56c13.2,0,24-10.8,24-24
	s-10.8-24-24-24h-32c-13.2,0-24,10.8-24,24V72z"/>
<path d="M424,40h16v16h-16V40z"/>
<path d="M456,40h16v16h-16V40z"/>
<linearGradient id="SVGID_2_" gradientUnits="userSpaceOnUse" x1="176" y1="239.9998" x2="480" y2="239.9998">
	<stop  offset="0" style="stop-color:#C40E53"/>
	<stop  offset="1" style="stop-color:#EC0000"/>
</linearGradient>
<path class="st1" d="M328,88c-83.8,0-152,68.2-152,152c0,4.3,0.3,8.4,0.6,12.6c4.5,3.7,7.4,9.2,7.4,15.4c0,3.8-1.1,7.3-2.9,10.3
	C198.1,343.6,257.4,392,328,392c83.8,0,152-68.2,152-152S411.8,88,328,88z M328,352c-61.8,0-112-50.2-112-112s50.2-112,112-112
	s112,50.2,112,112S389.8,352,328,352z"/>
<path d="M219.3,384l20.5-20.5c-4.4-3.1-8.6-6.5-12.6-10L208,372.7L195.3,360l19.2-19.3c-3.6-4-6.9-8.2-10-12.6L184,348.7l-8-8
	l-16,16V296h4c15.4,0,28-12.6,28-28s-12.6-28-28-28h-4v-52c0-6.6,5.4-12,12-12h18.3c2.6-5.5,5.5-10.9,8.7-16h-27
	c-15.4,0-28,12.6-28,28v52H72c-4.4,0-8-3.6-8-8v-56H48v56c0,13.2,10.8,24,24,24h92c6.6,0,12,5.4,12,12s-5.4,12-12,12H64
	c-22.1,0-40-17.9-40-40v-48c0-30.9,25.1-56,56-56h6.2l-6.5,67l24.3,24.3l24.3-24.3l-6.5-67h95.6c5.4-5.8,11.3-11.1,17.6-16h-88.9
	c13.3-11.7,21.8-28.9,21.8-48c0-35.3-28.7-64-64-64S40,36.7,40,72c0,20.1,9.4,38.1,24,49.9c-32,7.3-56,36-56,70.1v48
	c0,25.3,16.9,46.7,40,53.6V472c0,17.6,14.4,32,32,32c9.6,0,18.1-4.3,24-11.1c5.9,6.7,14.4,11.1,24,11.1c17.6,0,32-14.4,32-32v-12.7
	l67.3-67.3L219.3,384z M111.7,197l-7.7,7.7l-7.7-7.7l5.9-61h3.5L111.7,197z M56,72c0-26.5,21.5-48,48-48s48,21.5,48,48
	s-21.5,48-48,48S56,98.5,56,72z M128,488c-8.8,0-16-7.2-16-16V328H96v144c0,8.8-7.2,16-16,16s-16-7.2-16-16V296h80v176
	C144,480.8,136.8,488,128,488z M160,436.7v-57.4l16-16l28.7,28.7L160,436.7z"/>
<path d="M328,120c-66.2,0-120,53.8-120,120s53.8,120,120,120s120-53.8,120-120S394.2,120,328,120z M328,136c57.3,0,104,46.7,104,104
	c0,20.3-5.9,39.2-16,55.2V200h-48v32h-16v-80h-48v112h-16v-48h-48v79.2c-10.1-16-16-34.9-16-55.2C224,182.7,270.7,136,328,136z
	 M352,248h16v88c-5.1,2.1-10.5,3.8-16,5.1V248z M400,314.9c-4.9,4.7-10.3,8.9-16,12.6V216h16V314.9z M272,327.5
	c-5.7-3.7-11.1-7.9-16-12.6V232h16V327.5z M288,280h16v61.1c-5.5-1.3-10.9-3-16-5.1V280z M320,343.6V168h16v175.6
	c-2.6,0.2-5.3,0.4-8,0.4S322.6,343.8,320,343.6z"/>
</svg>
