<?xml version="1.0" encoding="utf-8"?>
<!-- Generator: Adobe Illustrator 22.1.0, SVG Export Plug-In . SVG Version: 6.00 Build 0)  -->
<svg version="1.1" id="icon" xmlns="http://www.w3.org/2000/svg" xmlns:xlink="http://www.w3.org/1999/xlink" x="0px" y="0px"
	 viewBox="0 0 22.8 24" style="enable-background:new 0 0 22.8 24;" xml:space="preserve">
<path d="M12.3,13.7c0,0,0.4,0,0.7-0.2l0.4-0.6c0.2-0.3,0.7-0.5,1.2-0.2c0.7,0.4,1.6,1,2.1,1.5c0.3,0.3,0.4,0.7,0.2,1.1l0,0
	c-0.2,0.4-0.5,0.8-0.9,1.1l0,0c-0.4,0.4-0.9,0.6-1.5,0.4l0,0c-1-0.3-3.3-1.5-4.8-2.6c-2.4-1.9-4.2-5.1-4.6-6.8l0,0
	c-0.2-0.5,0-1,0.4-1.5l0,0c0.4-0.4,0.7-0.7,1.1-0.9l0,0C7.1,4.9,7.5,5,7.8,5.3c0.4,0.4,1.1,1.3,1.5,2.1c0.3,0.5,0.1,1-0.2,1.2
	L8.6,9.1C8.3,9.4,8.3,9.8,8.3,9.8S9.2,12.9,12.3,13.7z M17.2,11.1c-0.2,0-0.3-0.1-0.3-0.3c0-1.8-0.6-3.3-1.6-4.3
	c-1.1-1-2.4-1.6-4-1.6c-0.2,0-0.3-0.1-0.3-0.3c0-0.2,0.1-0.3,0.3-0.3h0c1.8,0,3.3,0.6,4.4,1.8c1.2,1.2,1.8,2.8,1.8,4.8
	C17.5,11,17.3,11.1,17.2,11.1C17.2,11.1,17.2,11.1,17.2,11.1z M15.6,10.5L15.6,10.5c-0.2,0-0.3-0.1-0.3-0.3c0-1-0.3-1.9-0.9-2.6
	c-0.6-0.7-1.5-1.1-2.6-1.1c-0.2,0-0.3-0.2-0.3-0.3c0-0.2,0.2-0.3,0.3-0.3c1.3,0.1,2.3,0.5,3,1.3c0.7,0.8,1.1,1.8,1.1,3
	C15.9,10.4,15.7,10.5,15.6,10.5z M14,10c-0.2,0-0.3-0.1-0.3-0.3c-0.1-1-0.5-1.5-1.5-1.6c-0.2,0-0.3-0.2-0.3-0.3
	c0-0.2,0.2-0.3,0.3-0.3c1.3,0.1,2,0.8,2.1,2.2C14.3,9.8,14.2,10,14,10C14,10,14,10,14,10z M20.8,13.5c-0.6,4.9-4.2,5.2-4.8,5.4
	c-0.3,0.1-2.9,0.7-6.2,0.5c0,0-2.4,2.9-3.2,3.7c-0.1,0.1-0.3,0.2-0.4,0.1c-0.1,0-0.2-0.2-0.2-0.4l0-4v0c-4.8-1.3-4.5-6.3-4.4-8.9
	s0.5-4.7,2-6.2c2.6-2.4,8-2,8-2c4.5,0,6.7,1.4,7.2,1.8C20.6,5,21.5,8.4,20.8,13.5z M20.2,2.3c-0.6-0.5-3-2.3-8.4-2.3
	c0,0-6.3-0.4-9.4,2.5C0.7,4.2,0.1,6.7,0,9.8c-0.1,3.1-0.1,9,5.5,10.5l0,0l0,2.4c0,0,0,1,0.6,1.2c0.8,0.2,1.2-0.5,2-1.3
	c0.4-0.4,1-1.1,1.4-1.6c3.9,0.3,6.8-0.4,7.1-0.5c0.8-0.3,5.2-0.8,5.9-6.7C23.3,7.9,22.2,4.1,20.2,2.3z"/>
</svg>
