<?xml version="1.0" encoding="utf-8"?>
<!-- Generator: Adobe Illustrator 22.1.0, SVG Export Plug-In . SVG Version: 6.00 Build 0)  -->
<svg version="1.1" id="seo_1_" xmlns="http://www.w3.org/2000/svg" xmlns:xlink="http://www.w3.org/1999/xlink" x="0px" y="0px"
	 viewBox="0 0 325.9 294.1" style="enable-background:new 0 0 325.9 294.1;" xml:space="preserve">
<style type="text/css">
	.st0{fill:url(#XMLID_4_);}
	.st1{opacity:0.52;}
	.st2{fill:#C4C4DC;}
	.st3{fill:#FFFFFF;}
	.st4{fill:#3C2768;}
	.st5{fill:#FFBB25;}
	.st6{filter:url(#Adobe_OpacityMaskFilter);}
	.st7{filter:url(#Adobe_OpacityMaskFilter_1_);}
	.st8{mask:url(#XMLID_5_);fill:url(#XMLID_6_);}
	.st9{fill:url(#XMLID_7_);}
	.st10{fill:#DFDFEF;}
	.st11{fill:#4D3FA0;}
	.st12{fill:#EEEEFA;}
	.st13{fill:#D3D3E2;}
	.st14{fill:#B8B8D1;}
	.st15{fill:url(#XMLID_8_);}
	.st16{fill:url(#XMLID_9_);}
	.st17{fill:#C9CBCC;}
	.st18{fill:#D8D8ED;}
	.st19{fill:#EA4886;}
	.st20{fill:url(#XMLID_10_);}
	.st21{fill:url(#XMLID_11_);}
	.st22{fill:url(#XMLID_12_);}
	.st23{fill:url(#XMLID_13_);}
	.st24{filter:url(#Adobe_OpacityMaskFilter_2_);}
	.st25{filter:url(#Adobe_OpacityMaskFilter_3_);}
	.st26{mask:url(#XMLID_14_);fill:url(#XMLID_15_);}
	.st27{fill:url(#XMLID_16_);}
	.st28{fill:url(#XMLID_17_);}
	.st29{fill:url(#XMLID_18_);}
	.st30{fill:url(#XMLID_19_);}
	.st31{fill:url(#XMLID_20_);}
	.st32{fill:url(#XMLID_21_);}
	.st33{fill:url(#XMLID_22_);}
	.st34{fill:url(#XMLID_24_);}
	.st35{fill:url(#XMLID_26_);}
	.st36{filter:url(#Adobe_OpacityMaskFilter_4_);}
	.st37{filter:url(#Adobe_OpacityMaskFilter_5_);}
	.st38{mask:url(#XMLID_28_);fill:url(#XMLID_30_);}
	.st39{fill:url(#XMLID_31_);}
	.st40{fill:url(#XMLID_32_);}
	.st41{fill:url(#XMLID_33_);}
	.st42{filter:url(#Adobe_OpacityMaskFilter_6_);}
	.st43{filter:url(#Adobe_OpacityMaskFilter_7_);}
	.st44{mask:url(#XMLID_34_);fill:url(#XMLID_35_);}
	.st45{fill:url(#XMLID_36_);}
	.st46{filter:url(#Adobe_OpacityMaskFilter_8_);}
	.st47{filter:url(#Adobe_OpacityMaskFilter_9_);}
	.st48{mask:url(#XMLID_37_);fill:url(#XMLID_38_);}
	.st49{fill:url(#XMLID_39_);}
	.st50{fill:#4F3696;}
	.st51{fill:url(#XMLID_40_);}
	.st52{fill:url(#XMLID_41_);}
	.st53{fill:url(#XMLID_42_);}
</style>
<g id="seo_map">
	<g id="XMLID_413_">
		<linearGradient id="XMLID_4_" gradientUnits="userSpaceOnUse" x1="192.7772" y1="261.7106" x2="235.1652" y2="26.5898">
			<stop  offset="0" style="stop-color:#E52324"/>
			<stop  offset="0.2043" style="stop-color:#E5303A"/>
			<stop  offset="0.6273" style="stop-color:#E45172"/>
			<stop  offset="1" style="stop-color:#E371A9"/>
		</linearGradient>
		<polygon id="XMLID_598_" class="st0" points="125.6,1.7 125.6,18.5 125.6,160.2 306.3,264.6 306.3,122.8 306.3,106 		"/>
		<g id="XMLID_498_" class="st1">
			<path id="XMLID_937_" class="st2" d="M135,70.2c0.4,0.2,0.8,0.4,1.1,1.1c-0.4,0.1-0.8-0.3-1.1-0.7C135,70.4,135,70.3,135,70.2z"
				/>
			<path id="XMLID_936_" class="st2" d="M261.6,133.3c0.1,0.1,0.3,0.3,0.4,0.4c0.3,1.2,0.9,1.5,1.6,1.8c0.2,0.1,0.5,0.2,0.7,0.4
				c1.1,1.4,2.1,1.8,3.2,2c0.4,0.1,0.8,0.3,1.2,0.7c0.3,0.3,1,0.8,0.2,0.8c-0.1,0-0.2,0.1-0.1,0.2c0.4,0.9,0.9,1.7,1.5,2.4
				c0.4,0.5,0.6,0,0.8,0.1c0.6,0.2,1.3,0.4,2,1c0.6,0.5,1.3,1,1.5,0c0-0.3,0.3-0.2,0.5-0.1c0.5,0.3,1,0.6,1.4,0.9
				c0.1,0.1,0.3,0.2,0.3,0.3c0.1,1.4,0.7,0.7,1,0.8c0.4,0.2,0.7,0.3,1.1,1c0.4,0.8,1,1.5,1.7,1.8c0.6,0.3,1.1,0.6,1.7,0.9
				c0.5,0.3,0.9,0.6,1.1,1.3c0.2,0.6,0.7,0.9,1.1,1.2c1.1,0.7,2.2,1.2,3.2,2.4c0.4,0.4,0.5,0.2,0.5-0.2c0-0.3,0-0.7,0.4-0.3
				c1.5,1.2,3.1,2.2,4.6,3.8c0.7,0.8,1.4,1.5,1.6,2.6c0.1,0.3,0.2,0.5,0.4,0.4c0.6-0.5,1.1,0.5,1.5,1c0.3,0.4,0.1,0.5-0.1,0.5
				c-0.4,0-0.7,0.1-0.9,0.5c-0.1,0.4-0.3-0.1-0.5-0.3c-0.6-0.6-1.1-1.8-1.9-2c-0.3,0-0.2-0.6-0.6-0.9c-0.1,0.9-0.6,1-1.5,0.2
				c-0.1-0.1-0.3-0.2-0.3-0.1c-0.1,0.2,0.1,0.4,0.2,0.6c0.5,0.5,0.7,1,0.8,1.6c0.1,0.4,0,0.6-0.3,0.3c-1.2-0.8-2.1-0.6-3-0.5
				c-0.4,0.1-0.7,0-1.1-0.5c-0.6-0.7-2.3-1-2.7-0.7c-0.2,0.2-0.4,0.4-0.3,0.9c0.3,1.5-0.3,1.9-0.9,2.5c-0.5,0.5-1,0.9-1.5,1.3
				c-0.9-2.2-0.6-4.2,0.6-4.7c0.8-0.3,1.5-0.9,2.3-1c0.2,0,0.3-0.2,0.3-0.3c0.1-0.2,0.3-0.3,0-0.7c-0.2-0.3-0.4-0.1-0.5,0
				c-0.2,0.5-0.8,0.3-1.2,0.4c0.1-0.9-0.2-1.3-0.9-1.4c-0.6-0.1-1.3-0.1-1.6,0.4c-0.4,0.6-0.9,0.3-1.4-0.3c-0.5-0.5-1-0.8-1.5-0.9
				c-0.3,0-0.7-0.2-1-0.5c-0.8-0.8-1.4-0.8-1.9-0.6c-0.8,0.2-1.6,0.5-2.2,0.9c-0.2,0.1-0.7,0.1-0.5,0.6c0.3,0.5,0.6,1.2,1.2,1.4
				c1,0.4,1.2,0.8,1.1,1.9c-0.1,2.5-1.2,3.7-2.7,4.6c-0.2,0.1-0.3,0.2-0.6,0c-0.3-0.2-0.6-0.7-0.9-0.4c-0.6,0.4-1.3,0.7-1.7,1.3
				c-0.3,0.4,0.3,1.4,0.5,2.2c0.2,0.7,0.1,1.1-0.4,1c-0.4,0-0.6-0.3-0.5-0.7c0.2-0.9-0.6-1.9-0.8-2.9c-0.1-0.7-1-1-1.5-0.8
				c-0.1-0.5,0.4-0.5,0-1c-0.3-0.3-0.5-0.2-0.8-0.2c-0.4,0.1-1.2-0.1-1,0.8c0.2,0.8,0.9,1.1,1.5,1.5c0.1,0.1,0.2,0.1,0.3,0.2
				c-0.1,0.3-0.3,0.2-0.5,0.3c-0.6,0.2-0.7,0.7-0.3,1.7c0.2,0.5,0.7,1.2,0.1,1.5c-0.2,0.1,0.1,0.9,0.2,1.1c0.6,0.8,0.2,1-0.1,1.3
				c-0.2,0.3-0.4,0.7-0.7,1c-0.6,0.6-1.3,1.1-2.5,0.6c-0.8-0.4-1.5,0-2.5-0.7c-0.8-0.5-1.2,0.6-0.7,1.7c0.3,0.8,0.7,1.5,0.9,2.3
				c0.5,1.9,0.2,2.8-1,3c-0.2,0-0.4,0.2-0.5-0.3c-0.1-0.6-0.5-1.1-0.7-1.6c-0.3-1-0.8-1.4-1.4-1.6c-0.4-0.1-0.8,1.2-0.5,1.8
				c0.4,0.8,0.6,1.7,1.1,2.5c0.6,1.1,0.7,2.1,0.8,3.1c-0.4-0.3-0.6-0.7-0.7-1c-0.7-1.9-1.5-3.8-1.4-5.5c0.1-1.3-0.4-2.7-0.5-4
				c-0.1-0.6-0.3-0.6-0.6-0.5c-0.7,0.1-0.9-0.1-0.8-1c0.1-1.3-0.9-2.5-1.3-3.8c0-0.1-0.2-0.2-0.2-0.2c-0.6,0.2-1.5-0.7-2.1-0.1
				c-0.6,0.7-1.4,1.1-2.2,1.3c-0.5,0.1-0.7,0.6-0.7,1.3c0,1.2-0.2,2.2-0.9,2.9c-1.3-3.5-2.4-6.8-2.2-9.8c-0.4-0.4-0.4-0.1-0.6,0
				c-0.1,0.1-0.3,0.1-0.4-0.1c-0.1-0.2-0.3-0.4-0.2-0.6c0.3-0.3-0.1-0.6-0.3-0.9c-1.2-1.9-2.6-2.9-4.1-3.8c-0.4-0.3-0.9-0.6-1.2-1.3
				c-0.2-0.5-0.5-0.6-0.7-0.7c-0.8-0.4-1.4-1.2-1.9-2.3c-0.1-0.3-0.3-0.7-0.5-0.9c-0.3-0.4-0.6-0.7-0.9-0.6
				c-0.3,0.1-0.1,0.6,0.1,0.9c0.4,1,0.8,2.1,1.1,3.1c0.3,1,0.7,1.2,1.2,1.1c0.3,0,0.6-0.2,1-0.3c0.3,0.8,0.7,1.6,1.3,2.3
				c0.3,0.4,0.3,0.6,0.2,0.9c-0.5,1.1-1.4,1.6-2.5,1.7c-1.2,0.1-2.3,0-3.5,0c-0.7,0-1-0.4-1.1-1.3c-0.1-1.3-0.5-2.6-1.2-4
				c-0.2-0.5-0.4-0.9-0.4-1.4c-0.1-0.7-0.2-1.4-0.8-2.2c-0.3-0.4-0.2-0.9-0.4-1.4c-0.4-0.9-0.4-2-1.5-2.5c-0.1,0-0.2-0.5-0.4-0.4
				c-0.2,0.1,0,0.5,0.1,0.7c0.5,1.4,1.1,2.7,1.5,4.1c0.1,0.2,0.2,0.5,0.2,0.6c0,2.4,1.6,4.7,2.5,7.1c0.1,0.2,0.2,0.4,0.3,0.6
				c0.3,1.1,0.9,1.6,1.6,1.9c0.7,0.2,1.3,0.4,2.1,0.7c-0.7,2.2-1.6,4.1-3.5,4.8c-0.5,0.2-0.9,0.6-1.3,1c-0.9,0.9-1,2.3-0.5,4.2
				c0.3,0.9,0.4,1.8,0.4,2.6c0,1-0.3,1.6-1,1.7c-0.3,0.1-0.6,0.2-0.9,0.2c-0.6,0.2-0.8,0.6-0.6,1.6c0.3,1,0.2,1.8-0.6,1.9
				c-0.3,0-0.4,0.4-0.5,0.8c-0.5,2.7-1.8,3.4-4.4,2.3c-0.6-0.2-1.1-0.2-1.7-1c-0.3-0.4-0.7-0.8-0.3-1.1c0.2-0.2,0-0.7-0.1-1.1
				c-0.9-2.5-1.6-5-1.8-7.4c0-0.4-0.1-0.9-0.3-1.3c-0.7-1.7-0.5-2.9,0-3.9c0.5-1.1,0.3-2.5-0.2-4.1c-0.4-1.1-0.7-2.1-1.2-3.1
				c-0.3-0.6-0.2-1.1-0.2-1.5c0-0.7,0.1-1.4,0.1-2.1c0-0.7-0.3-1.3-1-1.5c-0.4-0.1-0.7-0.4-0.9-0.9c-0.4-0.8-1-1.4-1.6-1.4
				c-1.3-0.1-2.7-1-4-1.5c-0.7-0.3-2.2-2.2-2.5-3.4c-0.4-1.6-1.2-3-1.8-4.5c-0.2-0.4-0.2-0.7-0.1-1c0.3-0.7,0.4-1.6,0.3-2.5
				c-0.3-2.5,0.9-3.4,2.2-4.1c0.6-0.4,1.1-0.7,1-1.8c0-0.4,0.2-0.6,0.4-0.7c0.7-0.4,1.4-0.7,2.6-0.1c1.6,0.7,3.2,1,4.9,1.8
				c0.9,0.5,1.3,1,1.1,1.9c-0.1,0.6,0,1.1,0.5,1.6c0.9,0.9,1.7,1.9,2.5,2.9c0.6,0.7,1.1,1,1.4,0.4c0.3-0.6,0.7-0.5,1.3,0.2
				c1.3,1.5,2.8,2.3,4.2,3.4c0.4,0.3,0.6,0.1,0.8-0.1c0.4-0.7,0.6-1.5,0.7-2.4c0.1-0.4-0.1-0.8-0.5-0.9c-0.8-0.2-1.5-1-2.3-1.3
				c-0.6-0.3-1-1-1-1.7c-0.1-0.7-0.1-1.1,0.6-1c0.5,0.1,1.1,0.1,1.6,0.1c0.5,0,1.1,0.3,1.6,0.9c0.6,0.6,1.2,1.2,1.9,1.5
				c0.3,0.1,0.6,0.2,0.7-0.1c0.1-0.3-0.1-0.7-0.3-1c-0.2-0.4-0.5-0.8-0.8-1.2c-0.4-0.6-0.8-1.2-0.4-1.7c0.2-0.2,0-0.6-0.4-0.8
				c-0.9-0.5-1.2-0.2-1,0.9c-0.4-0.3-0.8-0.4-0.9-1.2c-0.1-0.7-0.6-0.9-0.9-0.8c-0.9,0.2-1.5,0.8-1.5,2.1c0,0.9-0.3,1-0.9,0.5
				c-0.4-0.2-0.7-0.3-1-0.3c-0.4,0-0.4,0.2-0.2,0.7c0.5,1.1,0.4,1.3-0.6,1c0.2-0.4,0.4-0.7-0.2-1.3c-0.3-0.3-0.5-0.8-0.6-1.3
				c-0.5-2-1.9-3.6-2.9-5.3c-0.2-0.3-0.3-0.6-0.6-0.4c-0.2,0.1-0.2,0.3-0.1,0.7c0.3,0.9,0.6,1.9,1.2,2.5c1,1.1,1,1.9,0.6,2.8
				c-0.1-1.1-0.5-1.7-1.1-2.4c-0.6-0.7-1.1-1.6-1.5-2.5c-0.4-0.8-0.8-1.3-1.4-1.2c-0.2,0-0.5-0.1-0.8-0.3c-0.7-0.5-0.9-0.1-1.2,0.3
				c-0.7,0.6-1.3,1.2-2.1,1.8c-0.7,0.5-2.1-0.4-3-1.6c-0.4-0.5-0.5-1-0.4-1.4c0.2-0.5,0.2-1.2,0.1-1.8c0-0.7,0.2-0.8,0.7-0.4
				c0.5,0.4,1.1,0.7,1.6,1.1c0.8,0.6,1.3,0.3,1.1-0.7c-0.1-1-0.5-2-1.3-2.9c1,0,1.9-0.1,2.8-0.2c1-0.1,1.5-1.4,2.9-0.6
				c0.3,0.2,0.3-0.1,0.3-0.4c0-0.3,0-0.7,0-1c0-0.3-0.1-0.7,0.3-0.5c0.3,0.2,0.1,0.5,0.1,0.7c-0.1,0.3,0,0.8,0.3,1.1
				c0.8,0.6,1.5,1.5,2.3,1.6c0.5,0.1,0.9,0,1.6,0.5c0.6,0.4,1,0.2,1.1-0.5c0-0.6,0-1.5,0.9-0.2c0.1,0.2,0.3,0.3,0.4,0.2
				c0.1-0.1,0.2-0.4,0-0.7c-0.5-1.2-0.1-1.2,0.6-0.8c0.4,0.2,0.9,0.4,1.3,0.6c0.2,0.1,0.4,0.1,0.4-0.1c0-0.2-0.2-0.4-0.3-0.6
				c-0.6-0.5-1.2-0.7-1.7-0.9c-0.4-0.1-1,0.1-1.3-0.8c-0.3-0.8-0.3-1.6,0.1-1.9c0.3-0.2,0.6-0.4,0.9-0.6c0.2-0.2,0.6-0.3,0.2-1
				c-0.4-0.7-1-0.9-1.2-0.6c-0.4,0.9-1.2,0.9-1.8,1.4c-0.4,0.3-0.5,0.9-0.1,1.8c0.3,0.6,0.3,1-0.2,1.2c-0.4,0.1-0.5,0.5-0.4,0.9
				c0,0.4-0.1,0.5-0.4,0.5c-1.2-0.2-1.2-0.2-1.6-1.9c0-0.1-0.1-0.3-0.1-0.4c-0.4-1.4-0.4-1.4-1.3-1.3c-0.8,0.1-1-0.3-1.3-1.5
				c-0.4-1.6,0.2-2,1-2.3c0.2-0.1,0.3,0,0.5,0.1c0.7,0.5,1,0.3,0.8-0.6c-0.1-0.5-0.2-0.6,0.2-0.8c0.8-0.3,1.9-0.4,2.4-1.1
				c0.7-1,1.8,0,2.6-0.2c0.1,0,0.2,0.1,0.3,0.1c0.8-0.4,1.7,0.7,2.6,1.3c0.3,0.2,0.3,0.3,0.2,0.6c-0.2,0.3,0.3,0.5,0.5,0.6
				c1.6,0.8,2.8,2.5,4.1,4.1c0.2,0.3,0.5,0.6,0.4,0.9c-0.1,0.3-0.4,0.3-0.6,0.2c-0.7-0.2-1.3-0.7-2-1.4c-0.2-0.2-0.5-0.6-0.7-0.5
				c-0.2,0.2,0.1,0.6,0.2,0.8c0.3,0.7,0.4,1.4,0.9,2c0.2,0.3,0.5,0.7,0.8,0.6c0.3-0.1-0.1-0.6-0.1-0.9c0.7,0.8,1.1,1.1,1.4,0.3
				c0.1-0.3,0.6-0.2,0.9,0c0.8,0.6,0.8,0,0.7-0.7c0-0.3-0.3-0.7,0-0.7c0.2,0,0.4,0.3,0.5,0.5c0.4,0.4,0.1,0.4,0,0.5
				c-0.1,0.1,0,0.4,0.1,0.6c0.3,0.4,0.6,0.4,0.8,0.3c0.7-0.3,1.4-0.2,2.2,0.1c0.2,0.1,0.4,0,0.5,0.2c0.5,1.1,1,0.7,1.5,0.8
				c0.3,0.1,0.6-0.3,0.9,0.6c0.1,0.3,0.4,0.2,0.6,0.1c0.8-0.6,1.7,0.4,2.6,1.3c0.2,0.2,0.4,0.5,0.6,0.7c0.2,0.2,0.4,0.3,0.5,0.2
				c0.2-0.1,0.1-0.4-0.1-0.6c-0.1-0.2-0.2-0.4-0.3-0.6c-0.4-0.7-0.6-1.3,0-1.5c0.3-0.1,0.4-0.4,0.6-0.6c0.2-0.3,0.6-0.2,1,0.2
				c0.4,0.4,0.4,0.7,0.3,1c-0.2,0.6,0.3,1.5,0.2,2.2c-0.1,0.5-0.1,1.1-0.2,1.6c-0.1,0.5-0.3,0.9-0.9,0.1c-0.2-0.2-0.4-0.4-0.5-0.2
				c-0.1,0.2,0.1,0.5,0.3,0.7c0.6,0.9,1.1,0.9,1.5,0.5c0.3-0.2,0.5-0.6,0.7-0.9c0.3-0.4,0.7-0.1,0.9,0.6c0.1,0.3,0.2,0.7,0.3,1
				c0.1,0.3,0.4,0.6,0.6,0.6c0.3-0.1-0.1-0.4-0.1-0.7c-0.2-1.1-0.8-1.9-1.6-2.6c-0.7-0.6-0.7-2.1-0.1-2.5c0.2,0.4,0.4,0.9,0.6,1.2
				c0.2,0.4,0.6,0.9,0.9,0.8c0.3-0.1-0.3-0.6-0.3-0.9c0.9,0,1.8,0.8,2.2,2.2c0.1,0.3,0.2,0.5,0.4,0.6c0.3,0.1,0.2-0.2,0.2-0.4
				c-0.1-0.7-0.4-1.3-0.9-1.8c-0.3-0.3-0.4-0.6-0.3-0.9c0.1-0.3,0.3-0.1,0.6,0c0.6,0.4,1.1,0.7,1.7,1.1c0.4,0.3,0.7,0.3,0.4-0.3
				c-0.4-0.8-0.1-0.8,0.3-0.7c1.3,0.4,2.7,0.8,4,1.7c0.8,0.6,1.5,0.3,2.4,0.9c0.2,0.1,0.1-0.3,0.1-0.4c0.1-0.6,0.4-0.8,1-0.5
				c0.1,0.1,0.3,0.2,0.4,0.4c0,1.4,1,1.5,1.6,1.9c0.4,0.3,0.8,0.2,1.2,0.7c0.2,0.3,0.7,0.4,0.7,1c0,0.5-0.1,0.8-0.5,0.7
				c-0.6-0.2-0.9,0.2-1.4,0.4C260.8,133.5,260.9,132.7,261.6,133.3z"/>
			<path id="XMLID_935_" class="st2" d="M168.9,84.3c-0.4-0.5-0.4-0.8-0.2-1.1c0.1-0.2,0.3-0.3,0.6-0.1c0.4,0.3,0.8,0.8,0.8,1.2
				c-0.1,0.7,0.5,1.3,0.7,2c0.2,0.6,0.4,0.3,0.5,0.2c0.4-0.3,0.6,0.1,0.8,0.7c0,0,0,0.1,0,0.1c0.1,0.4,0.1,1.1,0.5,1.3
				c0.5,0.2,0.7-0.2,0.8-0.7c0.1-0.4,0-0.8,0.5-0.4c0.4,0.3,0.9,0.6,0.8,1.3c0,0.1,0,0.2,0,0.4c0.2,1.3,0.1,1.4-0.9,1.1
				c-0.2-0.1-0.7-0.5-0.7-0.1c0,0.4,0.3,0.8,0.6,1.1c0.6,0.6,1.2,1.2,1.6,2.4c-0.7-0.7-1.3-1.2-1.8-0.7c-0.1,0.1-0.4-0.2-0.6-0.5
				c-0.2-0.3,0-0.4,0-0.6c0.1-0.4,0.2-0.9-0.2-1.4c-0.4-0.5-0.8-0.8-1.3-0.6c0.3,0.4,0.6,0.7,0.9,1c0,0.4-0.3,0.4-0.5,0.3
				c-1.6-0.7-1.9,0.9-2.7,1.5c-0.4,0.3-0.2,1.1,0.5,1.8c0.1,0.1,0.3,0.3,0.4,0.4c0.8,2.1,2.3,3.3,3.6,4.6c0.5,0.4,0.8,0.7,0.6,1.3
				c-0.2,1,0.5,1.9,1.1,2.8c0.4,0.6,0.7,0.4,0.8,0c0.1-1.1,0.2-2.3,0.7-3.2c0-0.1,0-0.3,0-0.4c-0.5-1.2-0.3-2.1-0.3-3.1
				c0.1-1.6,0.6-1.8,2-0.4c0.5,0.6,1,1.3,1.5,1.9c0.2,0.2,0.2,0.4,0.1,0.6c-0.3,0.4,0,1,0.3,1.5c0.4,0.6,0.8,0.5,1.2,0.6
				c0.2,0,0.4-0.1,0.6-0.2c0.3-0.1,0.5-0.1,0.6,0.5c0.1,0.9,0.7,1.9,1,2.8c0.3,1,1.2,1.4,1.6,2.3c0,0,0,0.1,0,0.1
				c-0.2,0.1-0.6,0-0.7,0.2c-0.2,0.5,0.2,0.5,0.5,0.6c0.3,0.1,0.6,0.2,0.8,0.4c0.3,0.2,0.3,0.6,0.4,0.9c0,0.5,0,0.8-0.5,0.7
				c-1-0.2-2-0.5-3-1.1c-1.2-0.7-2.3-0.4-2.7,0.5c0.5,0.3,0.7,0,1,0c0.4,0,0.7,0,1.1,0.3c0.2,0.1,0.4,0.3,0.2,0.5
				c-0.5,0.4-0.4,0.8,0.4,1.6c0.1,0.1,0.2,0.2,0.3,0.3c0,0.2,0,0.3-0.2,0.1c-1-0.5-1.7-0.3-2.6-0.4c-0.3,0-0.6,0.2-0.5,0.5
				c0.2,1.1-0.3,0.9-0.8,0.8c-0.4-0.1-0.6,0.3-0.9,0.6c-0.1,0.1-0.1,0.8-0.6,0c-0.2-0.3-0.3,0.1-0.3,0.3c0.5,2-0.5,2.4-1.4,2.9
				c-0.7,0.4-0.9,1.1-0.6,2.4c0.2,0.6,0.3,1.3,0.4,1.9c0,0.2,0.1,0.5-0.1,0.4c-0.2,0-0.3-0.3-0.4-0.5c-0.3-0.5-0.3-1.1-0.5-1.6
				c-0.3-1.4-1.7-3-2.7-3c-0.1,0-0.3,0-0.3,0.1c0,1.1-0.6,0.2-1-0.1c-0.6-0.5-1.1-0.9-1.8-1c-1.3-0.1-1,1.3-1.2,2.3
				c-0.1,0.9,0.1,2,0.5,3.1c0.5,1.2,1.3,2,2.2,2.1c0.3,0,0.4-0.1,0.5-0.4c0.1-0.3,0.2-0.6,0.5-0.6c0.3,0,0.6,0,1,0.4
				c0.3,0.4,0.1,0.7,0.1,1c0,0.1,0,0.2-0.1,0.3c-0.1,0.6-0.6,0.9-0.3,1.7c0.3,0.8,1,0.8,1.5,1.3c0.5,0.4,0.7,0.8,0.6,1.3
				c0,0.4-0.1,0.8-0.1,1.3c0,1.1,0.7,2.2,1.7,2.5c0.2,0.1,0.5,0.1,0.7,0.4c0.8,1.4,1,0.8,1.4,0.2c0.3-0.4,0.9-0.2,1.4-0.3
				c0.1,0.4-0.3,0.6,0.1,1c0.3,0.3,0.4-0.1,0.5-0.2c0.2-0.1,0.3-0.2,0.7,0.2c0.7,0.9,1.5,1.7,2.4,2c0.4,0.2,0.6,0.5,0.9,1
				c0.9,1.6,1.6,3.3,3.1,4.3c1.2,0.8,1.4,2.3,1.8,3.6c0.1,0.3-0.2,0.3-0.3,0.4c-0.3,0.2-0.6,0.4-0.8,1c0.5,0.2,0.7-0.1,1.1-0.1
				c0.2,0,0.3-0.2,0.5,0.2c0.1,0.2-0.1,0.3-0.2,0.3c-0.2,0.1-0.4-0.1-0.5,0.2c0.5,0.6,0.8,0.7,1.2,0.4c0.4-0.3,0.9-0.1,1.3,0.7
				c0.6,1,1.2,1.7,2,2.1c1,0.6,1.6,1.8,2.3,2.9c0.4,0.6,0.2,1.1,0.1,1.5c-0.2,0.6-0.6,1.1-1.1,1.4c-0.5,0.3-0.6,0.8-0.6,1.6
				c0,1.4-0.1,2.8-0.7,3.7c-0.2,0.3-0.3,0.6-0.7,0.4c-0.8-0.4-1.3-0.2-2-0.1c-0.7,0.1-1.1,0.3-1.2,1.5c-0.1,1.7-1,2.8-2.3,3.2
				c-0.6,0.2-1.1-0.6-1.7-1.1c-0.1,0.4,0.2,0.8,0.4,1.2c0.4,1.1,0.3,1.6-0.6,1.4c-0.8-0.2-1.7-0.7-2,0.2c0,0.1-0.3,0.1-0.4,0
				c-0.5-0.2-0.5,0-0.4,0.7c0.1,0.8-0.2,1.3-0.7,1.6c-0.5,0.3-0.6,0.7-0.1,1.7c0.1,0.3,0.5,0.6,0.2,0.7c-0.9,0.7-1.3,2.1-2.2,2.7
				c-0.2-0.4-0.3-0.8-0.6-1.1c-0.4-0.6-1-1.1-0.7-1.8c0.2-0.4-0.2-1.2,0.4-1.4c0.4-0.1-0.2-0.8-0.4-1.3c-0.1-0.3-0.6-0.5-0.5-0.8
				c0.1-0.4,0.4,0.2,0.5,0.3c0.2,0.1,0.3-0.2,0.3-0.4c0.1-0.7,0.2-1.5,0-2.4c-0.1-0.6-0.2-1.1,0-1.5c0.9-3.7,1.3-7.7,1.5-11.9
				c0-0.7,0-1.3-0.6-1.9c-1.7-2.1-2.6-4.4-3.1-6.9c-0.2-0.9-0.5-1.9-0.8-2.8c-0.2-0.5-0.3-1,0.1-1c0.1,0,0.2-0.2,0.2-0.2
				c-0.8-2,0.3-2.4,0.9-3.2c0.5-0.7,0.5-1.8,0.1-3c-0.2-0.6-0.5-1.3-1.1-1c-0.1,0.1-0.3,0-0.5-0.2c-0.9-0.9-1.7-1.7-2.1-3.1
				c-0.2-0.7-0.6-1.4-1.2-2c-0.5-0.5-0.9-1-1.4-1.5c-0.7-0.9-1.4-1.6-2.3-2.2c-1.3-0.9-2.5-2.6-3.6-4.2c-0.1-0.1-0.2-0.3-0.2-0.4
				c0-1.9-1.4-3.7-2.1-5.5c-0.3-1-0.9-2-1.2-3c-0.1-0.3-0.3-0.7-0.6-0.8c-0.4-0.1-0.2,0.3-0.2,0.6c0,0.3-0.1,0.3-0.3,0
				c-0.4-1.5-1.2-2.9-2-4.3c-0.9-1.7-1.9-3.7-1.9-5.5c-0.1-1.3,0-2.6,0.1-3.8c0-0.2,0-0.5,0.3-0.4c0.8,0.4,0.5-0.3,0.3-0.8
				c-0.3-0.6-0.6-1.4-1-1.8c-1.1-1.2-1.6-2.7-2-3.9c-0.4-1.3-0.9-2.3-1.5-3.5c-0.9-2-2.2-2.7-3.3-3.9c-0.9-1-2-1.5-2.9-2.8
				c-0.3-0.4-0.6-0.4-0.7-0.1c0,0,0,0.1,0,0.1c-0.1,0.5-0.5,0.6-0.8,0.2c-0.5-0.6,0.2-0.6,0.2-1c-0.5-0.5-0.8-0.4-1,0
				c-0.5,1.1-1.4,1.6-2.6,1.6c-0.2,0-0.2-0.1-0.2-0.3c0.1-0.1,0.3-0.2,0.4-0.3c0.4-0.5,0.3-0.8-0.4-1.2c-1-0.6-1.8-1.8-2.5-2.8
				c-0.8-1-0.5-2,0.4-1.8c0.5,0.1,0.9,0.1,1.1-0.3c0.1-0.1,0.1-0.4-0.1-0.7c-0.1-0.2-0.3-0.2-0.4-0.2c-1.3-0.3-1.4-0.4-2.2-2.2
				c0.5-0.1,1,0,1.6,0.7c0.3,0.4,0.7,0.6,0.9,0.3c0.2-0.4-0.3-0.7-0.6-1c-0.2-0.3-0.5-0.5-0.6-0.8c-0.3-0.4-0.8-0.9-0.8-1.4
				c0-0.4,0.6,0,0.9,0c0.6-0.1,1.2-0.2,1.9-0.2c0.8,0,1.5,0.3,2.3,1c1.2,1.2,2.5,2,3.8,2.9c1.4,1,2.8,2.3,4.2,3.6
				c0.4,0.4,0.4,0.8,0.5,1.2c0.1,0.3,0.2,0.7,0.5,0.7c0.2,0,0.1-0.3,0.1-0.6c-0.3-1.1-0.1-1.2,0.7-0.4c0.5,0.5,1,0.4,1.5,0.3
				c0.5-0.1,1,0,1.6,0.7c0.5,0.6,1.1,0.5,1.7,1.1c0.8,0.7,1.5,1.8,2.4,1.9c0.1,0,0.5,0.4,0.4,0.7c-0.4,0.7,0.3,0.8,0.6,1
				c0.8,0.5,1.7,0.8,2.2,2.2c0.1,0.3,0.5,0.4,0.4,0.1c-0.1-0.6,0.5-0.5,0.3-1.2c-0.1-0.5,0.5-0.1,0.6,0.1c1.3,2.1,2.8,2.4,4.2,2.9
				c0,0,0.1,0,0.1,0.1C168.8,85.4,168.9,85,168.9,84.3z"/>
			<path id="XMLID_934_" class="st2" d="M185.9,81.9c0.7,0.7,1.4,0.3,2,1.2c0.7-0.9,1.8,0.7,2.7,1c0.4,0.1,1,0.5,0.4-0.6
				c-0.2-0.4-0.1-0.4,0.1-0.4c0.1,0,0.2,0,0.2,0.1c1.7,1.6,3.3,1.1,5,2.8c-0.1,0.2-0.6-0.2-0.7,0.3c0.4,0.4,0.8,0.5,1.2,0.7
				c0.8,0.4,1.6,0.7,2.3,1c0.3,0.2,0.8,0.2,0.9,1c0,0.2,0.4,0.4,0.6,0.5c0.3,0.2,0.6,0.2,1.1,0.8c-2-0.7-4-1.8-5.7-1.3
				c0.5,0.6,0.9,0.6,1.3,0.6c0.9,0.1,1.8,0.2,2.8,0.9c0.4,0.3,1,0.3,1.3,1.2c0,0.1,0.2,0.2,0.2,0.2c0.8,0,1.7,1,2.5,1.1
				c0.5,0,1.1,0.4,1.6,1c-0.9-0.2-1.6,0.3-2.6-0.3c-0.2-0.1-0.5-0.2-0.6,0c-0.2,0.3,0.3,0.4,0.4,0.7c0.2,0.5-0.1,0.6-0.2,0.7
				c-0.8,0.5-0.7,1,0.4,2.2c-0.4-0.2-0.6-0.3-0.9-0.5c-0.2-0.1-0.5-0.2-0.6,0c-0.1,0.3,0.2,0.4,0.4,0.6c0,0,0.1,0.1,0.1,0.1
				c0.1,0.3-0.5,0.3,0.1,0.8c0.3,0.3,0.5,0.6,0.7,1.1c-0.9-0.1-0.9-0.1-0.6,0.8c-0.3-0.1-0.5-0.5-0.7-0.8c-0.5-0.5-0.9-1.3-1.3-0.7
				c0,0,0,0-0.1,0c-1.4-1-0.3,0.7-0.5,1.1c-0.1,0.2,0.3,0.3,0.5,0.5c0.4,0.3,0.8,0.6,1.1,1.2c0.1,0.2,0.4,0.5,0.2,0.7
				c-0.2,0.1-0.4-0.3-0.5-0.5c-0.3-0.5-0.7-0.8-0.9-0.5c-0.2,0.2-0.5,0.3-0.4,0.7c0.1,0.4,0.5,0.4,0.8,0.6c0.2,0.2,0.5,0.2,0.7,0.7
				c-1,0-2.1-0.2-3.2-0.9c-1-0.6-1.8-0.7-2.3,0.3c-0.2,0.4-0.6,0.4-1,0.2c-1.4-0.4-2.5,0.4-2.5,1.9c0,0.6-0.3,0.8-0.7,0.9
				c-0.1,0-0.3,0-0.4-0.1c-1.2-1.6-2.7-3-2.8-5.2c0-0.1,0-0.2,0-0.2c-1-0.9-0.3-1.2-0.1-1.5c0.3-0.5,0-0.7-0.5-1
				c1,0.4,0.4-0.8,0.7-1.2c0.5-0.7-0.5-1.1-0.8-1.7c0.4-0.1,0.7-0.3,0.3-1.2c-0.4-0.7-0.5-0.2-0.8-0.2c-0.1-1.7-1.2-3.2-1.9-4.9
				c-0.1-0.3-0.3-0.5-0.6-0.6c-1-0.5-2-1-3-1.5c-0.8-0.4-0.9-0.4-1.4-1.5c0,0,0.1-0.1,0.1-0.1c0.4,0,1.1,0.6,1.1,0.1
				c0-0.6-0.7-0.7-1.1-1.1c-0.3-0.3-0.6-0.3-0.9-0.8c0.4-0.4,1.1,0.2,1.7,0.3c0.2,0,0.3,0,0.5,0.1c0.7,0.3,1.2,0.1,1.2-0.6
				c0-0.7-0.8-0.4-1.2-1.1c1.1-0.1,2.5,0.8,3.2-0.2C185.1,81.4,185.5,81.8,185.9,81.9z"/>
			<path id="XMLID_933_" class="st2" d="M275.5,201.4c0.3,1.6,1.2,3.1,1.2,4.5c0,1.3,1.1,2.6,1.6,3.9c0.3,0.9,0.7,1.7,1.4,2.4
				c0.3,0.3,0.3,0.7,0.3,1c0,2.5-0.8,4.4-1.5,6.4c-0.2,0.5-0.8-0.1-1.1,0.2c-0.4,0.4-0.7,0-1.1-0.6c-0.2-0.4-0.4-0.2-0.6-0.3
				c-0.6-0.2-1.1-0.6-1.5-1.5c-0.4-0.8-0.3-1.8-1.2-2.5c0-0.2,0.1-0.4,0.1-0.6c0-0.2,0.1-0.4-0.1-0.6c-0.2-0.2-0.3-0.1-0.4,0.1
				c-0.3,0.7-0.6,0.5-1-0.6c-0.4-1-1.2-1.9-2-2.2c-0.9-0.4-1.8-0.8-2.6-0.7c-0.9,0.2-1.9-0.4-2.9-0.3c-0.4,0-1-0.7-1-1.4
				c-0.1-1.7-0.3-3.3-1.1-5.2c-0.2-0.4-0.1-0.4,0.2-0.2c0.4,0.2,0.2-0.4,0.1-0.7c-0.5-1.4-0.4-1.7,0.6-1.7c0.6,0,1.2,0,1.7,0
				c0.6,0,1.3,0,1.4-1c0-0.1,0-0.2,0-0.2c0.9,0.6,0.9-0.6,1.5-0.7c0.2,0,0.3,0,0.5,0.3c0.2,0.4,0.5,0.6,0.8,0.8
				c0.4,0.3,0.7,0.6,0.8-0.1c0.2-1.4,1.3-1.4,2.4-0.2c0.3,0.4,0.5,0.6,0.3,1c-0.4,1,0.4,3,1.5,4c0.3,0.3,0.4,0,0.5-0.1
				c0.3-0.5,0.5-1.2,0.6-1.9C275.1,202.3,275.2,201.9,275.5,201.4z"/>
			<path id="XMLID_932_" class="st2" d="M181.3,80.4c-0.7,0.1-1.3,0.2-2,0.3c-0.2,0-0.4-0.1-0.6-0.4c-0.9-0.9-1.3-0.2-2-0.4
				c0.4,0.7,0.7,0.6,1,1.1c-0.7,0.4-1.6,0.2-2.6-0.3c0.3,0.8,0.7,1,1.2,1.4c-0.4,0.3-0.8,0.1-1.3-0.2c-0.7-0.5-1.4-0.9-2.1-1.4
				c-0.3-0.2-0.8-0.3-0.7-0.8c0-0.5-0.1-1.3,1-0.3c-0.6-1.1-0.9-1.8-1.6-1.6c-0.2,0.1-0.5,0-0.7-0.1c-0.4-0.1-0.7-0.4-0.9-1
				c-0.2-0.7,0.5,0,0.5-0.5c-0.3-0.4-0.7-0.6-1-0.9c-0.2-0.2-0.4-0.4-0.4-0.8c0-0.3,0.2-0.2,0.3-0.3c0.9-0.8,1.8,0.8,2.6,1.7
				c0.3,0.3,0.4,1,0.6,1.5c0.4,0.8,1.5,1.9,2.1,1.9c0.1,0,0.3,0,0.3-0.2c0-0.2-0.2-0.3-0.3-0.4c-0.4-0.3-0.8-0.7-1.2-1.1
				c-0.2-0.2-0.5-0.5-0.4-0.8c0.1-0.3,0.4-0.1,0.6,0.1c0.7,0.5,1.3,1,1.8,0.6c0.1-0.1,0.3-0.1,0-0.4c-0.8-0.1-1.6-0.5-2.4-1.4
				c-0.1-0.1-0.2-0.3-0.3-0.3c-0.9,0-1.3-1.1-1.9-2.1c1.3,0.8,2.2,0.4,3.3,1.1c0.1,0,0.2,0.1,0.2,0c0.6-1.2,1.9,0,2.9,0.5
				c0.9,0.5,1.9,1.2,2.8,1.7c0.4,0.2,0.9,0.4,1.2,1.2c0.2,0.4,0.5,0.4,0.7,0.5c0.2,0.1,0.5,0.2,0.7,0.4c0.3,0.2,0.7,0.6,0.8,1.1
				c0,0.4-0.4,0.2-0.6,0.2c-0.3,0-0.7-0.1-1-0.1C181.7,79.9,181.3,79.9,181.3,80.4z"/>
			<path id="XMLID_931_" class="st2" d="M179.1,92.7c-0.5-2.5-2.1-3.6-3.7-4.8c-1-0.7-2-1.3-2.9-1.9c-0.8-0.5-1.1-1.2-1.3-2
				c-0.2-0.8,0.2-0.9,0.7-1c0.3-0.1,0.7,0,1,0.5c0.3,0.5,0.4,1,0.2,1.4c-0.1,0.2-0.3,0.3,0,0.7c0.1,0.2,0.2,0.4,0.4,0.3
				c0.1,0,0.1-0.2,0.1-0.3c-0.1-0.4-0.1-0.7-0.1-1c0.1-0.5,0.3-0.8,0.9-0.5c0.5,0.3,0.4,0.7,0.5,1.1c0.2,0.7,1.1,1.6,1.5,1.4
				c0.7-0.3,1.2,0.3,1.7,1.2c0.1,0.3,0.3,0.6,0.5,0.6c0.9,0.4,1.3,1.6,2.1,2.2c0.3,0.2,0.9,0.8,0.4,1.3c-0.2,0.2,0.1,0.7,0.4,0.9
				c0.7,0.5,1.2,1.4,1.9,2c0.2,0.2,0.6,0.8,0.4,0.8c-0.4,0-0.3,1.1-1,0.2c-0.2-0.3-0.4-0.6-0.7-1c-0.3-0.5-0.6-0.7-0.9-0.5
				c-0.4,0.2,0,0.6,0.2,1c0.2,0.3,0.3,0.6,0.5,0.9c0.3,0.5,0.5,1,0.6,1.5c0,0.4-0.7,0.1-0.4,0.8c0,0.1-0.2,0-0.3-0.1
				c-0.8-0.9-1.8-1.6-2.5-2.7c-0.6-1-1.2-1.7-2.1-1.9c-0.2,0-0.5-0.1-0.6-0.5c-0.1-0.4,0.2-0.3,0.4-0.2c0.3,0.1,0.6,0.3,0.8,0.4
				c0.2,0.1,0.4,0.2,0.4-0.2c0-0.7,0.5-0.5,1,0C179.6,93.3,179.6,93.2,179.1,92.7z"/>
			<path id="XMLID_930_" class="st2" d="M262.9,189.6c-0.6-0.6-1.4-0.8-1.9-1.8c-0.9-1.9-0.9-2.6,0.4-3c0.7-0.2,1.3-0.4,1.9-0.8
				c0.4-0.2,0.6,0,1,0.6c0.4,0.6,0.3,0.8,0,0.9c-0.4,0.1-0.4,0.4,0,1c0.2,0.4,0.3,0.9,0,1.2c-0.4,0.5-0.9,0.8-0.9,1.8
				C263.5,190,263.2,189.7,262.9,189.6z"/>
			<path id="XMLID_929_" class="st2" d="M159.4,76.2c0.4,0.1,0.8-0.2,1,0.9c0,0.1,0.8,0.4,1,0.4c0.6,0,0.9,0.6,1.3,1.2
				c0.2,0.3,0.4,0.7,0.5,0.3c0.1-0.7,0.6-0.6,1.1-0.7c-0.2,0.6,0,1.3,0.2,2c0.3,0.8,0.7,1.4,1.3,1.7c-0.3,0.7-0.7,0.8-1.4-0.1
				c-0.4-0.5-0.8-0.6-1.2-0.7c-1.3-0.1-2.5-0.6-3.7-2.6c0.4,0.2,0.9,0.4,1.3,0.6c0.2,0.1,0.4,0.3,0.4-0.1c0-0.2-0.2-0.4-0.4-0.5
				c-0.4-0.4-0.8-0.5-1.3-0.7c-0.4-0.2-0.6-0.6-0.8-1.1c-0.2-0.5,0-0.7,0.3-0.7C159.2,76,159.3,76.1,159.4,76.2z"/>
			<path id="XMLID_928_" class="st2" d="M270.6,192.4c0.5,0.2,0.8,0.5,1,1.2c0.2,0.9,0.6,1.4,1.2,1c0.3-0.2,0.6,0,0.9,0.4
				c0.9,1,1.9,1.9,2.7,3.1c0.6,0.8,1.2,1.5,1.3,2.6c0.1,0.6,0.6,1.2,0.9,1.9c-0.6-0.4-1-0.7-1.3-1.4c-0.6-1.4-0.8-1.5-1.6-1.3
				c-0.3,0.1-0.5-0.1-0.8-0.3c-0.4-0.4-0.8-0.8-1.3-1.3c-0.1-0.1-0.3-0.3-0.2-0.4c0.5-0.8-0.4-1.6-0.9-2.3c-0.3-0.5-0.7-0.9-1.2-1.2
				c-0.3-0.3-0.5-0.4-0.3-0.8C271.3,193.1,270.6,192.9,270.6,192.4z"/>
			<path id="XMLID_927_" class="st2" d="M233.6,178c0.4,1,0.4,1.7,0.2,2.3c-0.3,1.4-0.6,2.7-1,4.1c-0.1,0.2-0.1,0.4-0.2,0.6
				c-0.2,0.3-0.5,0.2-0.9,0c-0.3-0.2-0.4-0.6-0.5-1c-0.2-0.8-0.4-1.7,0-2.2c0.2-0.3,0.2-0.9,0.1-1.4c0-0.7,0.2-1.1,0.7-1.2
				C232.7,179.2,233.3,178.9,233.6,178z"/>
			<path id="XMLID_926_" class="st2" d="M269.3,169.3c0.7,0.7,1,0,1.5,0.2c0.9,0.4,1.5-0.2,2.4,0.2c0,0,0.1,0,0.1,0
				c-0.1-0.9,1.1-0.3,0.9-1.4c-0.1-0.3,0.1-0.6,0.5-0.3c0.4,0.3,0.5,0.7,0.5,1.1c-0.1,1.1-0.5,1.9-0.8,2.9c-0.1,0.2-0.3,0-0.5,0
				c-0.3-0.1-0.6-0.3-0.8-0.4c-0.8-0.2-0.8-0.1-1.4-1c-0.2,0.1,0.2,0.4,0.1,0.5c-0.5,0.3-1.1,0.7-1.6,0.9c-0.1,0.1-0.3-0.3-0.3-0.5
				C269.9,170.9,269.5,170.2,269.3,169.3z"/>
			<path id="XMLID_925_" class="st2" d="M209.6,117.5c0.2,0.4,0.1,0.9,0.6,1.1c0.1,0.1,0.2,0.3,0.2,0.3c-0.5,0.5,0.2,1.3,0.5,1.9
				c0.5,0.9,0.4,1.8,1.2,2.7c0.3,0.4-0.2,0.9-0.8,0.7c-0.3-0.1-0.6-0.3-0.8-0.4c-0.3-0.1-0.5-0.2-1-0.4c0.2-0.3,0.9-0.3,0.1-1.1
				c-0.2-0.2,0.1-0.5,0.3-0.6c0.4-0.3,0.4-0.8-0.1-1.4C208.9,119.1,208.8,118.1,209.6,117.5z"/>
			<path id="XMLID_924_" class="st2" d="M254.4,179.4c0.6,0.4,1,0.8,1.2,1.4c0.7,1.4,1.6,2.7,2.1,4.1c0.2,0.5,0.5,0.9,0.8,1.2
				c0.4,0.3,0.4,0.6,0.3,0.9c-0.2,0.3-0.1,0.9-0.5,0.8c-0.4-0.1-0.6-0.7-0.8-1.2c-0.8-1.4-1.3-2.8-1.8-4.3
				C255.4,181.4,254.9,180.5,254.4,179.4z"/>
			<path id="XMLID_923_" class="st2" d="M242.1,120.3c-0.8,0.2-1.7,0-2.7-0.4c-1.4-0.5-2.2,0.2-3,1c-0.3,0.4,0.1,1,0.3,1.6
				c-0.5-0.1-1.6-1.2-1.7-1.8c-0.1-0.4,0.1-0.6,0.4-0.6c0.7-0.1,0.8-0.8,1.2-1.3c0.1-0.1,0.2-0.2,0.3-0.1c0.6,0.3,1.2,0.2,1.8,0.5
				C240,119.6,241,120,242.1,120.3z"/>
			<path id="XMLID_922_" class="st2" d="M220.2,105c0.5,0.5,0.8,0.9,0.1,0.9c-0.4,0-0.6,0.6-0.8,1c-0.1,0.2-0.3,0.5-0.6-0.1
				c-0.2-0.3-0.7-0.7-0.2-0.9c0.2-0.1,0.2-0.2-0.1-0.5c-0.2-0.2-0.1-0.3,0-0.3c0.2-0.1,0.5,0,0.3-0.4c-0.2-0.4-0.5-0.4-0.7-0.3
				c-0.5,0.3-1.1-0.8-1.6-0.7c-0.1-0.6,0.9-0.2,0.2-1.2c-0.1-0.2,0.3-0.1,0.4,0c0.1,0.1,0.4,0,0.4,0.4c0.1,0.7,0.2,0.7,0.6,0.6
				c0.5-0.2,0.9,0.2,1.2,0.9C219.7,104.7,220,104.6,220.2,105z"/>
			<path id="XMLID_921_" class="st2" d="M159.4,76.2c-0.1,0-0.2,0-0.2,0c-0.3-0.6-0.6-0.5-0.9-0.4c-0.4,0.1-0.7,0.2-1.1,0.2
				c-0.4,0.1-0.7-0.4-1-0.8c-0.3-0.5-0.2-0.6,0-0.8c0.3-0.3,0-1.5,0.8-1c0.5,0.3,1.1,0.7,1.7,1.1C159.4,75,159.7,75.5,159.4,76.2z"
				/>
			<path id="XMLID_920_" class="st2" d="M201.4,107.4c0.9,0,1.6-0.4,2.7,0.3c0.6,0.3,0.8,0.8,1,1.3c0.2,0.7-0.3,0.4-0.6,0.4
				c-0.4,0-0.8-0.1-1.2-0.2C202.5,109.2,201.9,108.5,201.4,107.4z"/>
			<path id="XMLID_919_" class="st2" d="M175.7,83.2c0,0.4-0.1,0.5-0.5,0.3c-1.5-0.7-3-1.5-4.5-2.8c-0.1-0.1-0.2-0.2-0.2-0.2
				c-0.4-1.2-1.2-1.9-2-2.7c0.8,0.5,1.7,0.8,2.3,2.1c0.3,0.7,0.8,1,1.3,1.2C173.3,81.8,174.5,82.5,175.7,83.2z"/>
			<path id="XMLID_918_" class="st2" d="M286.3,230.5c0.2-0.5,0.6-0.7,0.9-1c0.5-0.3,0.9-0.6,1.3-1.1c0.1-0.2,0.4-0.2,0.6,0.1
				c0.2,0.3,0.2,0.5,0.1,0.7c-0.4,0.7-1.1,1.1-1.3,2C287.7,231.9,287.5,231.7,286.3,230.5z"/>
			<path id="XMLID_917_" class="st2" d="M275.2,165.2c0.4,0.6,0.9,1.2,1.4,1.7c0.2,0.2,0,0.5-0.2,0.6c-0.5,0.1-1.1,0-1.6,0
				c-0.2,0-0.3-0.2-0.4-0.5c-0.1-0.3-0.3-0.8-0.1-0.8c0.4-0.1,0.5-0.5,0.6-0.9C274.9,165.1,275,165.1,275.2,165.2z"/>
			<path id="XMLID_916_" class="st2" d="M174.7,122c1.1,0.9,2.1,2.1,3.1,3.3c0.1,0.2,0.3,0.5,0.1,0.5c-0.3,0.1-0.8-0.1-1.1-0.6
				c-0.3-0.6-0.7-1.1-1.1-1.5c-0.4-0.4-0.8-1.5-1.3-0.9c-0.2-0.3-0.5-0.6-0.6-0.8c-0.1-0.3,0.2-0.2,0.4-0.2
				C174.3,121.8,174.5,121.9,174.7,122z"/>
			<path id="XMLID_915_" class="st2" d="M162.8,74.6c0.3,0.6,0.6,1.2,1,1.8c-0.8-0.2-1.7-0.2-2.5-0.8c-0.5-0.4-1-1.4-1.7-1.7
				c-0.1,0-0.1-0.4,0-0.6c0.1-0.2,0.3-0.1,0.4,0c0.4,0.3,0.8,0.6,1.1,1C162.4,75.6,162.4,75.6,162.8,74.6z"/>
			<path id="XMLID_879_" class="st2" d="M186.4,110.3c-0.2,0.4-0.3,0.6,0.2,0.9c0.7,0.4,0.7,1.1,0.7,1.7c0,0.3-0.3,0.1-0.4,0.2
				c-0.1,0-0.3-0.1-0.3-0.2c0-1-0.6-0.8-0.9-1c-0.3-0.2-0.6-0.3-0.8-0.8c-0.2-0.5,0.1-0.5,0.3-0.6
				C185.6,110.3,185.9,110.2,186.4,110.3z"/>
			<path id="XMLID_878_" class="st2" d="M266.7,190.2c-1-0.3-1-0.3-0.5,1c0.2,0.6,0.4,1,0.1,1.4c-0.3-0.4-0.3-0.7-0.4-1.1
				c-0.1-0.3-0.1-0.7-0.4-0.7c-0.3-0.1-0.2,0.3-0.2,0.6c0,0.4,0,0.7,0.1,1.1c-0.8-1.5-0.6-3.9,0.3-4c0.1,0.4-0.7,0.2-0.1,0.9
				C265.9,189.7,266.2,189.9,266.7,190.2z"/>
			<path id="XMLID_877_" class="st2" d="M220.2,105c-0.2-0.1-0.5-0.3-0.7-0.6c0.3,0.2,0.6,0.2,0.6-0.1c0-1.2,0.6-0.3,0.9,0.1
				c0.3,0.4,0.4,0.4,0.7,0.3c0.6-0.3,1.2,0.6,1.8,1.1c-0.6,0.5-1.2,0.3-2.1-0.4C221.1,105.1,220.5,104.3,220.2,105z"/>
			<path id="XMLID_876_" class="st2" d="M254.4,123.5c0.3,0.2,0.5,0.4,0.7,0.7c0.1,0.4,0.3,0.6,0.5,0.4c0.1-0.1,0.3-0.2,0.4,0.1
				c0.2,0.4,0.1,0.8,0,1.1c0,0.2-0.2,0.2-0.4,0c-0.8-0.7-1.5-1.4-2.3-2.2c-0.3-0.3,0-0.4,0-0.5C253.6,123,254,123.1,254.4,123.5z"/>
			<path id="XMLID_875_" class="st2" d="M168.2,81.7c0,0.4-0.1,0.4-0.3,0.3c-0.7,0-1.1-0.8-1.5-1.5c-0.1-0.2,0.1-0.7,0.5-0.8
				c0.6-0.1,0.8,0.1,1,1.1C167.9,81.1,168.1,81.5,168.2,81.7z"/>
			<path id="XMLID_874_" class="st2" d="M290.1,229.1c-0.5-1-0.9-1.8-0.6-2.6c0.1-0.3,0.1-0.3,0.4-0.2c0.5,0.3,0.7,0.9,1.1,1.3
				c0.2,0.2-0.2,0.5-0.4,0.6C290.4,228.4,290.3,228.8,290.1,229.1z"/>
			<path id="XMLID_873_" class="st2" d="M208.8,120.4c0,0.8-0.7,1.2-1.4,0.9c-0.2-0.1-0.3-0.3-0.3-0.5c0.1-0.7,0.4-1.1,0.7-1.5
				c0.1-0.1,0.3,0,0.5,0.2C208.7,119.7,208.8,120.1,208.8,120.4z"/>
			<path id="XMLID_872_" class="st2" d="M265.4,178.6c0-0.2,0.1-0.5,0.1-0.8c0.1-0.3,0.2-0.4,0.5-0.1c0.3,0.3,0.5,0.8,0.3,0.9
				c-0.7,0.5-0.1,1.3,0.4,2.1c0.2,0.4,0.5,0.8,0.7,1.2c0.1,0.1,0.2,0.4,0,0.3c-0.1,0-0.3,0.1-0.4-0.3c-0.2-0.8-0.7-1.4-1.2-2.1
				C265.4,179.6,265.3,179.2,265.4,178.6z"/>
			<path id="XMLID_871_" class="st2" d="M275.6,158.7c0,1.3,0.1,2.6,0.6,4c0,0.1,0,0.2,0,0.2c-1-0.3-0.5,0.7-0.3,1.3
				c0,0.2,0.1,0.4,0,0.4c-0.2,0-0.4-0.3-0.3-0.5C275.7,162.4,274.7,160,275.6,158.7z"/>
			<path id="XMLID_870_" class="st2" d="M261.6,133.3c-0.4-0.2-0.4,0.3-0.5,0.5c-0.4,0.4-1.1,0.5-1.7-0.1c-0.3-0.3-0.4-0.6-0.1-0.6
				c0.8,0,1.4-0.5,2.4,0C261.6,133.2,261.6,133.3,261.6,133.3z"/>
			<path id="XMLID_869_" class="st2" d="M235.9,112.8c-0.3,0-0.5-0.2-0.8-0.7c-0.2-0.3-0.7-0.6-0.6,0c0,0.2,0,0.2-0.1,0.1
				c-0.3-0.1-0.3-0.4-0.4-0.6c-0.1-0.3-0.4-0.7-0.2-0.9c0.1-0.1,0.3-0.1,0.6,0.1c0.7,0.6,1.4,1.2,2.2,1.8c0.1,0.1,0.2,0.2,0.2,0.4
				c0,0.1-0.1,0.1-0.2,0.2C236.3,113.2,236.1,113,235.9,112.8z"/>
			<path id="XMLID_868_" class="st2" d="M262.5,192.3c-1.2-1-2.1-1.8-3.1-2.6c-0.2-0.2-0.5-0.5-0.4-0.7c0.1-0.3,0.4,0.1,0.6,0.2
				c0.7,0.5,1.4,1.1,2,1.6C261.9,191.1,262.3,191.5,262.5,192.3z"/>
			<path id="XMLID_867_" class="st2" d="M159.8,109.2c0.1,0,0.2,0,0.3,0c0.7,1.8,1.4,3.7,2.1,5.7c-0.6-0.6-0.8-1.1-1.1-1.7
				C160.6,111.8,160.1,110.5,159.8,109.2z"/>
			<path id="XMLID_866_" class="st2" d="M169.1,81.6c0-0.5,0-0.7,0.3-0.7c0.4,0.1,0.7,0.1,1.1,0.5c0.1,0.1,0.2,0.3,0.1,0.4
				c-0.4,0.3-0.9,0.2-1.2,0.7c-0.1,0.1-0.2-0.3-0.2-0.4C169.1,81.8,169.1,81.6,169.1,81.6z"/>
			<path id="XMLID_865_" class="st2" d="M277,221.5c0.3,0.3,0.8,0.4,0.8,1c0,0.4-0.1,0.9-0.6,0.5c-0.6-0.4-0.6-1-0.7-1.4
				C276.4,221,276.8,221.5,277,221.5z"/>
			<path id="XMLID_864_" class="st2" d="M266.2,184.7c0.4-0.6,1.1-0.1,1.6,0c0.2,0.1,0.2,0.4,0.2,0.7c0,0.4-0.1,0.6-0.4,0.7
				c-0.2,0-0.4-0.1-0.5-0.4C267,185.1,266.7,184.9,266.2,184.7z"/>
			<path id="XMLID_863_" class="st2" d="M179.5,175.1c0.1-0.2,0.5,0,0.5-0.3c0-0.2,0-0.8,0.4-0.3c0.4,0.5,0.9,1.1,0.9,1.8
				c0,0.3-0.3,0.2-0.5,0C180.4,175.9,180,175.5,179.5,175.1z"/>
			<path id="XMLID_862_" class="st2" d="M275.3,141c-0.4-0.3-0.8-0.7-1.3-0.7c-0.2,0-0.4-0.2-0.6-0.6c-0.1-0.3-0.1-0.5,0-0.6
				c0.1-0.2,0.4-0.1,0.6,0.2c0.4,0.7,1.3,0.4,1.3,1.5C275.3,140.9,275.3,140.9,275.3,141z"/>
			<path id="XMLID_861_" class="st2" d="M258.6,127.7c-0.7-0.2-1.4-0.4-2.1-0.6c0.2-0.6,0.5-0.9,1-0.8
				C257.9,126.4,258.3,126.9,258.6,127.7z"/>
			<path id="XMLID_860_" class="st2" d="M168.4,85.3c0-0.4-0.3-0.5-0.5-0.5c-0.4-0.1-0.5-0.5-0.7-0.8c-0.1-0.2,0-0.3,0.1-0.4
				c0.2-0.2,0.4,0,0.7,0.3c0.2,0.3,0.5,0.5,0.7,0.6c0.2,0,0.6,0.1,0.5,0.5C169.1,85.4,169,86.1,168.4,85.3z"/>
			<path id="XMLID_859_" class="st2" d="M253.2,122.5c0.1-0.5,0.5-0.4,0.9-0.3c0.4,0.1,0.8,0.5,0.9,1c0.2,0.6-0.3,0.3-0.6,0.3
				C254,123.3,253.5,123.3,253.2,122.5z"/>
			<path id="XMLID_858_" class="st2" d="M164.3,72.4c1.3,0.7,2.1,1.7,2.4,3C166,74.3,165,73.7,164.3,72.4z"/>
			<path id="XMLID_857_" class="st2" d="M167.3,78c0,0.3-0.2,0.4-0.4,0.2c-0.5-0.4-0.8-1-0.9-1.5c-0.1-0.4,0.3-0.2,0.5-0.1
				C166.9,77,167.3,77.5,167.3,78z"/>
			<path id="XMLID_856_" class="st2" d="M159.2,71.8c-0.3,0.5-1.6,0.5-2.2,0.1C157.5,71.2,158.4,71.5,159.2,71.8z"/>
			<path id="XMLID_855_" class="st2" d="M180.7,128.3c-0.6-0.1-1-0.3-1.5-0.6c-0.2-0.1-0.5-0.2-0.5-0.6c0-0.3,0.2-0.4,0.5-0.2
				C179.7,127.3,180.1,127.6,180.7,128.3z"/>
			<path id="XMLID_854_" class="st2" d="M233.5,111.7c-0.4-0.1-0.6-0.4-0.9-0.7c-0.2-0.3-0.6-0.6-0.4-0.9c0.1-0.3,0.5-0.1,0.8,0
				c0.2,0.1,0.4,0.4,0.2,0.5C232.8,110.8,233.3,111.2,233.5,111.7z"/>
			<path id="XMLID_853_" class="st2" d="M266.8,195.8c0.3-0.6,0.7-0.7,1.2-0.6c0.1,0,0.3,0.1,0.4,0.3c0.1,0.2,0,0.3-0.1,0.4
				C267.9,196,267.5,196.2,266.8,195.8z"/>
			<path id="XMLID_852_" class="st2" d="M279.5,199.4c0.1,0.3,0,0.4-0.1,0.5c-0.2,0.2-0.4,0.4-0.8,0.2c-0.1-0.1-0.2-0.3-0.2-0.5
				c0-0.5,0.5-0.2,0.7-0.3C279.2,199.3,279.4,199.2,279.5,199.4z"/>
			<path id="XMLID_851_" class="st2" d="M247.6,173.1c0.3,0.4,0.4,0.8,0.4,1.2c0,0.3-0.2,0.4-0.4,0.2c-0.4-0.3-0.4-0.7-0.3-1
				C247.2,173.2,247.2,172.9,247.6,173.1z"/>
			<path id="XMLID_850_" class="st2" d="M175.4,76.9c0.4-0.1,0.8-0.3,1.2,0.3c0.5,0.7-0.1,0.5-0.4,0.5c-0.2,0-0.4-0.1-0.6-0.2
				c-0.1,0-0.2-0.1-0.2-0.1C175.4,77.2,175.4,77.1,175.4,76.9z"/>
			<path id="XMLID_849_" class="st2" d="M182.8,111.6c0.1,0,0.1-0.1,0.2-0.1c0.2,0.3,0.3,0.5,0.6,0.9c-0.5,0.1-1,0.1-1.5,0.2
				C182,111.7,182.8,112.1,182.8,111.6z"/>
			<path id="XMLID_848_" class="st2" d="M161,72.5c0.5,0.2,0.2-0.9,0.8-0.6c0.2,0.1,0.4,0.1,0.5,0.5c0,0.2-0.1,0.3-0.3,0.3
				C161.7,72.8,161.4,73,161,72.5z"/>
			<path id="XMLID_847_" class="st2" d="M176.8,85.9c-0.1,0-0.3,0-0.4-0.1c-0.3-0.1-0.7-0.1-0.9-0.7c0-0.1,0-0.3,0-0.3
				c0.3-0.1,0.6,0.3,0.9,0.6C176.6,85.5,176.7,85.6,176.8,85.9z"/>
			<path id="XMLID_846_" class="st2" d="M181.3,80.4c-0.2-0.2-0.5-0.2-0.6-0.5c-0.1-0.4,0.2-0.3,0.4-0.3c0.2,0,0.5,0.1,0.7,0.1
				C181.8,80.2,181.7,80.4,181.3,80.4z"/>
			<path id="XMLID_845_" class="st2" d="M168.4,85.3c0.4,0.2,0.6,0.1,0.7-0.3c0-0.3-0.2-0.4-0.4-0.5c0.1-0.1,0.1-0.2,0.2-0.2
				c0.6,0.4,0.6,0.8,0.4,1.1c-0.2,0.4-0.5,0.8-1.1-0.1C168.2,85.3,168.3,85.3,168.4,85.3z"/>
			<path id="XMLID_843_" class="st2" d="M143.5,79.4c0,0.2,0,0.3,0,0.3c-0.2,0.2-0.4,0.5-0.9,0.3c0,0-0.1-0.2-0.1-0.3
				C142.7,79.2,143.1,79.3,143.5,79.4z"/>
			<path id="XMLID_842_" class="st2" d="M286,213.7c0,0.2-0.1,0.3-0.3,0.2c-0.3-0.3-0.6-0.6-0.7-1c0-0.1,0.1-0.2,0.2-0.1
				C285.6,213,285.9,213.3,286,213.7z"/>
			<path id="XMLID_841_" class="st2" d="M253.2,122.5c0.4,0.5,0.8,0.6,1.2,0.9c0,0,0,0.1,0,0.1c-0.3,0-0.7,0-1-0.2
				C253,122.9,252.9,122.6,253.2,122.5z"/>
			<path id="XMLID_840_" class="st2" d="M235.4,111.2c0.5,0,0.8,0.4,1,0.4c0.1,0,0.4,0.1,0.5,0.4c0,0.3-0.3,0.3-0.5,0.1
				C236.1,112,235.9,111.7,235.4,111.2z"/>
			<path id="XMLID_839_" class="st2" d="M275.7,142.6c-0.3,0.1-0.6,0-0.9-0.5c-0.1-0.2-0.1-0.5,0-0.5
				C275.2,141.6,275.3,142.3,275.7,142.6z"/>
			<path id="XMLID_838_" class="st2" d="M237.8,113.5c-0.1,0.2-0.2,0.4-0.5,0.2c-0.2-0.2-0.3-0.5-0.3-0.8c0-0.3,0.1-0.3,0.3,0
				C237.5,113.1,237.9,113.1,237.8,113.5z"/>
			<path id="XMLID_837_" class="st2" d="M179.1,92.7c0.1,0.1,0.3,0.2,0.4,0.3c0.2,0.1,0.4,0.3,0.5,0.6c0,0.2,0,0.3-0.2,0.3
				c-0.2,0-0.4-0.1-0.6-0.5C179.4,93.2,179.2,93,179.1,92.7z"/>
			<path id="XMLID_836_" class="st2" d="M238.5,124.6c-0.2-0.2-0.5-0.5-0.5-0.8c0-0.2,0.2-0.1,0.3,0c0.2,0.2,0.5,0.5,0.5,0.8
				C238.8,124.8,238.6,124.7,238.5,124.6z"/>
			<path id="XMLID_835_" class="st2" d="M291.8,154.2c0.4-0.1,0.8-0.1,1.3,0.6C292.6,154.8,292.2,154.7,291.8,154.2z"/>
			<path id="XMLID_834_" class="st2" d="M265.7,175c-0.3-0.6-0.2-1,0.1-1.3C266,174.4,265.9,174.7,265.7,175z"/>
			<path id="XMLID_833_" class="st2" d="M140.6,78.9c0.1,0.1,0.1,0.2,0.2,0.3c-0.5,0.2-1.2,0.2-1.9-0.2
				C139.5,78.9,140,78.9,140.6,78.9z"/>
			<path id="XMLID_832_" class="st2" d="M243,207.7c-0.1,0.2-0.2,0.3-0.4,0.1c-0.3-0.2-0.4-0.5-0.5-0.8c0-0.2,0.1-0.2,0.3-0.1
				C242.6,207.1,242.9,207.3,243,207.7z"/>
			<path id="XMLID_831_" class="st2" d="M217.3,137.1c0.4,0,0.7,0.1,1,0.6c0.1,0.2,0.1,0.4-0.1,0.4
				C217.9,138,217.7,137.6,217.3,137.1z"/>
			<path id="XMLID_830_" class="st2" d="M141.6,104.3c0.3,0.4,0.6,0.8,0.6,1.3c0,0.2-0.2,0.1-0.3,0
				C141.4,105.1,141.7,104.8,141.6,104.3z"/>
			<path id="XMLID_829_" class="st2" d="M183.8,109.7c0,0.2-0.1,0.2-0.3,0.1c-0.3-0.2-0.5-0.4-0.6-0.8c0-0.2,0.1-0.2,0.3-0.1
				C183.5,109.2,183.7,109.4,183.8,109.7z"/>
			<path id="XMLID_828_" class="st2" d="M240.8,114.8c-0.1,0.3-0.4,0-0.6,0c-0.1,0-0.3-0.1-0.3-0.3c0.1-0.3,0.4-0.1,0.6-0.1
				C240.6,114.4,240.8,114.5,240.8,114.8z"/>
			<path id="XMLID_827_" class="st2" d="M185.9,81.9c-0.2,0-0.8-0.5-0.6,0.3c0,0.2-0.2,0.1-0.3,0c-0.3-0.2-0.2-0.5-0.3-0.7
				C185.1,81.3,185.5,81.6,185.9,81.9z"/>
			<path id="XMLID_826_" class="st2" d="M195.2,184c0,0.2-0.1,0.2-0.3,0.1c-0.3-0.1-0.5-0.4-0.6-0.7c-0.1-0.2,0.1-0.2,0.2-0.1
				C194.8,183.4,195,183.6,195.2,184z"/>
			<path id="XMLID_825_" class="st2" d="M222.2,107.6c-0.1,0.2-0.3,0.1-0.5,0c-0.2-0.1-0.4-0.2-0.3-0.5c0-0.3,0.2-0.2,0.4,0
				C222,107.2,222.1,107.4,222.2,107.6z"/>
			<path id="XMLID_824_" class="st2" d="M269.8,193.2c0,0.2-0.2,0.2-0.4,0.1c-0.2-0.1-0.4-0.2-0.5-0.5c0-0.2,0.2-0.2,0.4-0.1
				C269.5,192.8,269.7,192.9,269.8,193.2z"/>
			<path id="XMLID_823_" class="st2" d="M239.4,113.8c-0.2,0.3-0.3,0.5-0.7,0.4c-0.1-0.1-0.2-0.3-0.1-0.4
				C238.7,113.6,239,113.5,239.4,113.8z"/>
			<path id="XMLID_822_" class="st2" d="M233.6,122.6c-0.2-0.1-0.3-0.3-0.2-0.4c0.1-0.2,0.2-0.3,0.5-0.2c0.2,0.1,0.3,0.3,0.2,0.4
				C234,122.7,233.8,122.7,233.6,122.6z"/>
			<path id="XMLID_821_" class="st2" d="M178.5,173.8c-0.2-0.4-0.5-0.7-0.5-1.1c0-0.1,0.2-0.1,0.3,0
				C178.5,173.1,178.5,173.5,178.5,173.8z"/>
			<path id="XMLID_820_" class="st2" d="M235.3,144.9c0.3-0.1,0.4,0.1,0.5,0.4c0.1,0.3-0.1,0.2-0.3,0.2c-0.3-0.1-0.3,0.2-0.1,0.5
				c0.2,0.3,0.2,0.6,0.2,0.9c0,0.4,0.2,1-0.2,1c-0.4,0-0.9-0.3-1.4-0.9c-0.4-0.6-0.5-1.1-0.3-1.5c0.3-0.5,0.3-1.1-0.2-2
				c-0.2-0.4-0.3-0.8-0.4-1.2c-0.4-1.7,0.2-2.3,1.5-1.6c0.2,0.1,0.5,0.3,0.5,0.6c0,0.3,0,0.4-0.3,0.4c-0.7,0-0.8,0.5-0.3,1.4
				c0.2,0.4,0.3,0.7,0.3,1.1C235,144.6,235.1,144.9,235.3,144.9z"/>
			<path id="XMLID_819_" class="st2" d="M225.8,125.4c-0.5-0.2-0.6-0.6-0.6-1c-0.1-0.3,0.1-0.4,0.3-0.2c0.4,0.2,0.6,0.6,0.7,1.1
				C226.3,125.8,225.9,125.3,225.8,125.4z"/>
			<path id="XMLID_818_" class="st2" d="M238.3,144.8c-0.2-0.1-0.3-0.3-0.3-0.5c0-0.4,0.1-0.7,0.5-0.7c0.2,0,0.3,0.3,0.3,0.5
				C238.7,144.5,238.6,144.8,238.3,144.8z"/>
			<path id="XMLID_817_" class="st2" d="M173.2,105.8c-0.7-1.1-1.5-1.4-2.3-2c1.1-0.8,1.5-0.5,2.4,1.5c0.3,0.6,0.7,1.1,1.1,1.4
				c0.7,0.5,1,1,0.4,1.4c-0.1,0.1-0.1,0.2-0.2,0.3c-0.3-0.5-0.6-0.8-0.7-1.3c0-0.3-0.2-0.6-0.4-0.8c-0.3-0.2-0.4,0-0.5,0.2
				c-0.3,0.4-0.3,1.1-0.6,1.6C172,106.4,172.1,105.9,173.2,105.8z"/>
			<path id="XMLID_816_" class="st2" d="M174.6,109.8c0.6-0.5,1.7-0.5,2.5-0.1C176.3,109.6,175.5,109.7,174.6,109.8z"/>
		</g>
		<g id="XMLID_544_">
			<polygon id="XMLID_517_" class="st3" points="138.4,22.3 130.1,17.5 130.1,7.9 138.4,12.7 			"/>
			<polygon id="XMLID_542_" class="st4" points="150.9,29.5 142.6,24.7 142.6,15.1 150.9,19.9 			"/>
			<polygon id="XMLID_543_" class="st5" points="163.4,36.7 155.1,31.9 155.1,22.3 163.4,27.1 			"/>
		</g>
		<path id="XMLID_511_" class="st2" d="M235.2,75.6l-62.3-36c-0.9-0.5-1.7-2-1.7-3.3l0,0c0-1.3,0.8-1.8,1.7-1.3l62.3,36
			c0.9,0.5,1.7,2,1.7,3.3l0,0C236.9,75.6,236.1,76.2,235.2,75.6z"/>
	</g>
	<g id="XMLID_438_">
		<g id="seo">
			<path id="XMLID_415_" class="st3" d="M183.4,124.8v-2.4c0.4,0.6,0.8,1.1,1.2,1.5c0.4,0.4,0.9,0.8,1.3,1c0.3,0.2,0.5,0.3,0.7,0.3
				c0.2,0.1,0.4,0.1,0.5,0.1c0.1,0,0.2-0.1,0.3-0.2c0.1-0.1,0.1-0.2,0.1-0.4c0-0.2-0.1-0.4-0.2-0.7c-0.1-0.2-0.2-0.5-0.4-0.7
				c-0.2-0.2-0.4-0.5-0.6-0.8c-0.2-0.3-0.5-0.6-0.8-0.9c-0.7-0.8-1.3-1.5-1.6-2.2c-0.4-0.7-0.5-1.4-0.5-2.1c0-0.6,0.1-1,0.3-1.3
				c0.2-0.3,0.5-0.5,0.8-0.5c0.3-0.1,0.7,0,1.2,0.1c0.4,0.1,0.9,0.3,1.4,0.6c0.5,0.3,0.9,0.6,1.3,0.8c0.4,0.3,0.7,0.6,1,0.9v2.2
				c-0.2-0.2-0.3-0.4-0.5-0.6c-0.2-0.2-0.4-0.4-0.6-0.6c-0.2-0.2-0.4-0.3-0.6-0.5c-0.2-0.1-0.4-0.3-0.5-0.4
				c-0.2-0.1-0.5-0.2-0.7-0.3c-0.2-0.1-0.4-0.1-0.5-0.1c-0.1,0-0.2,0.1-0.3,0.2c-0.1,0.1-0.1,0.2-0.1,0.4c0,0.2,0,0.4,0.1,0.6
				c0.1,0.2,0.2,0.4,0.4,0.6c0.2,0.2,0.3,0.4,0.6,0.7c0.2,0.2,0.5,0.5,0.7,0.8c0.4,0.4,0.7,0.8,1,1.2c0.3,0.4,0.6,0.8,0.8,1.1
				c0.2,0.4,0.4,0.8,0.5,1.2c0.1,0.4,0.2,0.8,0.2,1.2c0,0.6-0.1,1-0.3,1.3c-0.2,0.3-0.5,0.5-0.8,0.5c-0.3,0.1-0.7,0-1.2-0.1
				c-0.4-0.1-0.9-0.4-1.4-0.7c-0.5-0.3-1-0.6-1.5-1C184.1,125.6,183.7,125.2,183.4,124.8z"/>
			<path id="XMLID_417_" class="st3" d="M196.9,133l-5.6-3.2V119l5.4,3.1v2l-3.3-1.9v2.4l3.1,1.8v2l-3.1-1.8v2.5l3.5,2V133z"/>
			<path id="XMLID_419_" class="st3" d="M202.3,136.3c-1.3-0.8-2.4-1.9-3.3-3.4c-0.8-1.5-1.3-3-1.3-4.7c0-1.7,0.4-2.8,1.3-3.4
				c0.9-0.6,2-0.4,3.4,0.4c1.3,0.8,2.4,1.9,3.2,3.4c0.8,1.5,1.2,3,1.2,4.7c0,1.7-0.4,2.8-1.3,3.4
				C204.8,137.2,203.7,137.1,202.3,136.3z M202.4,127.3c-0.7-0.4-1.3-0.4-1.8-0.1c-0.4,0.4-0.7,1.1-0.7,2.2c0,1.1,0.2,2,0.7,2.9
				c0.4,0.9,1,1.5,1.7,1.9c0.7,0.4,1.3,0.4,1.7,0.1c0.4-0.4,0.6-1.1,0.6-2.1c0-1.1-0.2-2.1-0.6-3S203.2,127.7,202.4,127.3z"/>
		</g>
		<g id="arrows">
			<g id="XMLID_737_">
				<path id="XMLID_739_" class="st4" d="M179.6,101.3c5.2-3.4,11.5-2.6,18.8,3.2c9.4,7.4,14.9,17.5,17,29.5
					c4.1,0.7,8.2,1.5,12.5,2.2c-2.9-14.7-9.5-28.1-20.3-39.1c-14.6-14.8-27.2-17.9-38.1-11.4c-0.8-1.2-1.7-2.6-2.6-3.9
					c-0.4-0.6-0.8-1.2-1.2-1.8c-1.8-2.7-3.9-3-4.2-0.5c-0.4,2.5-0.7,5.1-1,7.6c-0.7,5.2-1.4,10.4-2.1,15.6c-0.3,2.2,0.5,4.2,2.2,5.3
					c0.4,0.3,0.8,0.4,1.2,0.5c7,1.3,14,2.5,21.1,3.8c1,0.2,1.7-0.1,1.9-1.2c0.2-1.1-0.3-2.3-1.1-3.5
					C182.2,105.4,180.9,103.4,179.6,101.3z"/>
				<path id="XMLID_738_" class="st4" d="M220.1,166.4c1.1,1.7,2.3,3.5,3.5,5.3c0.8,1.3,1.7,2,2.7,2.2c1,0.1,1.4-0.6,1.5-1.7
					c1-7.6,2-15.2,3-22.8c0-0.1,0-0.3,0.1-0.4c0.5-3-1.6-5.3-3.8-5.7c-4.7-0.8-9.4-1.7-14.1-2.5c-2.2-0.4-4.4-0.8-6.6-1.2
					c-1-0.2-1.7,0-1.9,1.2c-0.2,1.2,0.3,2.4,1.1,3.7c1.4,2.1,2.7,4.2,4.2,6.4c-5.2,2.9-11.3,2-18.3-3.6
					c-9.4-7.4-14.8-17.4-16.9-29.4c-4.1-0.7-8.2-1.5-12.5-2.2c2.8,14.2,9.1,27.3,19.5,38.2C196.2,169,208.9,172.5,220.1,166.4z"/>
			</g>
			<g id="XMLID_734_">
				<path id="XMLID_736_" class="st3" d="M179.1,101.7c5.2-3.4,11.5-2.6,18.8,3.2c9.4,7.4,14.9,17.5,17,29.5
					c4.1,0.7,8.2,1.5,12.5,2.2c-2.9-14.7-9.5-28.1-20.3-39.1c-14.6-14.8-27.2-17.9-38.1-11.4c-0.8-1.2-1.7-2.6-2.6-3.9
					c-0.4-0.6-0.8-1.2-1.2-1.8c-1.8-2.7-3.9-3-4.2-0.5c-0.4,2.5-0.7,5.1-1,7.6c-0.7,5.2-1.4,10.4-2.1,15.6c-0.3,2.2,0.5,4.2,2.2,5.3
					c0.4,0.3,0.8,0.4,1.2,0.5c7,1.3,14,2.5,21.1,3.8c1,0.2,1.7-0.1,1.9-1.2c0.2-1.1-0.3-2.3-1.1-3.5
					C181.8,105.8,180.5,103.8,179.1,101.7z"/>
				<path id="XMLID_735_" class="st3" d="M219.7,166.9c1.1,1.7,2.3,3.5,3.5,5.3c0.8,1.3,1.7,2,2.7,2.2c1,0.1,1.4-0.6,1.5-1.7
					c1-7.6,2-15.2,3-22.8c0-0.1,0-0.3,0.1-0.4c0.5-3-1.6-5.3-3.8-5.7c-4.7-0.8-9.4-1.7-14.1-2.5c-2.2-0.4-4.4-0.8-6.6-1.2
					c-1-0.2-1.7,0-1.9,1.2c-0.2,1.2,0.3,2.4,1.1,3.7c1.4,2.1,2.7,4.2,4.2,6.4c-5.2,2.9-11.3,2-18.3-3.6
					c-9.4-7.4-14.8-17.4-16.9-29.4c-4.1-0.7-8.2-1.5-12.5-2.2c2.8,14.2,9.1,27.3,19.5,38.2C195.7,169.4,208.5,172.9,219.7,166.9z"/>
			</g>
		</g>
	</g>
</g>
<g id="keyboard">
	<defs>
		<filter id="Adobe_OpacityMaskFilter" filterUnits="userSpaceOnUse" x="0" y="179.6" width="213.9" height="87.2">
			<feFlood  style="flood-color:white;flood-opacity:1" result="back"/>
			<feBlend  in="SourceGraphic" in2="back" mode="normal"/>
		</filter>
	</defs>
	<mask maskUnits="userSpaceOnUse" x="0" y="179.6" width="213.9" height="87.2" id="XMLID_5_">
		<g id="XMLID_302_" class="st6">
			<defs>
				<filter id="Adobe_OpacityMaskFilter_1_" filterUnits="userSpaceOnUse" x="0" y="179.6" width="213.9" height="87.2">
					<feFlood  style="flood-color:white;flood-opacity:1" result="back"/>
					<feBlend  in="SourceGraphic" in2="back" mode="normal"/>
				</filter>
			</defs>
			<mask maskUnits="userSpaceOnUse" x="0" y="179.6" width="213.9" height="87.2" id="XMLID_5_">
				<g id="XMLID_557_" class="st7">
				</g>
			</mask>
			<linearGradient id="XMLID_6_" gradientUnits="userSpaceOnUse" x1="94.2781" y1="254.2103" x2="120.013" y2="213.1495">
				<stop  offset="1.254480e-02" style="stop-color:#FFFFFF"/>
				<stop  offset="1" style="stop-color:#000000"/>
			</linearGradient>
			<polygon id="XMLID_304_" class="st8" points="213.9,266.9 114.3,266.9 0,201.1 37.1,179.6 62.7,179.6 			"/>
		</g>
	</mask>
	<linearGradient id="XMLID_7_" gradientUnits="userSpaceOnUse" x1="94.2781" y1="254.2103" x2="120.013" y2="213.1495">
		<stop  offset="1.254480e-02" style="stop-color:#CBD2D9"/>
		<stop  offset="1" style="stop-color:#EEEEFA"/>
	</linearGradient>
	<polygon id="XMLID_3_" class="st9" points="213.9,266.9 114.3,266.9 0,201.1 37.1,179.6 62.7,179.6 	"/>
	<g id="XMLID_971_">
		<g id="XMLID_810_">
			<polygon id="XMLID_746_" class="st10" points="114.3,264.2 0.3,198.4 37.4,176.9 151.4,242.8 			"/>
		</g>
		<g id="XMLID_809_">
			<g id="XMLID_775_">
				<polygon id="XMLID_747_" class="st11" points="37.7,186.2 31.3,182.6 37.8,178.8 44.1,182.5 				"/>
				<polygon id="XMLID_959_" class="st4" points="37.7,186.2 37,185.9 43.5,182.1 44.1,182.5 				"/>
				<polygon id="XMLID_748_" class="st12" points="44.5,190.2 38.1,186.5 44.6,182.8 50.9,186.4 				"/>
				<polygon id="XMLID_749_" class="st12" points="51.3,194.1 45,190.4 51.4,186.7 57.7,190.4 				"/>
				<polygon id="XMLID_751_" class="st12" points="58.1,198 51.8,194.4 58.2,190.7 64.6,194.3 				"/>
				<polygon id="XMLID_755_" class="st12" points="64.9,202 58.6,198.3 65.1,194.6 71.4,198.3 				"/>
				<polygon id="XMLID_754_" class="st12" points="71.8,205.9 65.4,202.3 71.9,198.5 78.2,202.2 				"/>
				<polygon id="XMLID_753_" class="st12" points="78.6,209.8 72.2,206.2 78.7,202.5 85,206.1 				"/>
				<polygon id="XMLID_759_" class="st12" points="85.4,213.8 79.1,210.1 85.5,206.4 91.8,210.1 				"/>
				<polygon id="XMLID_758_" class="st12" points="92.2,217.7 85.9,214.1 92.3,210.3 98.7,214 				"/>
				<polygon id="XMLID_757_" class="st12" points="99,221.7 92.7,218 99.2,214.3 105.5,217.9 				"/>
				<polygon id="XMLID_756_" class="st12" points="105.9,225.6 99.5,221.9 106,218.2 112.3,221.9 				"/>
				<polygon id="XMLID_752_" class="st12" points="112.7,229.5 106.3,225.9 112.8,222.2 119.1,225.8 				"/>
				<polygon id="XMLID_750_" class="st12" points="119.5,233.5 113.2,229.8 119.6,226.1 125.9,229.8 				"/>
				<polygon id="XMLID_812_" class="st13" points="44.5,190.2 43.9,189.8 50.3,186.1 50.9,186.4 				"/>
				<polygon id="XMLID_813_" class="st13" points="51.3,194.1 50.7,193.8 57.1,190 57.7,190.4 				"/>
				<polygon id="XMLID_884_" class="st13" points="58.1,198 57.5,197.7 64,194 64.6,194.3 				"/>
				<polygon id="XMLID_814_" class="st13" points="64.9,202 64.3,201.6 70.8,197.9 71.4,198.3 				"/>
				<polygon id="XMLID_888_" class="st13" points="71.8,205.9 71.2,205.6 77.6,201.8 78.2,202.2 				"/>
				<polygon id="XMLID_887_" class="st13" points="78.6,209.8 78,209.5 84.4,205.8 85,206.1 				"/>
				<polygon id="XMLID_886_" class="st13" points="85.4,213.8 84.8,213.4 91.2,209.7 91.8,210.1 				"/>
				<polygon id="XMLID_885_" class="st13" points="92.2,217.7 91.6,217.4 98.1,213.7 98.7,214 				"/>
				<polygon id="XMLID_892_" class="st13" points="99,221.7 98.4,221.3 104.9,217.6 105.5,217.9 				"/>
				<polygon id="XMLID_891_" class="st13" points="105.9,225.6 105.3,225.2 111.7,221.5 112.3,221.9 				"/>
				<polygon id="XMLID_890_" class="st13" points="112.7,229.5 112.1,229.2 118.5,225.5 119.1,225.8 				"/>
				<polygon id="XMLID_889_" class="st13" points="119.5,233.5 118.9,233.1 125.3,229.4 125.9,229.7 				"/>
			</g>
			<polygon id="XMLID_773_" class="st2" points="34.2,192.2 24.5,186.5 30.9,182.8 40.6,188.4 			"/>
			<polygon id="XMLID_772_" class="st12" points="41,196.1 34.7,192.4 41.1,188.7 47.5,192.4 			"/>
			<polygon id="XMLID_771_" class="st12" points="47.8,200 41.5,196.4 47.9,192.7 54.3,196.3 			"/>
			<polygon id="XMLID_770_" class="st12" points="54.6,204 48.3,200.3 54.8,196.6 61.1,200.2 			"/>
			<polygon id="XMLID_769_" class="st12" points="61.5,207.9 55.1,204.2 61.6,200.5 67.9,204.2 			"/>
			<polygon id="XMLID_768_" class="st12" points="68.3,211.8 62,208.2 68.4,204.5 74.7,208.1 			"/>
			<polygon id="XMLID_767_" class="st12" points="75.1,215.8 68.8,212.1 75.2,208.4 81.6,212.1 			"/>
			<polygon id="XMLID_766_" class="st12" points="81.9,219.7 75.6,216.1 82,212.3 88.4,216 			"/>
			<polygon id="XMLID_765_" class="st12" points="88.7,223.7 82.4,220 88.9,216.3 95.2,219.9 			"/>
			<polygon id="XMLID_764_" class="st12" points="95.6,227.6 89.2,223.9 95.7,220.2 102,223.9 			"/>
			<polygon id="XMLID_763_" class="st12" points="102.4,231.5 96.1,227.9 102.5,224.2 108.8,227.8 			"/>
			<polygon id="XMLID_762_" class="st12" points="109.2,235.5 102.9,231.8 109.3,228.1 115.7,231.7 			"/>
			<polygon id="XMLID_761_" class="st12" points="116,239.4 109.7,235.7 116.1,232 122.5,235.7 			"/>
			<polygon id="XMLID_774_" class="st2" points="126.2,245.3 116.5,239.7 123,236 132.6,241.5 			"/>
			<polygon id="XMLID_789_" class="st2" points="29,197.1 17.6,190.5 24,186.8 35.5,193.4 			"/>
			<polygon id="XMLID_788_" class="st12" points="35.8,201 29.5,197.4 35.9,193.7 42.3,197.3 			"/>
			<polygon id="XMLID_787_" class="st12" points="42.7,205 36.3,201.3 42.8,197.6 49.1,201.3 			"/>
			<polygon id="XMLID_786_" class="st12" points="49.5,208.9 43.1,205.3 49.6,201.5 55.9,205.2 			"/>
			<polygon id="XMLID_785_" class="st12" points="56.3,212.9 50,209.2 56.4,205.5 62.7,209.1 			"/>
			<polygon id="XMLID_784_" class="st12" points="63.1,216.8 56.8,213.1 63.2,209.4 69.6,213.1 			"/>
			<polygon id="XMLID_783_" class="st12" points="69.9,220.7 63.6,217.1 70,213.4 76.4,217 			"/>
			<polygon id="XMLID_782_" class="st12" points="76.8,224.7 70.4,221 76.9,217.3 83.2,220.9 			"/>
			<polygon id="XMLID_781_" class="st12" points="83.6,228.6 77.2,224.9 83.7,221.2 90,224.9 			"/>
			<polygon id="XMLID_780_" class="st12" points="90.4,232.5 84.1,228.9 90.5,225.2 96.8,228.8 			"/>
			<polygon id="XMLID_779_" class="st12" points="97.2,236.5 90.9,232.8 97.3,229.1 103.7,232.8 			"/>
			<polygon id="XMLID_778_" class="st12" points="104,240.4 97.7,236.8 104.1,233 110.5,236.7 			"/>
			<polygon id="XMLID_777_" class="st2" points="119.3,249.2 104.5,240.7 111,237 125.7,245.5 			"/>
			<polygon id="XMLID_803_" class="st2" points="18.7,199.1 10.7,194.5 17.1,190.8 25.2,195.4 			"/>
			<polygon id="XMLID_802_" class="st12" points="25.6,203 19.2,199.4 25.7,195.7 32,199.3 			"/>
			<polygon id="XMLID_801_" class="st12" points="32.4,207 26,203.3 32.5,199.6 38.8,203.3 			"/>
			<polygon id="XMLID_800_" class="st12" points="39.2,210.9 32.9,207.3 39.3,203.5 45.6,207.2 			"/>
			<polygon id="XMLID_799_" class="st12" points="46,214.9 39.7,211.2 46.1,207.5 52.5,211.1 			"/>
			<polygon id="XMLID_798_" class="st12" points="52.8,218.8 46.5,215.1 52.9,211.4 59.3,215.1 			"/>
			<polygon id="XMLID_797_" class="st12" points="59.7,222.7 53.3,219.1 59.8,215.4 66.1,219 			"/>
			<polygon id="XMLID_796_" class="st12" points="66.5,226.7 60.1,223 66.6,219.3 72.9,223 			"/>
			<polygon id="XMLID_795_" class="st12" points="73.3,230.6 67,227 73.4,223.2 79.7,226.9 			"/>
			<polygon id="XMLID_794_" class="st12" points="80.1,234.5 73.8,230.9 80.2,227.2 86.6,230.8 			"/>
			<polygon id="XMLID_793_" class="st12" points="86.9,238.5 80.6,234.8 87,231.1 93.4,234.8 			"/>
			<polygon id="XMLID_792_" class="st12" points="93.8,242.4 87.4,238.8 93.9,235 100.2,238.7 			"/>
			<polygon id="XMLID_791_" class="st2" points="107.4,250.3 94.2,242.7 100.7,239 113.8,246.6 			"/>
			<polygon id="XMLID_880_" class="st2" points="11.9,203.1 3.8,198.4 10.3,194.7 18.3,199.4 			"/>
			<polygon id="XMLID_844_" class="st2" points="18.7,207 12.4,203.4 18.8,199.6 25.1,203.3 			"/>
			<polygon id="XMLID_815_" class="st2" points="25.5,211 19.2,207.3 25.6,203.6 31.9,207.2 			"/>
			<polygon id="XMLID_811_" class="st12" points="68,228.1 66.5,227.2 32.4,207.5 26,211.2 60.1,230.9 61.6,231.8 66.4,234.6 
				72.9,230.9 			"/>
			<polygon id="XMLID_808_" class="st2" points="73.2,238.5 66.9,234.9 73.4,231.1 79.7,234.8 			"/>
			<polygon id="XMLID_807_" class="st2" points="80.1,242.5 73.7,238.8 80.2,235.1 86.5,238.7 			"/>
			<polygon id="XMLID_806_" class="st2" points="86.9,246.4 80.6,242.7 87,239 93.3,242.7 			"/>
			<polygon id="XMLID_883_" class="st2" points="141.7,246.3 135.3,242.6 141.8,238.9 148.1,242.5 			"/>
			<polygon id="XMLID_882_" class="st2" points="134.8,250.2 128.5,246.6 134.9,242.9 141.2,246.5 			"/>
			<polygon id="XMLID_805_" class="st2" points="93.7,250.3 87.4,246.7 93.8,243 100.1,246.6 			"/>
			<polygon id="XMLID_881_" class="st2" points="114.2,254.2 107.9,250.6 114.3,246.9 120.7,250.5 			"/>
			<polygon id="XMLID_804_" class="st2" points="100.5,254.3 94.2,250.6 100.6,246.9 107,250.5 			"/>
			<polygon id="XMLID_790_" class="st2" points="107.3,258.2 101,254.5 107.5,250.8 113.8,254.5 			"/>
			<polygon id="XMLID_776_" class="st2" points="114.2,262.1 107.8,258.5 114.3,254.8 120.6,258.4 			"/>
			<polygon id="XMLID_760_" class="st2" points="133,241.3 120,233.8 126.4,230 139.5,237.6 			"/>
			<polygon id="XMLID_893_" class="st14" points="133,241.3 132.4,240.9 138.9,237.2 139.5,237.6 			"/>
			<polygon id="XMLID_894_" class="st14" points="141.7,246.3 141.1,245.9 147.5,242.2 148.1,242.5 			"/>
			<polygon id="XMLID_895_" class="st14" points="134.8,250.2 134.2,249.9 140.6,246.2 141.2,246.5 			"/>
			<polygon id="XMLID_897_" class="st14" points="126.2,245.3 125.6,244.9 132,241.2 132.6,241.5 			"/>
			<polygon id="XMLID_896_" class="st14" points="119.3,249.2 118.7,248.9 125.1,245.2 125.7,245.5 			"/>
			<polygon id="XMLID_899_" class="st14" points="114.2,254.2 113.6,253.9 120.1,250.2 120.7,250.5 			"/>
			<polygon id="XMLID_898_" class="st14" points="107.3,258.2 106.7,257.9 113.2,254.1 113.8,254.5 			"/>
			<polygon id="XMLID_902_" class="st14" points="114.2,262.1 113.6,261.8 120,258.1 120.6,258.4 			"/>
			<polygon id="XMLID_901_" class="st14" points="107.4,250.3 106.8,250 113.2,246.2 113.8,246.6 			"/>
			<polygon id="XMLID_900_" class="st14" points="100.5,254.3 99.9,253.9 106.4,250.2 107,250.5 			"/>
			<polygon id="XMLID_905_" class="st14" points="86.9,246.4 86.3,246 92.7,242.3 93.3,242.7 			"/>
			<polygon id="XMLID_904_" class="st14" points="93.7,250.3 93.1,250 99.5,246.3 100.1,246.6 			"/>
			<polygon id="XMLID_903_" class="st14" points="80.1,242.5 79.5,242.1 85.9,238.4 86.5,238.7 			"/>
			<polygon id="XMLID_906_" class="st14" points="73.2,238.5 72.6,238.2 79.1,234.5 79.7,234.8 			"/>
			<polygon id="XMLID_947_" class="st13" points="41,196.1 40.4,195.8 46.9,192 47.5,192.4 			"/>
			<polygon id="XMLID_946_" class="st13" points="47.8,200 47.2,199.7 53.7,196 54.3,196.3 			"/>
			<polygon id="XMLID_945_" class="st13" points="54.7,204 54.1,203.6 60.5,199.9 61.1,200.3 			"/>
			<polygon id="XMLID_944_" class="st13" points="61.5,207.9 60.9,207.6 67.3,203.8 67.9,204.2 			"/>
			<polygon id="XMLID_943_" class="st13" points="68.3,211.9 67.7,211.5 74.1,207.8 74.7,208.1 			"/>
			<polygon id="XMLID_942_" class="st13" points="75.1,215.8 74.5,215.4 81,211.7 81.6,212.1 			"/>
			<polygon id="XMLID_941_" class="st13" points="81.9,219.7 81.3,219.4 87.8,215.7 88.4,216 			"/>
			<polygon id="XMLID_940_" class="st13" points="88.8,223.7 88.2,223.3 94.6,219.6 95.2,219.9 			"/>
			<polygon id="XMLID_939_" class="st13" points="95.6,227.6 95,227.2 101.4,223.5 102,223.9 			"/>
			<polygon id="XMLID_938_" class="st13" points="102.4,231.5 101.8,231.2 108.2,227.5 108.8,227.8 			"/>
			<polygon id="XMLID_914_" class="st13" points="109.2,235.5 108.6,235.1 115.1,231.4 115.7,231.8 			"/>
			<polygon id="XMLID_913_" class="st13" points="116,239.4 115.4,239.1 121.9,235.3 122.5,235.7 			"/>
			<polygon id="XMLID_958_" class="st13" points="35.8,201 35.2,200.7 41.7,197 42.3,197.3 			"/>
			<polygon id="XMLID_957_" class="st13" points="42.7,205 42.1,204.6 48.5,200.9 49.1,201.3 			"/>
			<polygon id="XMLID_956_" class="st13" points="49.5,208.9 48.9,208.6 55.3,204.9 55.9,205.2 			"/>
			<polygon id="XMLID_955_" class="st13" points="56.3,212.9 55.7,212.5 62.1,208.8 62.7,209.1 			"/>
			<polygon id="XMLID_954_" class="st13" points="63.1,216.8 62.5,216.4 69,212.7 69.6,213.1 			"/>
			<polygon id="XMLID_953_" class="st13" points="69.9,220.7 69.3,220.4 75.8,216.7 76.4,217 			"/>
			<polygon id="XMLID_952_" class="st13" points="76.8,224.7 76.2,224.3 82.6,220.6 83.2,220.9 			"/>
			<polygon id="XMLID_951_" class="st13" points="83.6,228.6 83,228.3 89.4,224.5 90,224.9 			"/>
			<polygon id="XMLID_950_" class="st13" points="90.4,232.5 89.8,232.2 96.2,228.5 96.8,228.8 			"/>
			<polygon id="XMLID_949_" class="st13" points="97.2,236.5 96.6,236.1 103,232.4 103.6,232.8 			"/>
			<polygon id="XMLID_948_" class="st13" points="104,240.4 103.4,240.1 109.9,236.3 110.5,236.7 			"/>
			<polygon id="XMLID_970_" class="st13" points="25.6,203.1 25,202.7 31.4,199 32,199.3 			"/>
			<polygon id="XMLID_969_" class="st13" points="32.4,207 31.8,206.6 38.2,202.9 38.8,203.3 			"/>
			<polygon id="XMLID_968_" class="st13" points="39.2,210.9 38.6,210.6 45,206.9 45.7,207.2 			"/>
			<polygon id="XMLID_967_" class="st13" points="46,214.9 45.4,214.5 51.9,210.8 52.5,211.1 			"/>
			<polygon id="XMLID_966_" class="st13" points="52.9,218.8 52.2,218.5 58.7,214.7 59.3,215.1 			"/>
			<polygon id="XMLID_965_" class="st13" points="59.7,222.7 59.1,222.4 65.5,218.7 66.1,219 			"/>
			<polygon id="XMLID_964_" class="st13" points="66.5,226.7 65.9,226.3 72.3,222.6 72.9,223 			"/>
			<polygon id="XMLID_963_" class="st13" points="73.3,230.6 72.7,230.3 79.1,226.5 79.7,226.9 			"/>
			<polygon id="XMLID_962_" class="st13" points="80.1,234.5 79.5,234.2 86,230.5 86.6,230.8 			"/>
			<polygon id="XMLID_961_" class="st13" points="86.9,238.5 86.3,238.1 92.8,234.4 93.4,234.8 			"/>
			<polygon id="XMLID_960_" class="st13" points="93.8,242.4 93.2,242.1 99.6,238.4 100.2,238.7 			"/>
			<polygon id="XMLID_972_" class="st13" points="66.4,234.6 65.8,234.2 72.3,230.5 72.9,230.9 			"/>
		</g>
		<polygon id="XMLID_909_" class="st14" points="25.5,211 24.9,210.6 31.3,206.9 31.9,207.2 		"/>
		<polygon id="XMLID_908_" class="st14" points="18.7,207 18.1,206.7 24.5,203 25.1,203.3 		"/>
		<polygon id="XMLID_907_" class="st14" points="11.9,203.1 11.3,202.7 17.7,199 18.3,199.4 		"/>
		<polygon id="XMLID_910_" class="st14" points="18.7,199.1 18.1,198.8 24.6,195 25.2,195.4 		"/>
		<polygon id="XMLID_911_" class="st14" points="29,197.1 28.4,196.8 34.9,193 35.5,193.4 		"/>
		<polygon id="XMLID_912_" class="st14" points="34.2,192.2 33.6,191.8 40,188.1 40.6,188.4 		"/>
	</g>
	<linearGradient id="XMLID_8_" gradientUnits="userSpaceOnUse" x1="57.6734" y1="231.9246" x2="56.401" y2="234.1331">
		<stop  offset="1.100000e-07" style="stop-color:#FF82AC"/>
		<stop  offset="1" style="stop-color:#A14F9C"/>
	</linearGradient>
	<polygon id="XMLID_440_" class="st15" points="114.3,264.2 0.3,198.4 0.3,201.1 114.3,266.9 	"/>
	<linearGradient id="XMLID_9_" gradientUnits="userSpaceOnUse" x1="132.2567" y1="253.8185" x2="133.5912" y2="256.1432">
		<stop  offset="1.100000e-07" style="stop-color:#FF70AC"/>
		<stop  offset="0.4898" style="stop-color:#BC58A0"/>
		<stop  offset="1" style="stop-color:#7A4195"/>
	</linearGradient>
	<polygon id="XMLID_449_" class="st16" points="114.3,264.2 114.3,266.9 151.4,245.5 151.4,242.8 	"/>
</g>
<g id="elements">
	<g id="XMLID_470_">
		<polygon id="XMLID_441_" class="st17" points="157.8,173.4 92.1,135.5 92.1,89.3 157.8,127.2 		"/>
		<polygon id="XMLID_521_" class="st12" points="152.7,167.5 87.1,129.6 87.1,83.4 152.7,121.3 		"/>
		<polygon id="XMLID_520_" class="st18" points="152.7,127.2 87.1,89.3 87.1,83.4 152.7,121.3 		"/>
		<g id="XMLID_528_">
			<path id="XMLID_522_" class="st19" d="M103.8,107.9c0,2.2-1.5,3-3.4,2c-1.9-1.1-3.4-3.7-3.4-5.9c0-2.2,1.5-3,3.4-2
				C102.3,103.1,103.8,105.7,103.8,107.9z"/>
			<path id="XMLID_523_" class="st2" d="M141.7,131.2l-33.4-19.3c-0.6-0.4-1.1-1.3-1.1-2.1l0,0c0-0.8,0.5-1.2,1.1-0.8l33.4,19.3
				c0.6,0.4,1.1,1.3,1.1,2.1l0,0C142.8,131.2,142.3,131.6,141.7,131.2z"/>
			<path id="XMLID_525_" class="st4" d="M103.8,119.1c0,2.2-1.5,3-3.4,2c-1.9-1.1-3.4-3.7-3.4-5.9c0-2.2,1.5-3,3.4-2
				C102.3,114.3,103.8,116.9,103.8,119.1z"/>
			<path id="XMLID_524_" class="st2" d="M141.7,142.4l-33.4-19.3c-0.6-0.4-1.1-1.3-1.1-2.1l0,0c0-0.8,0.5-1.2,1.1-0.8l33.4,19.3
				c0.6,0.4,1.1,1.3,1.1,2.1l0,0C142.8,142.4,142.3,142.7,141.7,142.4z"/>
			<path id="XMLID_527_" class="st5" d="M103.8,130.2c0,2.2-1.5,3-3.4,2c-1.9-1.1-3.4-3.7-3.4-5.9c0-2.2,1.5-3,3.4-2
				C102.3,125.4,103.8,128.1,103.8,130.2z"/>
			<path id="XMLID_526_" class="st2" d="M141.7,153.5l-33.4-19.3c-0.6-0.4-1.1-1.3-1.1-2.1l0,0c0-0.8,0.5-1.2,1.1-0.8l33.4,19.3
				c0.6,0.4,1.1,1.3,1.1,2.1l0,0C142.8,153.5,142.3,153.9,141.7,153.5z"/>
		</g>
		<linearGradient id="XMLID_10_" gradientUnits="userSpaceOnUse" x1="120.8005" y1="102.2667" x2="122.0491" y2="100.1309">
			<stop  offset="1.100000e-07" style="stop-color:#FF82AC"/>
			<stop  offset="1" style="stop-color:#A14F9C"/>
		</linearGradient>
		<polygon id="XMLID_422_" class="st20" points="152.7,121.3 87.1,83.4 89.7,81.8 155.3,119.7 		"/>
		<linearGradient id="XMLID_11_" gradientUnits="userSpaceOnUse" x1="152.6995" y1="143.614" x2="155.35" y2="143.614">
			<stop  offset="1.100000e-07" style="stop-color:#FF70AC"/>
			<stop  offset="0.4898" style="stop-color:#BC58A0"/>
			<stop  offset="1" style="stop-color:#7A4195"/>
		</linearGradient>
		<polygon id="XMLID_2_" class="st21" points="155.3,165.9 152.7,167.5 152.7,121.3 155.3,119.7 		"/>
	</g>
	<g id="XMLID_444_">
		<g id="XMLID_743_">
			<g id="XMLID_519_">
				<g id="XMLID_727_">
					<polygon id="XMLID_427_" class="st17" points="284.7,194.4 284.7,199.3 276.3,189.6 244.9,171.5 244.9,147.1 284.7,170.1 					
						"/>
					<polygon id="XMLID_707_" class="st12" points="280.7,189.4 280.7,194.3 272.3,184.6 240.9,166.4 240.9,142.1 280.7,165 					
						"/>
					<polygon id="XMLID_706_" class="st18" points="280.7,168.1 241,145.2 241,142.1 280.7,165 					"/>
				</g>
				<g id="XMLID_516_">
					<path id="XMLID_497_" class="st2" d="M254.9,162.9c0,1.8-1.3,2.5-2.8,1.6c-1.5-0.9-2.8-3.1-2.8-4.8c0-1.8,1.3-2.5,2.8-1.6
						C253.7,159,254.9,161.1,254.9,162.9z"/>
					<path id="XMLID_513_" class="st2" d="M263.6,167.9c0,1.8-1.3,2.5-2.8,1.6c-1.5-0.9-2.8-3.1-2.8-4.8s1.3-2.5,2.8-1.6
						C262.3,164,263.6,166.1,263.6,167.9z"/>
					<path id="XMLID_514_" class="st2" d="M272.2,172.9c0,1.8-1.3,2.5-2.8,1.6c-1.5-0.9-2.8-3.1-2.8-4.8c0-1.8,1.3-2.5,2.8-1.6
						C270.9,168.9,272.2,171.1,272.2,172.9z"/>
				</g>
			</g>
		</g>
		<linearGradient id="XMLID_12_" gradientUnits="userSpaceOnUse" x1="261.4914" y1="153.4469" x2="262.4308" y2="151.84">
			<stop  offset="1.100000e-07" style="stop-color:#FF82AC"/>
			<stop  offset="1" style="stop-color:#A14F9C"/>
		</linearGradient>
		<polygon id="XMLID_448_" class="st22" points="280.7,165 240.9,142.1 242.9,140.8 282.7,163.8 		"/>
		<linearGradient id="XMLID_13_" gradientUnits="userSpaceOnUse" x1="280.6542" y1="179.0607" x2="282.7082" y2="179.0607">
			<stop  offset="1.100000e-07" style="stop-color:#FF70AC"/>
			<stop  offset="0.4898" style="stop-color:#BC58A0"/>
			<stop  offset="1" style="stop-color:#7A4195"/>
		</linearGradient>
		<polygon id="XMLID_447_" class="st23" points="282.7,193.1 280.7,194.3 280.7,165 282.7,163.8 		"/>
	</g>
	<g id="XMLID_437_">
		<defs>
			<filter id="Adobe_OpacityMaskFilter_2_" filterUnits="userSpaceOnUse" x="159.9" y="201.3" width="102.6" height="37.9">
				<feFlood  style="flood-color:white;flood-opacity:1" result="back"/>
				<feBlend  in="SourceGraphic" in2="back" mode="normal"/>
			</filter>
		</defs>
		<mask maskUnits="userSpaceOnUse" x="159.9" y="201.3" width="102.6" height="37.9" id="XMLID_14_">
			<g id="XMLID_129_" class="st24">
				<defs>
					<filter id="Adobe_OpacityMaskFilter_3_" filterUnits="userSpaceOnUse" x="159.9" y="201.3" width="102.6" height="37.9">
						<feFlood  style="flood-color:white;flood-opacity:1" result="back"/>
						<feBlend  in="SourceGraphic" in2="back" mode="normal"/>
					</filter>
				</defs>
				<mask maskUnits="userSpaceOnUse" x="159.9" y="201.3" width="102.6" height="37.9" id="XMLID_14_">
					<g id="XMLID_553_" class="st25">
					</g>
				</mask>
				<linearGradient id="XMLID_15_" gradientUnits="userSpaceOnUse" x1="206.938" y1="224.0603" x2="243.7346" y2="191.4613">
					<stop  offset="1.254480e-02" style="stop-color:#FFFFFF"/>
					<stop  offset="1" style="stop-color:#000000"/>
				</linearGradient>
				<polygon id="XMLID_131_" class="st26" points="196.9,201.3 159.9,201.3 225.5,239.2 262.5,239.2 				"/>
			</g>
		</mask>
		<linearGradient id="XMLID_16_" gradientUnits="userSpaceOnUse" x1="206.938" y1="224.0603" x2="243.7346" y2="191.4613">
			<stop  offset="1.254480e-02" style="stop-color:#CBD2D9"/>
			<stop  offset="1" style="stop-color:#EEEEFA"/>
		</linearGradient>
		<polygon id="XMLID_512_" class="st27" points="196.9,201.3 159.9,201.3 225.5,239.2 262.5,239.2 		"/>
		<g id="XMLID_745_">
			<g id="XMLID_574_">
				<polygon id="XMLID_547_" class="st12" points="225.5,239.2 159.9,201.3 159.9,155.2 225.5,193.1 				"/>
				<polygon id="XMLID_545_" class="st18" points="225.5,198.9 159.9,161 159.9,155.2 225.5,193.1 				"/>
				<g id="XMLID_549_">
					<path id="XMLID_578_" class="st19" d="M165.7,196.5c-0.1-0.1-0.2-0.2-0.4-0.3c-0.5-0.5-0.8-1.3-0.6-1.8
						c0.2-0.5,4.6-11.2,12.4-10.6c8.9,0.7,19,9.8,21.9,12.6c4.4,4.2,14.2,11.1,19.9,6.6c0.4-0.3,1,0,1.4,0.7
						c0.4,0.6,0.5,1.4,0.1,1.7c-6.3,5-17.2-2.4-22-7.1c-2.7-2.6-12.2-11.2-20.5-11.8c-7-0.6-11.3,9.8-11.4,9.9
						C166.5,196.7,166.1,196.7,165.7,196.5z"/>
				</g>
				<g id="XMLID_572_">
					<path id="XMLID_577_" class="st4" d="M199.1,211.8c-5-2.9-7.3-7.4-9.5-11.7c-1.7-3.4-3.6-6.9-6.8-10c-7-6.9-12.7-2.7-12.8-2.7
						c-0.4,0.3-1,0-1.4-0.7c-0.4-0.7-0.5-1.4-0.1-1.7c0.3-0.2,6.7-4.9,14.9,3.3c3.7,3.6,5.8,7.6,7.6,11.2c2.2,4.3,4,7.7,8,10
						c4.4,2.5,6.3-0.8,8.8-5c1.6-2.8,3.5-6,6.5-8c0.4-0.2,1,0.1,1.4,0.8c0.4,0.7,0.4,1.4,0,1.6c-2.8,1.8-4.6,4.9-6.2,7.6
						C207.1,210.9,204.7,215,199.1,211.8z"/>
				</g>
				<g id="XMLID_548_">
					<path id="XMLID_575_" class="st5" d="M183.3,206.7l-10.8-6.2c-0.5-0.3-1-1.1-1-1.7c0-0.6,0.4-0.9,1-0.6l10.8,6.2
						c6,3.5,18.3,5.4,18.3-10.7c0-0.6,0.4-0.9,1-0.6c0.5,0.3,1,1.1,1,1.7C203.7,212.7,190,210.5,183.3,206.7z"/>
				</g>
			</g>
		</g>
		<linearGradient id="XMLID_17_" gradientUnits="userSpaceOnUse" x1="193.6631" y1="174.0466" x2="194.9117" y2="171.9108">
			<stop  offset="1.100000e-07" style="stop-color:#FF82AC"/>
			<stop  offset="1" style="stop-color:#A14F9C"/>
		</linearGradient>
		<polygon id="XMLID_434_" class="st28" points="225.6,193.1 159.9,155.2 162.6,153.6 228.2,191.5 		"/>
		<linearGradient id="XMLID_18_" gradientUnits="userSpaceOnUse" x1="225.5621" y1="215.3938" x2="228.2126" y2="215.3938">
			<stop  offset="1.100000e-07" style="stop-color:#FF70AC"/>
			<stop  offset="0.4898" style="stop-color:#BC58A0"/>
			<stop  offset="1" style="stop-color:#7A4195"/>
		</linearGradient>
		<polygon id="XMLID_433_" class="st29" points="228.2,237.7 225.6,239.3 225.6,193.1 228.2,191.5 		"/>
	</g>
	<g id="XMLID_469_">
		<polygon id="XMLID_442_" class="st17" points="134.6,92.6 69,54.7 69,8.5 134.6,46.4 		"/>
		<linearGradient id="XMLID_19_" gradientUnits="userSpaceOnUse" x1="97.2069" y1="20.4433" x2="98.4555" y2="18.3075">
			<stop  offset="1.100000e-07" style="stop-color:#FF82AC"/>
			<stop  offset="1" style="stop-color:#A14F9C"/>
		</linearGradient>
		<polygon id="XMLID_425_" class="st30" points="129.1,39.5 63.5,1.6 66.1,0 131.8,37.9 		"/>
		<linearGradient id="XMLID_20_" gradientUnits="userSpaceOnUse" x1="129.1059" y1="61.7906" x2="131.7564" y2="61.7906">
			<stop  offset="1.100000e-07" style="stop-color:#FF70AC"/>
			<stop  offset="0.4898" style="stop-color:#BC58A0"/>
			<stop  offset="1" style="stop-color:#7A4195"/>
		</linearGradient>
		<polygon id="XMLID_445_" class="st31" points="131.8,84.1 129.1,85.7 129.1,39.5 131.8,37.9 		"/>
		<g id="XMLID_741_">
			<g id="XMLID_581_">
				<g id="XMLID_730_">
					<polygon id="XMLID_729_" class="st12" points="129.1,85.7 63.5,47.8 63.5,1.6 129.1,39.5 					"/>
					<polygon id="XMLID_728_" class="st18" points="129.1,45.4 63.5,7.5 63.5,1.6 129.1,39.5 					"/>
				</g>
				<g id="XMLID_726_">
					<g id="XMLID_724_">
						<g id="XMLID_715_">
							<path id="XMLID_716_" class="st19" d="M111.7,42.2c-6-3.5-10.9-0.7-10.9,6.3c0,7,4.9,15.5,10.9,19c6,3.5,10.9,0.7,10.9-6.3
								S117.8,45.7,111.7,42.2z M111.7,63c-3.9-2.3-7.1-7.8-7.1-12.3c0-4.5,3.2-6.3,7.1-4.1c3.9,2.3,7.1,7.8,7.1,12.3
								S115.6,65.3,111.7,63z"/>
						</g>
						<g id="XMLID_719_">
							<path id="XMLID_731_" class="st4" d="M111.7,42.2v4.5c3.9,2.3,7.1,7.8,7.1,12.3l3.9,2.2C122.7,54.2,117.8,45.7,111.7,42.2z"
								/>
						</g>
						<g id="XMLID_721_">
							<path id="XMLID_722_" class="st5" d="M117.8,54.2c0.6,1.6,1,3.2,1,4.8l3.9,2.2c0-2.3-0.5-4.7-1.4-7.1L117.8,54.2z"/>
						</g>
					</g>
					<g id="XMLID_725_">
						<g id="XMLID_710_">
							<path id="XMLID_713_" class="st19" d="M80.9,24.4c-6-3.5-10.9-0.7-10.9,6.3s4.9,15.5,10.9,19c6,3.5,10.9,0.7,10.9-6.3
								S86.9,27.9,80.9,24.4z M80.9,45.2c-3.9-2.3-7.1-7.8-7.1-12.3s3.2-6.3,7.1-4.1c3.9,2.3,7.1,7.8,7.1,12.3
								C87.9,45.6,84.8,47.5,80.9,45.2z"/>
						</g>
						<g id="XMLID_708_">
							<path id="XMLID_723_" class="st4" d="M80.9,24.4v4.5c3.9,2.3,7.1,7.8,7.1,12.3c0,4.5-3.2,6.3-7.1,4.1
								c-3.9-2.3-7.1-7.8-7.1-12.3l-3.9-2.2c0,7,4.9,15.5,10.9,19c6,3.5,10.9,0.7,10.9-6.3S86.9,27.9,80.9,24.4z"/>
						</g>
						<g id="XMLID_709_">
							<path id="XMLID_714_" class="st5" d="M80.9,24.4v4.5c2,1.1,3.7,3.1,5,5.3l2.7-1.6C86.6,29.1,83.9,26.1,80.9,24.4z"/>
						</g>
					</g>
				</g>
			</g>
		</g>
	</g>
	<g id="XMLID_436_">
		<polygon id="XMLID_443_" class="st17" points="325.9,177.2 260.3,139.3 260.3,93.1 325.9,131 		"/>
		<linearGradient id="XMLID_21_" gradientUnits="userSpaceOnUse" x1="288.2228" y1="104.7866" x2="289.4713" y2="102.6508">
			<stop  offset="1.100000e-07" style="stop-color:#FF82AC"/>
			<stop  offset="1" style="stop-color:#A14F9C"/>
		</linearGradient>
		<polygon id="XMLID_424_" class="st32" points="320.1,123.9 254.5,86 257.1,84.3 322.8,122.2 		"/>
		<linearGradient id="XMLID_22_" gradientUnits="userSpaceOnUse" x1="320.1218" y1="146.1339" x2="322.7723" y2="146.1339">
			<stop  offset="1.100000e-07" style="stop-color:#FF70AC"/>
			<stop  offset="0.4898" style="stop-color:#BC58A0"/>
			<stop  offset="1" style="stop-color:#7A4195"/>
		</linearGradient>
		<polygon id="XMLID_423_" class="st33" points="322.8,168.4 320.1,170 320.1,123.9 322.8,122.2 		"/>
		<g id="XMLID_426_">
			<g id="XMLID_742_">
				<g id="XMLID_580_">
					<polygon id="XMLID_702_" class="st12" points="320.1,170 254.5,132.1 254.5,86 320.1,123.9 					"/>
					<polygon id="XMLID_703_" class="st18" points="320.1,129.7 254.5,91.8 254.5,86 320.1,123.9 					"/>
					<g id="XMLID_705_">
						<polygon id="XMLID_609_" class="st19" points="274.9,136.5 271.5,134.6 271.5,113.2 274.9,115.1 						"/>
						<polygon id="XMLID_610_" class="st4" points="278.2,138.4 274.9,136.5 274.9,124.1 278.2,126 						"/>
						<polygon id="XMLID_697_" class="st4" points="303.1,152.8 299.8,150.8 299.8,126.2 303.1,128.1 						"/>
						<polygon id="XMLID_698_" class="st4" points="303.1,152.8 299.8,150.8 299.8,126.2 303.1,128.1 						"/>
						<polygon id="XMLID_653_" class="st19" points="299.8,150.8 296.5,148.9 296.5,137.5 299.8,139.4 						"/>
						<polygon id="XMLID_651_" class="st4" points="291.4,146 288.1,144.1 288.1,130.2 291.4,132.1 						"/>
						<polygon id="XMLID_613_" class="st4" points="284.8,142.2 281.5,140.3 281.5,122.3 284.8,124.2 						"/>
						<polygon id="XMLID_614_" class="st5" points="288.1,144.1 284.8,142.2 284.8,132.4 288.1,134.3 						"/>
						<polygon id="XMLID_628_" class="st19" points="281.5,140.3 278.2,138.4 278.2,132.2 281.5,134.1 						"/>
					</g>
				</g>
			</g>
		</g>
	</g>
	<g id="XMLID_458_">
		<linearGradient id="XMLID_24_" gradientUnits="userSpaceOnUse" x1="205.0419" y1="32.8903" x2="206.2905" y2="30.7544">
			<stop  offset="1.100000e-07" style="stop-color:#FF82AC"/>
			<stop  offset="1" style="stop-color:#A14F9C"/>
		</linearGradient>
		<polygon id="XMLID_446_" class="st34" points="236.9,52 171.3,14.1 173.9,12.4 239.6,50.3 		"/>
		<linearGradient id="XMLID_26_" gradientUnits="userSpaceOnUse" x1="236.9409" y1="74.2374" x2="239.5914" y2="74.2374">
			<stop  offset="1.100000e-07" style="stop-color:#FF70AC"/>
			<stop  offset="0.4898" style="stop-color:#BC58A0"/>
			<stop  offset="1" style="stop-color:#7A4195"/>
		</linearGradient>
		<polygon id="XMLID_435_" class="st35" points="239.6,96.5 236.9,98.1 236.9,52 239.6,50.3 		"/>
		<g id="XMLID_439_">
			<g id="XMLID_744_">
				<g id="XMLID_535_">
					<polygon id="XMLID_412_" class="st17" points="242.3,104.8 176.7,66.9 176.7,20.7 242.3,58.6 					"/>
					<polygon id="XMLID_531_" class="st12" points="236.9,98.1 171.3,60.2 171.3,14.1 236.9,52 					"/>
					<polygon id="XMLID_530_" class="st18" points="236.9,57.8 171.3,19.9 171.3,14.1 236.9,52 					"/>
					<g id="XMLID_701_">
						
							<ellipse id="XMLID_699_" transform="matrix(0.866 -0.5 0.5 0.866 -0.3162 109.4724)" class="st4" cx="204.1" cy="55.3" rx="9.4" ry="16.3"/>
						<polygon id="XMLID_700_" class="st3" points="199.7,61.6 199.7,43.9 212.5,60.2 						"/>
					</g>
					<g id="XMLID_534_">
						<polygon id="XMLID_532_" class="st2" points="228.9,85.9 179.3,57.2 179.3,61.8 228.9,90.5 						"/>
						<polygon id="XMLID_533_" class="st4" points="190.6,63.7 179.3,57.2 179.3,61.8 190.6,68.3 						"/>
					</g>
				</g>
			</g>
		</g>
	</g>
	<g id="XMLID_505_">
		
			<ellipse id="XMLID_503_" transform="matrix(0.866 -0.5 0.5 0.866 4.7407 144.0538)" class="st4" cx="271.2" cy="63.2" rx="9.4" ry="16.3"/>
		<g id="XMLID_502_">
			<path id="XMLID_600_" class="st3" d="M270,70.1c-0.7-0.2-1.2-0.6-1.4-1.6c-0.3-1.4-0.7-2.8-1.1-4.1c-0.1-0.5-0.4-0.9-0.7-1.2
				c-1-0.9-2-1.8-3.1-2.7c-0.4-0.3-0.6-0.7-0.5-1.1c0-0.8,0-1.7,0-2.6c0-0.2,0.2-0.5,0.4-0.5c4,1.1,8,2.2,12,3.3
				c0,0,0.1,0.1,0.2,0.1c0,3.7,0,7.4,0,11.3c-1.8-1.6-3.5-3-5.3-4.6C270.3,67.7,270.2,68.9,270,70.1z"/>
			<path id="XMLID_599_" class="st3" d="M277.5,72.4c-1.1-0.8-1.1-0.8-1.1-1.9c0-3.2,0-6.4,0-9.6c0-1.1,0-1.1,1.1-0.7
				C277.5,64.3,277.5,68.3,277.5,72.4z"/>
		</g>
	</g>
</g>
<g id="woman">
	<defs>
		<filter id="Adobe_OpacityMaskFilter_4_" filterUnits="userSpaceOnUse" x="116.6" y="192.6" width="43.9" height="9.1">
			<feFlood  style="flood-color:white;flood-opacity:1" result="back"/>
			<feBlend  in="SourceGraphic" in2="back" mode="normal"/>
		</filter>
	</defs>
	<mask maskUnits="userSpaceOnUse" x="116.6" y="192.6" width="43.9" height="9.1" id="XMLID_28_">
		<g id="XMLID_45_" class="st36">
			<defs>
				<filter id="Adobe_OpacityMaskFilter_5_" filterUnits="userSpaceOnUse" x="116.6" y="192.6" width="43.9" height="9.1">
					<feFlood  style="flood-color:white;flood-opacity:1" result="back"/>
					<feBlend  in="SourceGraphic" in2="back" mode="normal"/>
				</filter>
			</defs>
			<mask maskUnits="userSpaceOnUse" x="116.6" y="192.6" width="43.9" height="9.1" id="XMLID_28_">
				<g id="XMLID_540_" class="st37">
				</g>
			</mask>
			<linearGradient id="XMLID_30_" gradientUnits="userSpaceOnUse" x1="116.6445" y1="197.1615" x2="160.5447" y2="197.1615">
				<stop  offset="1.254480e-02" style="stop-color:#FFFFFF"/>
				<stop  offset="1" style="stop-color:#000000"/>
			</linearGradient>
			<polygon id="XMLID_47_" class="st38" points="159.9,192.6 116.6,192.6 116.6,197.5 125.6,197.5 125.6,201.7 160.5,201.7 
				159.9,201.3 			"/>
		</g>
	</mask>
	<linearGradient id="XMLID_31_" gradientUnits="userSpaceOnUse" x1="116.6445" y1="197.1615" x2="160.5447" y2="197.1615">
		<stop  offset="1.254480e-02" style="stop-color:#CBD2D9"/>
		<stop  offset="1" style="stop-color:#EEEEFA"/>
	</linearGradient>
	<polygon id="XMLID_479_" class="st39" points="159.9,192.6 116.6,192.6 116.6,197.5 125.6,197.5 125.6,201.7 160.5,201.7 
		159.9,201.3 	"/>
	<g id="XMLID_506_">
		<path id="XMLID_504_" class="st19" d="M152.6,107.7c0,4.5-3.2,6.3-7.1,4.1c-3.9-2.3-7.1-7.7-7.1-12.2s3.2-6.3,7.1-4.1
			S152.6,103.2,152.6,107.7z"/>
		<path id="XMLID_1042_" class="st3" d="M145.5,100.6c1.5-0.4,2.9,0.4,3.8,2.3c0.8,1.7,0.8,3.6-0.1,4.2c-1,0.6-2.2,1.1-3.3,1.6
			c-0.1,0.1-0.6-0.2-0.7-0.5c-1.1-1.7-2.2-3.4-3.1-5.1c-1.4-2.5-0.9-5,0.8-4.9C143.8,98.3,144.7,99.3,145.5,100.6z"/>
	</g>
	<g id="XMLID_457_">
		<path id="XMLID_463_" class="st19" d="M132.8,200.2c0.7,0.2,0.4,0.9-2.4,1.3c-2.5,0.3-3.8,0.3-4.9,0.1c-1-0.2-0.6-3-0.6-3
			c0.5-0.1,1.4-0.6,2-0.1c0.5,0.4,1.7,0.7,2.3,0.8C130.8,199.6,132,199.9,132.8,200.2z"/>
		<g id="XMLID_462_">
			<path id="XMLID_465_" class="st3" d="M123.5,120.9c-0.6,0-1.1-0.3-1.4-0.9c-0.3-0.8,0.3-1.3,0.7-2c3.4-5.9,4.4-4.4,6.2-6
				c2-1.8,8.1-8.7,8.2-8.8c0.5-0.6,1-3.4,1.2-2.6c0.5,2.3,1.9,2.3,1.6,2.8c-0.1,0.2-1.4,0.5-1.6,0.8c-0.3,0.4-5.3,8.2-7.4,10.1
				c-2.4,2.2-6.2,6.1-6.9,6.5C124,120.9,123.7,120.9,123.5,120.9z"/>
		</g>
		<g id="XMLID_459_">
			<path id="XMLID_461_" class="st4" d="M123.5,120.9c-0.6,0-1.1-0.3-1.4-0.9c-0.3-0.8,0.3-1.3,0.7-2c3.4-5.9,6.7-6.8,8.4-8.5
				c1.2-1.2,2.8,0.8,2.3,1.7c-0.7,1.3-5.2,7-6.6,8.4c-1.8,1.7-2.4,1-2.9,1.2C124,120.9,123.7,120.9,123.5,120.9z"/>
		</g>
		<path id="XMLID_460_" class="st3" d="M132.7,102.9c0,3.5,0.5,10.8-3,10.8c-0.6,0-1.4-0.2-2.1-0.6c-0.4-0.2-0.6,7.6-1,7.3
			c-3.2-2.3-6.7-14.9-6.7-17.4c0-3.5,2.9-6.4,6.4-6.4C129.8,96.5,132.7,99.4,132.7,102.9z"/>
		<linearGradient id="XMLID_32_" gradientUnits="userSpaceOnUse" x1="133.1461" y1="199.544" x2="133.1461" y2="113.1857">
			<stop  offset="1.100000e-07" style="stop-color:#EA4886"/>
			<stop  offset="0.3059" style="stop-color:#AC3C7B"/>
			<stop  offset="0.6324" style="stop-color:#703171"/>
			<stop  offset="0.8732" style="stop-color:#4A2A6A"/>
			<stop  offset="1" style="stop-color:#3C2768"/>
		</linearGradient>
		<path id="XMLID_468_" class="st40" d="M151.2,113.2c-1.2,2.7-4.4,7.5-7,9.3c-1.4,1-11.2-1.6-11.2-1.6s-2.6-0.6-7.5-3.5
			c-4.9-2.8-8.9-3.7-8.9-1.9c0,8.9-0.4,19.8,0.9,26c-3.3,1.3-4.5,5.5-3.1,26.3c0.5,7.5-2.8,10.9,1.5,25.9c0.2,0.7-1.7,3.6,0.8,3.8
			c1.6,0.1,2.4-2.3,2.3-3c-0.2-1-0.7-0.9-0.7-1.1c2.1-16.1-0.1-17.1,1.4-23.5c1.7-7.3,2-15.4,2.2-15.1c1.7,3-0.2,6.6,1.7,20
			c0.9,6.4-2.3,5.8,1.4,23.7c0.2,1.2,1.8,1.5,1.9,0.1c0.9-12.8,1.4-19.1,2.6-26c2.3-12.4,1.4-22.9,1.1-25.5
			c-1-10.2,2.2-13.4,2.1-15.7c-0.4-6.1-1.5-4.3,3.7-4.4c5.2,0,8.5-0.9,9.5-1.7c3.5-2.6,6.3-10.4,6.8-11.5
			C152.9,113.3,151.3,113.1,151.2,113.2z"/>
		<linearGradient id="XMLID_33_" gradientUnits="userSpaceOnUse" x1="120.7656" y1="150.1779" x2="120.7656" y2="95.7458">
			<stop  offset="1.100000e-07" style="stop-color:#EA4886"/>
			<stop  offset="2.329629e-02" style="stop-color:#EB4B83"/>
			<stop  offset="0.4833" style="stop-color:#F68751"/>
			<stop  offset="0.8217" style="stop-color:#FCAD31"/>
			<stop  offset="1" style="stop-color:#FFBB25"/>
		</linearGradient>
		<path id="XMLID_456_" class="st41" d="M132.7,102.9c0,5.2-8.4,0.4-6.4,16c3.1,24.3-7.7,2-3.5,22.4c0.3,1.5,2.2,8.9-2,8.9
			c-2.1,0-3.2-8.7-6.1-6.9c-2.1,1.2-3.8-3.3-4.6-6.7c-4.6-18.8,5.5-13.6,5.3-15.5c-1.3-11.8-2.6-15.3,4.5-19.7c0,0-1.2-5.7,7.1-5.7
			C130.9,95.8,132.7,97.7,132.7,102.9z"/>
		<g id="XMLID_466_">
			<path id="XMLID_467_" class="st3" d="M144.2,122.6c2.5-1.9,5.7-6.6,7-9.3c0.1-0.2,0.2-0.6,0.4-1.1c0-0.1-1.6-2.2-0.9-2.1
				c0.7,0.1,1.1,0.8,1.3,0.2c0.2-0.5,0.5-1.6,0.5-1.6c2.1,1.5,0.4,4.8,0.1,5.4c-0.5,1.1-3.3,8.9-6.8,11.5c0,0,0.8-1.3,0.1-2.3
				C145.2,122.1,144.2,122.6,144.2,122.6z"/>
		</g>
	</g>
</g>
<g id="man">
	<defs>
		<filter id="Adobe_OpacityMaskFilter_6_" filterUnits="userSpaceOnUse" x="258" y="246.8" width="56.9" height="29">
			<feFlood  style="flood-color:white;flood-opacity:1" result="back"/>
			<feBlend  in="SourceGraphic" in2="back" mode="normal"/>
		</filter>
	</defs>
	<mask maskUnits="userSpaceOnUse" x="258" y="246.8" width="56.9" height="29" id="XMLID_34_">
		<g id="XMLID_27_" class="st42">
			<defs>
				<filter id="Adobe_OpacityMaskFilter_7_" filterUnits="userSpaceOnUse" x="258" y="246.8" width="56.9" height="29">
					<feFlood  style="flood-color:white;flood-opacity:1" result="back"/>
					<feBlend  in="SourceGraphic" in2="back" mode="normal"/>
				</filter>
			</defs>
			<mask maskUnits="userSpaceOnUse" x="258" y="246.8" width="56.9" height="29" id="XMLID_34_">
				<g id="XMLID_515_" class="st43">
				</g>
			</mask>
			<linearGradient id="XMLID_35_" gradientUnits="userSpaceOnUse" x1="257.9945" y1="261.2843" x2="314.862" y2="261.2843">
				<stop  offset="1.254480e-02" style="stop-color:#FFFFFF"/>
				<stop  offset="1" style="stop-color:#000000"/>
			</linearGradient>
			<polygon id="XMLID_29_" class="st44" points="286.7,253.2 286.7,246.8 258,246.8 258,275.8 314.9,275.8 314.9,264.6 306.3,264.6 
							"/>
		</g>
	</mask>
	<linearGradient id="XMLID_36_" gradientUnits="userSpaceOnUse" x1="257.9945" y1="261.2843" x2="314.862" y2="261.2843">
		<stop  offset="1.254480e-02" style="stop-color:#CBD2D9"/>
		<stop  offset="1" style="stop-color:#EEEEFA"/>
	</linearGradient>
	<polygon id="XMLID_429_" class="st45" points="286.7,253.2 286.7,246.8 258,246.8 258,275.8 314.9,275.8 306.3,264.6 306.3,264.6 	
		"/>
	<defs>
		<filter id="Adobe_OpacityMaskFilter_8_" filterUnits="userSpaceOnUse" x="220.7" y="288.1" width="38.3" height="6">
			<feFlood  style="flood-color:white;flood-opacity:1" result="back"/>
			<feBlend  in="SourceGraphic" in2="back" mode="normal"/>
		</filter>
	</defs>
	<mask maskUnits="userSpaceOnUse" x="220.7" y="288.1" width="38.3" height="6" id="XMLID_37_">
		<g id="XMLID_23_" class="st46">
			<defs>
				<filter id="Adobe_OpacityMaskFilter_9_" filterUnits="userSpaceOnUse" x="220.7" y="288.1" width="38.3" height="6">
					<feFlood  style="flood-color:white;flood-opacity:1" result="back"/>
					<feBlend  in="SourceGraphic" in2="back" mode="normal"/>
				</filter>
			</defs>
			<mask maskUnits="userSpaceOnUse" x="220.7" y="288.1" width="38.3" height="6" id="XMLID_37_">
				<g id="XMLID_507_" class="st47">
				</g>
			</mask>
			<linearGradient id="XMLID_38_" gradientUnits="userSpaceOnUse" x1="220.7268" y1="291.1035" x2="259.0226" y2="291.1035">
				<stop  offset="1.254480e-02" style="stop-color:#FFFFFF"/>
				<stop  offset="1" style="stop-color:#000000"/>
			</linearGradient>
			<polygon id="XMLID_25_" class="st48" points="259,288.1 225.1,288.1 220.7,294.1 259,294.1 			"/>
		</g>
	</mask>
	<linearGradient id="XMLID_39_" gradientUnits="userSpaceOnUse" x1="220.7268" y1="291.1035" x2="259.0226" y2="291.1035">
		<stop  offset="1.254480e-02" style="stop-color:#CBD2D9"/>
		<stop  offset="1" style="stop-color:#EEEEFA"/>
	</linearGradient>
	<polygon id="XMLID_428_" class="st49" points="259,288.1 225.1,288.1 220.7,294.1 259,294.1 	"/>
	<g id="XMLID_579_">
		<g id="XMLID_490_">
			<path id="XMLID_492_" class="st2" d="M250.2,274.1l-18.2-10.5c-2-1.1-2.9-2.6-2.9-4.2c0-1.9,0-15.3,0-15.3l57.6-0.5
				c0,0,0,13.7,0,15.2c0,1.9-1.4,3.9-4.1,5.5l-15.8,9.1C262,276.3,254.5,276.6,250.2,274.1z"/>
			<path id="XMLID_491_" class="st12" d="M250.2,259.1l-18.2-10.5c-4.3-2.5-3.7-6.8,1.2-9.6l15.8-9.1c4.9-2.9,12.4-3.2,16.7-0.7
				l18.2,10.5c4.3,2.5,3.7,6.8-1.2,9.6l-15.8,9.1C262,261.3,254.5,261.6,250.2,259.1z"/>
		</g>
		<g id="XMLID_487_">
			<path id="XMLID_546_" class="st50" d="M224.7,292.3c-2,1.2-3.9,2.7-6.2,1.2c-2.3-1.5,1.1-2.8,3-4.2c1.7-1.2,2.7-1.7,3.7-1.9
				c1.2-0.2,2.7,0.3,2.7,0.3s0.1,1.4,0,1.9c-0.1,0.4-0.4,1.2-0.9,1.7C226.7,291.7,225.2,292,224.7,292.3z"/>
			
				<linearGradient id="XMLID_40_" gradientUnits="userSpaceOnUse" x1="181.4114" y1="488.1487" x2="181.4114" y2="424.6012" gradientTransform="matrix(0.866 0.5 0 1.1547 87.4098 -354.7836)">
				<stop  offset="1.100000e-07" style="stop-color:#EA4886"/>
				<stop  offset="2.329629e-02" style="stop-color:#EB4B83"/>
				<stop  offset="0.4833" style="stop-color:#F68751"/>
				<stop  offset="0.8217" style="stop-color:#FCAD31"/>
				<stop  offset="1" style="stop-color:#FFBB25"/>
			</linearGradient>
			<path id="XMLID_489_" class="st51" d="M260.6,248.8c-5.7,5.2-16.3,12.9-20.5,17.9c-2.5,3-5.7,9.8-8.6,15.2
				c-1.3,2.4-3.6,7.9-5.1,7.2c-1.4-0.7-1.2-1.7-1.2-1.7c0.2-4.8,5-17.7,9.8-25.3c3.8-6,12.4-14.6,11.3-15.7
				c-1.2-1.1-15.2,7.3-11.1,7.9c5.6,0.8,18.2,8.2,17.6,9c-0.5,0.6,0.2,1-1,1.2c-0.9,0.1-3.6,0.1-4.8,0c-8.6-0.6-23-6.3-23-10
				c0-4.8,17.5-18.2,17.5-18.2l3.9-9.7l19.6,11.3C264.9,238,266.3,243.7,260.6,248.8z"/>
			<path id="XMLID_488_" class="st17" d="M242.8,264c-1,1-1.9,1.9-2.6,2.8c-4.1,5-11.7,6.4-5.6-3.8c0.2-0.3,0.2-0.4,0.4-0.6
				c0.1-0.1,0.3-0.4,0.3-0.4C237.7,262.7,242.8,264,242.8,264z"/>
			<linearGradient id="XMLID_41_" gradientUnits="userSpaceOnUse" x1="257.8309" y1="239.2005" x2="257.8309" y2="205.513">
				<stop  offset="0" style="stop-color:#F58652"/>
				<stop  offset="2.407968e-02" style="stop-color:#F58851"/>
				<stop  offset="0.6625" style="stop-color:#FCAD31"/>
				<stop  offset="1" style="stop-color:#FFBB25"/>
			</linearGradient>
			<path id="XMLID_486_" class="st52" d="M261.6,211.1c-6.5-3.7-12.7-6.2-14-5.5c-1.3,0.7-2.2,22.4-2.2,22.4c-1,0.6,2.4,3.5,7.7,6.6
				c5.3,3.1,10.4,5,11.4,4.5c0,0,0.5-1.6,1.3-3.9c1-3.3,4.8-7.6,4.6-15.7c-0.1-2.6-2.2-4.1-2.2-4.1
				C266.5,214.2,264.2,212.6,261.6,211.1z"/>
			<path id="XMLID_485_" class="st3" d="M256.7,198.5c1.7,3,1.2,5.5,4.9,12.6c0.2,0.3-1.3,0.8-3-0.1c-1.2-0.6-2.8-2.7-3-2.6
				c-3.6,2.4-6.4-0.7-8.6-4.5c-2.2-3.8-2.1-7.7,0.7-9.3C250.5,192.9,254.5,194.7,256.7,198.5z"/>
			<path id="XMLID_484_" class="st4" d="M258.2,202.7c-0.6,1.4-1.3-2.6-1.8-1.6c-0.3,0.6-0.8,1.1-1.5,1.3c-1.9,0.4-2.3-1.8-3.7-2.3
				c-2.5-0.9-6,0-6,0c-0.3-2.6-0.3-4.2,2.3-7C251.3,189,262.7,191.8,258.2,202.7z"/>
			<g id="XMLID_483_">
				<path id="XMLID_536_" class="st3" d="M251.1,239.2c-2.4,0-3.6-0.9-5.5-1.5c-1.1-0.3-2.5-3.4-2.5-3.4c0.3-1.1,1.6-0.2,2.7,0.1
					c5,1.6,13.7,0.1,16.9-1.6c1.4-0.8,1.9-5.4,1.9-12.7c0-1.1,1.1-3.5,2.6-3.5c1.5,0,2.9,1.9,2.9,3.9c0,6.1-1.1,13.4-5.5,15.8
					C261.6,238,256.1,239.2,251.1,239.2z"/>
			</g>
			<path id="XMLID_482_" class="st4" d="M250.9,238.8l-15.7-9.1c-1-0.6-0.9-1.6,0.3-2.3l8.7-5c1.2-0.7,2.9-0.7,3.9-0.2l15.7,9.1
				c1,0.6,0.9,1.6-0.3,2.3l-8.7,5C253.7,239.3,251.9,239.4,250.9,238.8z"/>
			<path id="XMLID_481_" class="st2" d="M250.7,237.3l-12.9-7.5c-0.8-0.5-0.7-1.3,0.2-1.9l7.2-4.2c1-0.6,2.4-0.6,3.2-0.1l12.9,7.5
				c0.8,0.5,0.7,1.3-0.2,1.9l-7.2,4.2C252.9,237.8,251.5,237.8,250.7,237.3z"/>
			<g id="XMLID_480_">
				<path id="XMLID_529_" class="st3" d="M253.5,234.3c-0.7,0-1.5-0.4-1.8-1.1c-3.5-6.9-10.1-6.2-11.7-10c-0.2-0.5-0.3-1.1,0-1.7
					c0.8-2,4.6-10.8,7.2-14.7l-1.2,11.9c-0.4,0.5-0.7,1.2-0.8,1.9c-0.2,1.6,7.2,4.7,10.2,10.6c0.5,1,0.8,3.4-0.2,3.9
					C254.8,235.4,253.8,234.3,253.5,234.3z"/>
			</g>
			<linearGradient id="XMLID_42_" gradientUnits="userSpaceOnUse" x1="251.1694" y1="266.5958" x2="256.3934" y2="266.5958">
				<stop  offset="0" style="stop-color:#F58652"/>
				<stop  offset="2.407968e-02" style="stop-color:#F58851"/>
				<stop  offset="0.6625" style="stop-color:#FCAD31"/>
				<stop  offset="1" style="stop-color:#FFBB25"/>
			</linearGradient>
			<path id="XMLID_478_" class="st53" d="M255.5,261.8c0.5,0.9,1.8,3.6,0,6.3s-3.7,4.2-4.2,3.3c-0.5-0.9,0.7-3.9,2.5-6.7
				C255.7,262,255,260.9,255.5,261.8z"/>
			<path id="XMLID_537_" class="st50" d="M251.1,261.9c0.3,0.5,0.7,0.4,0.9,0.6c0.1,0.1,0.4,0.5,0.2,1.9c-0.2,1.8-1.9,4.3-1.6,5.8
				c0.3,1.3,0.9,1.7,0.7,1.2c-0.5-0.9,0.7-3.9,2.5-6.7c1.4-2.1,1.4-3.2,1.5-3.3C255.3,261.5,251,261.7,251.1,261.9z"/>
		</g>
	</g>
</g>
<g id="text">
</g>
</svg>
