<?xml version="1.0" encoding="utf-8"?>
<!-- Generator: Adobe Illustrator 23.0.1, SVG Export Plug-In . SVG Version: 6.00 Build 0)  -->
<svg version="1.1" id="Layer_35" xmlns="http://www.w3.org/2000/svg" xmlns:xlink="http://www.w3.org/1999/xlink" x="0px" y="0px"
	 viewBox="0 0 512 512" style="enable-background:new 0 0 512 512;" xml:space="preserve">
<style type="text/css">
	.st0{fill:#EC0000;}
</style>
<g>
	<path class="st0" d="M312,440H184v-96h128V440z"/>
	<path class="st0" d="M168,440H40v-96h128V440z"/>
	<path class="st0" d="M336,144h-88V40h112v16h-24V144z"/>
</g>
<path d="M440.3,165.7c14.3-10.2,23.7-26.8,23.7-45.7c0-30.9-25.1-56-56-56c-5.6,0-10.9,0.8-16,2.4V8H92.7L8,92.7V472h344
	c0,17.6,14.4,32,32,32c9.6,0,18.1-4.3,24-11.1c5.9,6.7,14.4,11.1,24,11.1c17.6,0,32-14.4,32-32V320h12c15.4,0,28-12.6,28-28v-36
	C504,214.4,477.4,179,440.3,165.7z M448,120c0,22.1-17.9,40-40,40s-40-17.9-40-40s17.9-40,40-40S448,97.9,448,120z M88,35.3V88H35.3
	L88,35.3z M24,456V104h80V24h272v48.7h2.2C362.5,82.6,352,100.1,352,120c0,18.8,9.4,35.5,23.6,45.6c-29.4,10.5-52.5,35.1-60.6,66.4
	h-67.4c0.2-2.7,0.3-5.3,0.3-8c0-57.3-46.7-104-104-104S40,166.7,40,224s46.7,104,104,104c28.3,0,55.3-11.7,74.9-32H352v160H24z
	 M412,264c-11.1,0-20.7,6.6-25.2,16H384v-32h32c8.8,0,16,7.2,16,16H412z M368,280h-16v-32h16V280z M336,280H208v-32h128V280z
	 M231.6,232h-33.5l-64,32l61.9,31c-15,11-33.2,17-52,17c-48.5,0-88-39.5-88-88s39.5-88,88-88s88,39.5,88,88
	C232,226.7,231.9,229.3,231.6,232z M169.9,264l22.1-11.1v22.1L169.9,264z M448,472c0,8.8-7.2,16-16,16s-16-7.2-16-16V336h-16v136
	c0,8.8-7.2,16-16,16s-16-7.2-16-16V296h16.4c2,13.5,13.5,24,27.6,24h36V472z M488,292c0,6.6-5.4,12-12,12h-64c-6.6,0-12-5.4-12-12
	s5.4-12,12-12h60v-16h-24c0-17.6-14.4-32-32-32h-84.3c10.3-32.9,40.9-56,76.3-56c44.1,0,80,35.9,80,80V292z"/>
<path d="M144,152c-39.7,0-72,32.3-72,72c0,26.2,14.2,50.3,37.1,63l7.8-14C99.1,263.1,88,244.3,88,224c0-30.9,25.1-56,56-56
	c28.2,0,52.1,21.1,55.6,49l15.9-2C211,179.1,180.2,152,144,152L144,152z"/>
<path d="M344,40h16v16h-16V40z"/>
<path d="M312,40h16v16h-16V40z"/>
<path d="M280,40h16v16h-16V40z"/>
<path d="M248,72h88v16h-88V72z"/>
<path d="M248,104h88v16h-88V104z"/>
<path d="M248,136h88v16h-88V136z"/>
<path d="M248,40h16v16h-16V40z"/>
</svg>
