<?xml version="1.0" encoding="utf-8"?>
<!-- Generator: Adobe Illustrator 23.0.1, SVG Export Plug-In . SVG Version: 6.00 Build 0)  -->
<svg version="1.1" id="Layer_1" xmlns="http://www.w3.org/2000/svg" xmlns:xlink="http://www.w3.org/1999/xlink" x="0px" y="0px"
	 viewBox="0 0 300.2 300.2" style="enable-background:new 0 0 300.2 300.2;" xml:space="preserve">
<style type="text/css">
	.st0{fill:url(#SVGID_1_);}
	.st1{fill:url(#SVGID_2_);}
	.st2{fill:#333333;}
</style>
<g>
	<g>
		<linearGradient id="SVGID_1_" gradientUnits="userSpaceOnUse" x1="38.73" y1="106.0493" x2="135.556" y2="106.0493">
			<stop  offset="0" style="stop-color:#C40E53"/>
			<stop  offset="1" style="stop-color:#EC0000"/>
		</linearGradient>
		<path class="st0" d="M87.1,57.6c-26.7,0-48.4,21.7-48.4,48.4s21.7,48.4,48.4,48.4s48.4-21.7,48.4-48.4H87.1V57.6z"/>
		<linearGradient id="SVGID_2_" gradientUnits="userSpaceOnUse" x1="101.667" y1="67.3198" x2="150.08" y2="67.3198">
			<stop  offset="0" style="stop-color:#C40E53"/>
			<stop  offset="1" style="stop-color:#EC0000"/>
		</linearGradient>
		<path class="st1" d="M101.7,43.1v48.4h48.4C150.1,64.8,128.4,43.1,101.7,43.1z"/>
		<path class="st2" d="M300.2,29V0H0v29h14.5v174.3H0v29h84.2l-30.4,60.8l8.7,4.3L95,232.4h50.3v62.9h9.7v-62.9h50.3l32.6,65.1
			l2.5-1.2c3.2,2.4,7.2,3.9,11.5,3.9c5.8,0,11-2.6,14.5-6.7c3.6,4.1,8.7,6.7,14.5,6.7c10.7,0,19.4-8.7,19.4-19.4V141.6
			c0-15-9-27.9-21.9-32.8c10.1-4.6,17.1-14.7,17.1-26.4c0-8.6-3.8-16.3-9.7-21.6V29H300.2z M9.7,19.4V9.7h280.8v9.7h-4.8H14.5
			L9.7,19.4L9.7,19.4z M9.7,213h4.8h217.9v9.7H9.7V213z M232.4,232.4v32.7L216,232.4L232.4,232.4L232.4,232.4z M290.5,141.6v139.2
			c0,5.3-4.3,9.7-9.7,9.7c-5.3,0-9.7-4.3-9.7-9.7V213h-9.7v67.8c0,5.3-4.3,9.7-9.7,9.7s-9.7-4.3-9.7-9.7v-48.4v-29v-59.1l-27.3,12.1
			c-3.3,1.5-7.2,0.7-9.8-1.8l-24.9-24.9c-2.1-2.1-2.1-5.6,0-7.7c2.1-2.1,5.6-2.1,7.7,0l24.6,24.6l3.3-2.1
			c15-9.8,37.8-24.5,38.8-25.2c4.4-2.5,9.5-3.5,14.6-2.9C281.1,117.7,290.5,128.8,290.5,141.6z M266.3,101.7
			c-10.7,0-19.4-8.7-19.4-19.4s8.7-19.4,19.4-19.4c10.7,0,19.4,8.7,19.4,19.4S277,101.7,266.3,101.7z M276,54.9
			c-3-1.1-6.3-1.7-9.7-1.7c-16,0-29,13-29,29c0,11.7,7,21.8,17,26.4c-1.5,0.6-3.1,1.3-4.5,2.1c-0.5,0.3-12.7,8.2-36.1,23.4l-19-19
			c-4.5-4.5-11-5.5-16.5-3.2l-24-37.1l-8.1,5.3l24.8,38.4c-1.3,2.2-2,4.7-2,7.4c0,4,1.6,7.8,4.4,10.7l24.9,24.9
			c5.4,5.4,13.6,6.9,20.6,3.8l13.7-6.1v44.2H24.2V29H276V54.9z"/>
		<rect x="111.3" y="164.6" class="st2" width="77.5" height="9.7"/>
		<rect x="125.9" y="184" class="st2" width="62.9" height="9.7"/>
		<rect x="154.9" y="43.6" class="st2" width="9.7" height="9.7"/>
		<rect x="174.3" y="43.6" class="st2" width="9.7" height="9.7"/>
		<rect x="193.7" y="43.6" class="st2" width="9.7" height="9.7"/>
		<rect x="213" y="43.6" class="st2" width="9.7" height="9.7"/>
	</g>
</g>
</svg>
