<?xml version="1.0" encoding="utf-8"?>
<!-- Generator: Adobe Illustrator 23.0.1, SVG Export Plug-In . SVG Version: 6.00 Build 0)  -->
<svg version="1.1" id="Layer_1" xmlns="http://www.w3.org/2000/svg" xmlns:xlink="http://www.w3.org/1999/xlink" x="0px" y="0px"
	 viewBox="0 0 290.6 290.6" style="enable-background:new 0 0 290.6 290.6;" xml:space="preserve">
<style type="text/css">
	.st0{fill:#EC0000;}
	.st1{fill:#333333;}
</style>
<g>
	<g>
		<rect x="42.2" y="56.2" class="st0" width="159.4" height="206.3"/>
		<path class="st1" d="M215.6,28.1h-38.4c-1.9-5.4-7.1-9.4-13.2-9.4H150v-4.7C150,6.3,143.7,0,135.9,0h-28.1
			c-7.8,0-14.1,6.3-14.1,14.1v4.7H79.7c-6.1,0-11.3,3.9-13.2,9.4H28.1c-7.8,0-14.1,6.3-14.1,14.1v234.4c0,7.8,6.3,14.1,14.1,14.1
			h187.5c7.8,0,14.1-6.3,14.1-14.1V42.2C229.7,34.4,223.4,28.1,215.6,28.1z M75,32.8c0-2.6,2.1-4.7,4.7-4.7h23.4V14.1
			c0-2.6,2.1-4.7,4.7-4.7h28.1c2.6,0,4.7,2.1,4.7,4.7v14.1h23.4c2.6,0,4.7,2.1,4.7,4.7v14.1c0,2.6-2.1,4.7-4.7,4.7H79.7
			c-2.6,0-4.7-2.1-4.7-4.7L75,32.8L75,32.8z M220.3,276.6c0,2.6-2.1,4.7-4.7,4.7H28.1c-2.6,0-4.7-2.1-4.7-4.7V42.2
			c0-2.6,2.1-4.7,4.7-4.7h37.5v9.4c0,7.8,6.3,14.1,14.1,14.1h84.4c7.8,0,14.1-6.3,14.1-14.1v-9.4h37.5c2.6,0,4.7,2.1,4.7,4.7
			L220.3,276.6L220.3,276.6z"/>
		<path class="st1" d="M173.4,112.5h-46.9v-9.4h14.1V70.3h-37.5v32.8h14.1v9.4H70.3v18.8H56.3v32.8h37.5v-32.8H79.7v-9.4h37.5v9.4
			h-14.1v32.8h37.5v-32.8h-14.1v-9.4h37.5v9.4H150v32.8h14.1v9.4h-46.9v18.8h-14.1V225h37.5v-32.8h-14.1v-9.4h46.9v-18.8h14.1v-32.8
			h-14.1L173.4,112.5L173.4,112.5z M112.5,79.7h18.8v14.1h-18.8C112.5,93.7,112.5,79.7,112.5,79.7z M84.4,154.7H65.6v-14.1h18.8
			V154.7z M131.3,154.7h-18.8v-14.1h18.8V154.7z M131.3,215.6h-18.8v-14.1h18.8V215.6z M178.1,154.7h-18.8v-14.1h18.8V154.7z"/>
		<path class="st1" d="M262.5,32.8c-7.8,0-14.1,6.3-14.1,14.1v9.4v9.4V75v9.4v160.1l14.1,42.2l14.1-42.2V84.4V75v-9.4v-9.4v-9.4
			C276.6,39.1,270.3,32.8,262.5,32.8z M259.6,248.4h5.7l-2.9,8.6L259.6,248.4z M267.2,239.1h-9.4V84.4h9.4V239.1z M267.2,75h-9.4
			v-9.4h9.4V75z M257.8,56.2v-9.4c0-2.6,2.1-4.7,4.7-4.7c2.6,0,4.7,2.1,4.7,4.7v9.4H257.8z"/>
	</g>
</g>
</svg>
